<?xml version="1.0" standalone="no"?>
<!DOCTYPE svg PUBLIC "-//W3C//DTD SVG 20010904//EN"
 "http://www.w3.org/TR/2001/REC-SVG-20010904/DTD/svg10.dtd">
<svg version="1.0" xmlns="http://www.w3.org/2000/svg"
 width="700.000000pt" height="700.000000pt" viewBox="0 0 700.000000 700.000000"
 preserveAspectRatio="xMidYMid meet">
<metadata>
Created by potrace 1.14, written by Peter Selinger 2001-2017
</metadata>
<g transform="translate(0.000000,700.000000) scale(0.100000,-0.100000)"
fill="#000000" stroke="none">
<path d="M0 3500 l0 -3500 3500 0 3500 0 0 3500 0 3500 -3500 0 -3500 0 0
-3500z m1050 1590 l0 -240 -190 0 -190 0 0 240 0 240 190 0 190 0 0 -240z
m5460 -1370 l0 -1610 -190 0 -190 0 0 1610 0 1610 190 0 190 0 0 -1610z
m-3435 752 l50 -7 5 -193 c3 -105 4 -192 3 -192 -2 0 -38 12 -80 27 -101 34
-279 43 -393 19 -182 -38 -323 -149 -403 -317 -92 -191 -97 -248 -97 -1046 l0
-653 -190 0 -190 0 0 1160 0 1160 190 0 190 0 2 -177 3 -176 37 55 c114 172
305 292 526 332 81 15 263 19 347 8z m1697 -20 c282 -76 482 -240 608 -497 87
-178 120 -343 120 -607 l0 -168 -872 -2 -873 -3 3 -50 c14 -217 115 -445 250
-565 65 -58 208 -132 297 -155 281 -72 677 -21 1004 131 52 24 96 44 97 44 2
0 4 -80 4 -178 l0 -178 -97 -36 c-272 -100 -552 -146 -823 -135 -340 14 -589
111 -794 308 -163 156 -258 332 -312 579 -27 123 -27 507 0 630 99 456 357
753 751 865 135 38 193 44 385 41 138 -3 191 -8 252 -24z m-3722 -1182 l0
-1160 -190 0 -190 0 0 1153 c0 635 3 1157 7 1160 3 4 89 7 190 7 l183 0 0
-1160z"/>
<path d="M4348 4150 c-300 -51 -499 -245 -563 -552 -8 -38 -15 -83 -15 -99 l0
-29 598 0 c330 0 633 3 675 6 l77 7 0 43 c0 23 -6 75 -14 116 -51 263 -225
453 -461 503 -74 16 -219 18 -297 5z"/>
</g>
</svg>
