<?xml version="1.0" standalone="no"?>
<!DOCTYPE svg PUBLIC "-//W3C//DTD SVG 20010904//EN"
 "http://www.w3.org/TR/2001/REC-SVG-20010904/DTD/svg10.dtd">
<svg version="1.0" xmlns="http://www.w3.org/2000/svg"
 width="512.000000pt" height="512.000000pt" viewBox="0 0 512.000000 512.000000"
 preserveAspectRatio="xMidYMid meet">
<g transform="translate(0.000000,512.000000) scale(0.100000,-0.100000)"
fill="#000000" stroke="none">
<path d="M0 2560 l0 -2560 2560 0 2560 0 0 2560 0 2560 -2560 0 -2560 0 0
-2560z m690 5 l0 -845 -162 2 -163 3 -3 843 -2 842 165 0 165 0 0 -845z m1125
830 c194 -41 340 -178 390 -366 30 -111 15 -262 -36 -363 -29 -59 -129 -156
-197 -190 -29 -14 -52 -28 -52 -30 0 -1 83 -163 185 -360 102 -196 185 -359
185 -361 0 -3 -86 -5 -190 -5 l-190 0 -164 335 -164 335 -116 0 -116 0 -2
-332 -3 -333 -165 0 -165 0 -3 830 c-1 457 0 836 3 843 7 19 706 17 800 -3z
m2223 -682 l2 -693 380 0 381 0 -3 -147 -3 -148 -545 0 -545 0 -3 830 c-1 457
0 836 3 843 3 10 43 12 167 10 l163 -3 3 -692z m-965 242 c143 -37 252 -126
317 -259 52 -104 70 -192 70 -338 l0 -118 -386 0 -386 0 7 -42 c15 -88 62
-160 129 -195 67 -35 227 -33 299 3 18 9 50 31 73 49 l40 33 92 -85 c51 -46
92 -90 92 -96 0 -32 -163 -141 -255 -170 -94 -29 -308 -31 -400 -3 -186 57
-297 172 -352 366 -14 52 -18 100 -18 245 1 169 3 185 28 262 59 177 179 298
341 344 77 22 232 24 309 4z"/>
<path d="M1350 2890 l0 -220 163 0 c181 1 235 9 289 47 78 53 110 179 69 269
-22 48 -82 101 -131 114 -19 6 -115 10 -212 10 l-178 0 0 -220z"/>
<path d="M2825 2696 c-65 -28 -114 -103 -130 -198 l-6 -38 231 0 230 0 0 38
c0 43 -31 116 -63 150 -40 43 -91 62 -164 62 -37 -1 -81 -7 -98 -14z"/>
</g>
</svg>
