<?xml version="1.0" encoding="UTF-8" standalone="no"?>
<svg id="svg" data-name="svg" xmlns="http://www.w3.org/2000/svg" viewBox="0 0 64 64">
  <defs>
    <style>
      .cls-1 {
        fill: none;
      }

      .cls-1, .cls-2 {
        stroke-width: 0px;
      }

      .cls-2 {
        fill: #fff;
      }
    </style>
  </defs>
  <rect class="cls-1" x="0" y="9.93" width="62.9" height="44.14"/>
  <path class="cls-2" d="M0,9.93v5.66c1.19,1.44,2.55,3.14,4.07,5.12,1.65,2.15,3.34,4.39,5.05,6.72,1.71,2.33,3.39,4.65,5.01,6.96,1.62,2.31,3.03,4.42,4.24,6.34l-.06-22.35c-.04-.75-.32-1.16-.88-1.37-.59-.22-1.72-.33-2.54-.33-.19,0-.33-.08-.43-.26-.1-.17-.14-.36-.14-.55,0-.22.05-.41.14-.57.09-.16.23-.23.43-.23.32,0,1.25.02,1.96.08.6.05,1.28.07,2.05.07h.47c.95,0,1.77-.02,2.47-.08.69-.05,1.63-.08,1.96-.08.19,0,.33.08.43.23.1.16.14.35.14.57,0,.19-.05.37-.14.55-.1.17-.24.26-.43.26-.82,0-1.96.11-2.54.33-.59.23-.86.7-.86,1.33l-.02,30.01c0,.26-.1.42-.29.5-.19.08-.41.12-.66.12s-.49-.03-.71-.1c-.22-.07-.36-.16-.43-.3-.66-1.04-1.57-2.32-2.72-3.98-1.15-1.66-2.41-3.45-3.79-5.38-1.38-1.93-2.81-3.91-4.27-5.93-1.46-2.02-2.87-3.93-4.22-5.72C2.08,25.98.99,24.57,0,23.32v30.73h30.42V9.93H0Z"/>
  <path class="cls-2" d="M33.58,9.93v21.07c1.93-.18,3.66-.69,5.18-1.5,1.72-.92,3.16-1.93,4.31-3.22,1.15-1.28,2.02-2.65,2.61-4.11.59-1.46.88-2.78.88-3.97,0-.52-.23-.93-.67-1.25-.45-.33-1.06-.48-1.82-.48-.39,0-.57-.23-.57-.71,0-.19.05-.36.14-.5.1-.14.24-.21.43-.21.35,0,.97.02,1.87.08.89.05,2.14.08,3.74.08s2.9-.02,3.81-.08c.91-.05,1.52-.08,1.85-.08.39,0,.57.23.57.71,0,.19-.05.36-.14.5-.1.14-.24.21-.43.21-.93,0-1.66.14-2.2.41-.54.27-.96.86-1.25,1.76-.6,1.86-1.46,3.52-2.54,4.98s-2.29,2.72-3.59,3.78c-1.31,1.06-2.67,1.91-4.08,2.55-1.4.64-2.73,1.09-3.98,1.35,1.92.32,3.65.92,5.2,1.78s2.92,1.92,4.12,3.15c1.2,1.23,2.23,2.63,3.12,4.19.88,1.56,1.59,3.2,2.14,4.93.29.9.7,1.48,1.25,1.76.54.27,1.28.41,2.2.41.19,0,.33.07.43.21.1.14.14.31.14.5,0,.48-.19.71-.57.71-.32,0-.97-.02-1.94-.08-.97-.05-2.27-.08-3.91-.08s-2.85.02-3.74.08c-.89.05-1.52.08-1.86.08-.2,0-.34-.07-.43-.21-.1-.14-.14-.31-.14-.5,0-.48.19-.71.57-.71.76,0,1.37-.16,1.82-.48.45-.32.67-.73.67-1.25,0-.58-.14-1.31-.41-2.19-.27-.88-.67-1.8-1.2-2.76-.53-.96-1.19-1.93-1.99-2.91-.8-.98-1.71-1.87-2.76-2.67-1.03-.8-2.23-1.4-3.47-2-1.18-.56-2.2-.69-3.36-.75v21.58h30.42V9.93h-30.42Z"/>
</svg>
