<?xml version="1.0" standalone="no"?>
<!DOCTYPE svg PUBLIC "-//W3C//DTD SVG 20010904//EN"
 "http://www.w3.org/TR/2001/REC-SVG-20010904/DTD/svg10.dtd">
<svg version="1.0" xmlns="http://www.w3.org/2000/svg"
 width="512.000000pt" height="512.000000pt" viewBox="0 0 512.000000 512.000000"
 preserveAspectRatio="xMidYMid meet">
<g transform="translate(0.000000,512.000000) scale(0.100000,-0.100000)"
fill="#000000" stroke="none">
<path d="M0 2560 l0 -2560 2560 0 2560 0 0 2560 0 2560 -2560 0 -2560 0 0
-2560z m1228 909 c147 -37 274 -130 362 -265 51 -77 97 -191 107 -261 l6 -43
-180 0 -179 0 -18 54 c-45 131 -143 206 -284 214 -93 5 -145 -8 -209 -51 -62
-43 -109 -132 -123 -232 -13 -95 -13 -555 1 -652 18 -133 63 -202 163 -256 34
-18 57 -22 141 -22 83 0 108 4 150 23 111 51 172 150 182 297 l6 85 -172 0
-171 0 0 155 0 155 348 -2 347 -3 -1 -220 c-1 -352 -36 -469 -188 -620 -93
-93 -181 -144 -303 -176 -102 -27 -278 -30 -378 -5 -237 58 -425 239 -470 453
-51 238 -38 854 21 1004 61 156 211 295 381 354 136 48 310 53 461 14z m3062
5 c114 -26 205 -78 300 -174 144 -143 173 -227 192 -542 8 -148 8 -248 0 -396
-19 -315 -48 -399 -192 -542 -138 -139 -274 -193 -485 -193 -212 0 -348 54
-487 193 -99 98 -138 168 -164 291 -35 167 -35 731 0 898 24 114 64 188 149
278 41 43 100 93 130 111 154 93 360 121 557 76z m-1070 -154 l0 -160 -425 0
-425 0 0 -215 0 -215 360 0 360 0 0 -160 0 -160 -360 0 -360 0 0 -225 0 -225
425 0 425 0 0 -160 0 -160 -610 0 -610 0 0 920 0 920 610 0 610 0 0 -160z"/>
<path d="M3985 3150 c-28 -11 -68 -37 -89 -57 -86 -83 -106 -184 -106 -528 0
-253 12 -377 42 -447 28 -64 104 -133 171 -153 173 -51 335 28 388 191 20 63
23 93 27 346 6 392 -11 493 -96 581 -59 61 -104 80 -202 84 -67 2 -96 -1 -135
-17z"/>
</g>
</svg>
