<svg version="1" xmlns="http://www.w3.org/2000/svg" width="664" height="664" viewBox="0 0 498 498"><path d="M475 37.3c-20.6 15.5-36.9 27.6-113.5 84.7-18.7 14-46.4 34.6-61.5 45.9-51.3 38.2-65.5 48.7-66.7 49.5-1.2.7-7.7-4.3-80.7-62.3-32.3-25.7-67.2-53.4-107.2-85.1C28.4 56.5 11.6 43.1 8 40.3 4.4 37.4 1.2 35 .8 35 .3 35 0 70.9 0 114.8v79.8l6.8 5.1c3.7 2.8 16.4 12.1 28.2 20.8 11.8 8.7 24.7 18.1 28.5 21 3.9 2.8 15.8 11.6 26.5 19.5s24.5 18 30.5 22.5c6.1 4.5 18 13.2 26.5 19.5 51.7 38 56 41.2 56 42.2 0 .4-45.7.8-101.5.8H0v133h498V346H385.5c-63.6 0-112.5-.4-112.5-.9 0-.8 2.1-2.3 25.5-18.3 9.4-6.4 34.1-23.3 72-49.3 9.6-6.5 41.5-28.4 63-43.1 7.2-4.9 24.6-16.8 38.7-26.4l25.7-17.5.1-84.8c0-46.6-.3-84.7-.7-84.6-.5 0-10.5 7.3-22.3 16.2z"/></svg>