<?xml version="1.0" standalone="no"?>
<!DOCTYPE svg PUBLIC "-//W3C//DTD SVG 20010904//EN"
 "http://www.w3.org/TR/2001/REC-SVG-20010904/DTD/svg10.dtd">
<svg version="1.0" xmlns="http://www.w3.org/2000/svg"
 width="512.000000pt" height="512.000000pt" viewBox="0 0 512.000000 512.000000"
 preserveAspectRatio="xMidYMid meet">
<g transform="translate(0.000000,512.000000) scale(0.100000,-0.100000)"
fill="#000000" stroke="none">
<path d="M0 2560 l0 -2560 2560 0 2560 0 0 2560 0 2560 -2560 0 -2560 0 0
-2560z m792 614 l3 -467 375 464 376 464 257 3 c141 1 257 0 257 -3 0 -3 -158
-194 -350 -425 -193 -231 -350 -424 -350 -430 0 -8 629 -1083 742 -1267 l20
-33 -250 0 -249 0 -274 485 c-150 267 -276 485 -280 485 -4 0 -68 -73 -143
-162 l-136 -163 0 -322 0 -323 -210 0 -210 0 0 1080 0 1080 210 0 210 0 2
-466z m2008 -614 l0 -1080 -215 0 -215 0 0 1080 0 1080 215 0 215 0 0 -1080z
m894 397 c115 -375 213 -689 217 -697 4 -9 18 21 38 85 17 55 114 368 214 695
l184 595 223 3 c176 2 221 0 218 -10 -3 -7 -164 -493 -358 -1080 l-354 -1068
-161 0 -161 0 -82 253 c-46 138 -206 624 -356 1080 l-274 827 222 0 221 0 209
-683z"/>
</g>
</svg>
