<?xml version="1.0" standalone="no"?>
<!DOCTYPE svg PUBLIC "-//W3C//DTD SVG 20010904//EN"
 "http://www.w3.org/TR/2001/REC-SVG-20010904/DTD/svg10.dtd">
<svg version="1.0" xmlns="http://www.w3.org/2000/svg"
 width="700.000000pt" height="700.000000pt" viewBox="0 0 700.000000 700.000000"
 preserveAspectRatio="xMidYMid meet">
<metadata>
Created by potrace 1.14, written by Peter Selinger 2001-2017
</metadata>
<g transform="translate(0.000000,700.000000) scale(0.100000,-0.100000)"
fill="#000000" stroke="none">
<path d="M0 3500 l0 -3500 3500 0 3500 0 -1 2373 c0 1304 -3 2368 -5 2362 -3
-5 -229 -597 -502 -1315 l-498 -1305 -239 0 -239 0 -583 1525 c-320 839 -585
1533 -588 1543 -6 16 8 17 212 17 l218 0 474 -1263 c261 -694 482 -1279 490
-1299 l16 -38 490 1300 490 1300 132 0 133 0 0 900 0 900 -3500 0 -3500 0 0
-3500z m1112 1050 l3 -650 690 650 690 650 270 0 270 0 -30 -29 c-17 -15 -362
-340 -769 -721 l-738 -693 823 -823 824 -824 -275 0 -275 0 -742 742 -743 743
0 -743 0 -742 -210 0 -210 0 0 1545 0 1545 210 0 210 0 2 -650z m2778 -895 l0
-1545 -210 0 -210 0 0 1545 0 1545 210 0 210 0 0 -1545z"/>
</g>
</svg>
