<?xml version="1.0" standalone="no"?>
<!DOCTYPE svg PUBLIC "-//W3C//DTD SVG 20010904//EN"
 "http://www.w3.org/TR/2001/REC-SVG-20010904/DTD/svg10.dtd">
<svg version="1.0" xmlns="http://www.w3.org/2000/svg"
 width="512.000000pt" height="512.000000pt" viewBox="0 0 512.000000 512.000000"
 preserveAspectRatio="xMidYMid meet">
<metadata>
Created by potrace 1.14, written by Peter Selinger 2001-2017
</metadata>
<g transform="translate(0.000000,512.000000) scale(0.100000,-0.100000)"
fill="#000000" stroke="none">
<path d="M2683 5102 c0 -36 -3 -43 -15 -36 -9 5 -8 2 1 -9 12 -16 12 -17 -5
-10 -17 6 -17 5 -5 -10 12 -15 10 -18 -10 -26 -13 -5 -19 -10 -14 -10 6 -1 11
-9 11 -20 0 -12 -5 -17 -15 -13 -10 4 -13 1 -8 -11 3 -9 0 -22 -7 -29 -7 -7
-11 -19 -8 -27 3 -8 0 -11 -7 -7 -10 7 -15 -13 -14 -52 1 -10 -2 -10 -13 -1
-12 10 -13 9 -8 -5 3 -9 1 -16 -6 -16 -6 0 -8 -5 -4 -12 5 -7 2 -9 -8 -5 -17
6 -19 -8 -4 -32 6 -8 1 -20 -15 -35 l-23 -21 18 23 c11 12 17 24 14 27 -2 3
-14 -9 -27 -25 -12 -17 -18 -30 -14 -29 22 4 25 -3 7 -17 -10 -8 -12 -13 -4
-9 12 5 12 4 -1 -7 -9 -7 -15 -21 -13 -31 2 -13 -2 -17 -12 -13 -8 3 -13 2 -9
-3 3 -5 -1 -12 -7 -14 -10 -4 -10 -6 0 -6 10 -1 10 -5 -2 -16 -8 -9 -13 -22
-10 -30 7 -18 -12 -20 -20 -2 -3 6 -3 -3 0 -21 3 -24 1 -31 -7 -26 -8 5 -10 2
-6 -9 3 -9 -1 -18 -11 -22 -14 -5 -14 -7 -2 -15 12 -8 12 -10 1 -10 -8 0 -11
-6 -7 -16 6 -14 4 -15 -10 -3 -13 11 -15 11 -14 -2 5 -36 0 -51 -16 -45 -14 5
-15 4 -5 -8 9 -11 8 -15 -6 -20 -15 -6 -15 -8 -3 -16 10 -7 11 -10 2 -10 -6 0
-11 -6 -10 -12 2 -8 -6 -12 -17 -11 -20 1 -20 1 -1 -13 12 -8 14 -14 7 -14 -8
0 -11 -6 -7 -16 5 -14 4 -15 -9 -4 -13 11 -14 10 -9 -5 6 -14 4 -16 -7 -10
-12 7 -12 6 -1 -7 11 -14 10 -18 -3 -26 -9 -5 -16 -12 -16 -15 3 -20 0 -28 -8
-23 -4 3 -7 -6 -5 -19 1 -16 -2 -23 -9 -18 -7 4 -8 0 -3 -12 5 -14 4 -15 -7
-7 -10 8 -13 6 -14 -9 -1 -13 2 -17 10 -12 16 9 -13 -27 -37 -48 -15 -12 -16
-18 -6 -24 9 -6 11 -4 5 5 -5 9 -4 11 4 6 15 -10 5 -26 -17 -27 -11 0 -12 -3
-4 -6 6 -2 12 -9 12 -15 0 -6 -8 -7 -17 -4 -10 4 -14 4 -10 0 4 -4 1 -14 -6
-22 -6 -9 -7 -13 -1 -9 6 3 11 -1 11 -9 0 -8 -6 -13 -13 -10 -12 5 -29 -22
-19 -32 3 -3 5 1 5 8 0 7 2 11 5 8 8 -8 -6 -39 -15 -33 -4 3 -11 -2 -14 -11
-4 -10 -2 -13 6 -8 7 5 8 3 4 -5 -5 -7 -14 -10 -22 -7 -10 4 -11 0 -4 -19 8
-20 6 -27 -12 -36 -17 -9 -18 -13 -7 -20 12 -7 11 -9 -1 -10 -8 -1 -18 -1 -21
-1 -3 1 -5 -17 -5 -38 1 -27 -2 -36 -10 -29 -16 13 -26 -2 -11 -19 8 -10 8
-13 1 -9 -7 4 -15 0 -18 -9 -3 -8 -2 -13 2 -10 5 3 9 -1 9 -9 0 -8 -5 -13 -11
-12 -6 1 -10 -4 -9 -10 2 -7 -2 -13 -8 -13 -5 0 -7 -5 -3 -11 5 -8 1 -8 -14 0
-15 8 -21 8 -24 -1 -3 -8 -14 -7 -37 5 -30 15 -32 15 -27 0 5 -13 4 -14 -9 -3
-11 9 -15 9 -15 1 0 -7 -5 -9 -10 -6 -6 4 -7 12 -4 18 5 8 3 8 -7 0 -7 -7 -20
-13 -28 -13 -14 0 -14 1 -1 10 12 7 10 9 -7 7 -12 0 -19 -5 -17 -9 3 -4 -2 -8
-11 -8 -10 0 -13 5 -9 13 5 8 2 8 -9 -2 -15 -12 -21 -9 -18 12 2 12 -6 8 -20
-10 -12 -14 -12 -16 0 -8 10 5 12 4 7 -4 -11 -17 -29 -2 -23 20 3 11 1 17 -4
13 -5 -3 -9 -13 -9 -22 0 -14 -2 -14 -13 2 -12 16 -14 16 -26 2 -8 -9 -19 -16
-25 -16 -6 0 -4 5 4 10 12 8 9 10 -13 10 -20 0 -26 -4 -21 -12 6 -10 4 -10 -7
0 -7 6 -27 12 -44 12 -17 0 -37 6 -44 13 -10 10 -11 8 -5 -8 7 -18 6 -18 -9
-6 -9 7 -17 10 -17 6 0 -4 -8 -1 -17 6 -11 10 -14 10 -9 2 4 -8 1 -13 -8 -13
-9 0 -16 6 -16 13 0 9 -3 8 -9 -2 -7 -11 -9 -11 -14 0 -4 10 -6 10 -6 2 -1 -7
-6 -13 -12 -13 -5 0 -7 6 -3 13 5 8 2 8 -9 -2 -9 -7 -17 -10 -17 -6 0 4 -8 1
-17 -6 -10 -9 -14 -9 -10 -2 5 7 -2 17 -15 24 -20 11 -21 10 -11 -3 10 -12 10
-15 -2 -15 -8 0 -15 5 -15 10 0 5 -8 3 -17 -4 -9 -8 -14 -9 -11 -4 4 6 -5 15
-18 22 -13 6 -22 8 -19 3 3 -4 -2 -13 -9 -19 -11 -9 -16 -9 -22 0 -4 8 -3 9 4
5 8 -5 10 -1 5 10 -4 11 -8 13 -11 6 -2 -7 -8 -10 -13 -6 -5 3 -12 -2 -15 -11
-6 -14 -8 -14 -20 2 -10 14 -15 15 -25 6 -6 -6 -18 -9 -27 -6 -11 5 -13 3 -7
-7 5 -9 4 -11 -3 -6 -7 4 -12 14 -12 23 0 11 -5 9 -18 -7 -14 -18 -19 -19 -19
-7 0 9 5 13 10 10 6 -3 7 -1 3 6 -4 6 -13 8 -19 4 -18 -11 -49 -14 -43 -4 7
11 -13 9 -32 -2 -6 -5 -12 -4 -12 0 0 10 -47 10 -57 0 -3 -4 -12 -2 -19 4 -8
7 -14 7 -19 -1 -4 -7 -11 -7 -18 -2 -22 17 -46 21 -53 10 -5 -7 -2 -8 6 -3 8
5 11 4 6 -3 -4 -6 -13 -9 -21 -6 -8 4 -13 9 -11 13 3 4 -4 7 -14 7 -12 0 -16
-4 -10 -11 6 -7 2 -11 -10 -11 -10 0 -16 4 -14 8 3 5 -7 8 -23 7 -45 -3 -55 0
-47 14 6 9 4 9 -8 -1 -13 -10 -17 -10 -21 0 -4 10 -6 10 -6 1 -1 -7 -6 -13
-12 -13 -5 0 -7 5 -4 10 3 6 2 10 -4 10 -5 0 -12 -8 -14 -17 -4 -16 -5 -16 -6
-2 0 9 -8 20 -17 23 -13 5 -14 3 -6 -7 8 -10 6 -13 -9 -14 -13 -1 -17 2 -12
10 4 7 -2 5 -12 -3 -11 -9 -16 -10 -11 -2 4 6 3 12 -1 12 -5 0 -15 -6 -22 -12
-9 -8 -11 -8 -8 -2 4 7 0 15 -9 18 -8 3 -12 2 -9 -3 3 -5 1 -12 -5 -16 -5 -3
-10 -1 -10 4 0 6 -7 11 -16 11 -9 0 -13 -5 -9 -12 4 -7 -1 -4 -9 6 -12 15 -16
16 -16 5 0 -11 -2 -11 -9 -1 -7 11 -9 11 -14 -2 -4 -9 -14 -16 -22 -16 -10 0
-13 5 -9 12 4 7 3 8 -4 4 -14 -9 16 -55 36 -56 6 0 11 -3 11 -7 -5 -28 2 -45
16 -39 12 4 13 2 5 -13 -10 -20 10 -48 25 -33 4 4 5 -4 2 -16 -3 -13 -3 -21 0
-18 10 9 44 -36 50 -66 3 -16 10 -25 16 -21 6 4 8 -2 5 -15 -4 -15 -2 -19 9
-15 10 4 14 0 12 -13 -5 -27 10 -47 25 -35 8 7 12 5 12 -9 0 -10 -3 -17 -6
-15 -4 2 -7 -2 -7 -9 0 -7 7 -13 16 -12 10 1 17 -9 19 -23 2 -13 14 -33 25
-43 12 -11 16 -16 9 -13 -22 12 5 -33 28 -48 22 -13 28 -32 7 -22 -6 4 -4 0 5
-8 10 -8 14 -18 10 -23 -4 -4 2 -2 12 6 11 8 17 10 14 5 -4 -6 3 -17 15 -25
20 -12 21 -12 9 3 -11 13 -10 15 7 10 12 -3 29 1 38 8 9 8 14 9 10 3 -9 -16
19 -38 35 -27 20 13 110 12 105 -2 -5 -12 39 -13 50 0 5 4 3 6 -2 2 -6 -3 -17
-1 -25 4 -11 7 -8 8 10 5 14 -3 29 -5 33 -5 5 -1 6 -5 3 -9 -3 -5 5 -7 17 -6
12 1 26 3 30 3 5 1 5 7 2 14 -4 6 0 4 8 -5 18 -23 27 -23 27 -1 0 15 2 14 15
-3 8 -11 14 -14 15 -6 0 10 5 10 20 2 11 -6 31 -8 46 -4 17 4 29 2 35 -7 6
-10 9 -11 9 -1 0 6 7 12 15 12 8 0 15 -6 15 -12 0 -10 3 -9 9 1 5 8 14 10 22
5 18 -11 52 -11 60 -1 9 12 40 -3 33 -17 -3 -6 2 -2 10 8 15 19 22 11 17 -18
-1 -5 5 -4 13 4 19 15 21 24 4 14 -7 -4 -9 -3 -5 1 16 18 35 13 32 -8 -4 -22
-4 -22 11 -2 13 17 16 18 24 5 8 -12 10 -12 10 -1 0 10 5 10 25 -3 26 -17 33
-10 13 14 -11 12 -10 12 4 1 10 -7 24 -11 32 -8 11 4 13 1 9 -10 -5 -12 -3
-14 8 -7 19 12 51 16 45 6 -6 -10 25 -9 42 2 6 4 12 3 12 -3 0 -10 46 -9 57 2
10 11 23 8 23 -4 0 -5 -5 -7 -12 -3 -7 4 -8 3 -4 -5 5 -8 12 -9 19 -3 7 5 24
8 39 5 14 -2 29 1 32 6 7 11 46 2 46 -11 0 -5 -6 -6 -12 -2 -7 4 -10 3 -5 -1
12 -13 48 -14 38 -1 -9 10 -3 11 67 7 7 -1 11 -5 8 -9 -3 -5 7 -8 22 -7 15 1
33 -3 41 -9 11 -8 13 -8 8 1 -4 6 -3 14 3 18 5 3 10 2 10 -2 0 -13 64 -12 72
1 6 8 8 8 8 -1 0 -7 7 -13 15 -13 8 0 15 6 15 13 0 8 3 8 9 -2 8 -12 12 -12
24 -2 12 9 17 9 23 0 5 -8 3 -10 -7 -4 -8 5 -11 4 -6 0 11 -12 47 -14 47 -2 0
5 6 4 14 -2 11 -9 15 -9 19 1 4 10 6 10 6 1 1 -7 6 -13 12 -13 5 0 7 6 3 13
-4 6 3 3 15 -7 17 -16 21 -17 16 -4 -5 13 -2 15 16 11 18 -5 21 -3 16 11 -6
14 -3 15 14 5 19 -10 20 -9 9 11 -8 15 -8 20 -1 16 6 -4 11 -3 11 3 0 5 8 17
17 27 16 16 16 16 -6 9 -22 -7 -22 -6 -5 14 10 11 22 17 28 14 6 -4 4 2 -4 12
-14 17 -13 18 2 12 18 -6 21 12 5 24 -5 3 4 14 18 23 23 15 24 20 13 34 -9 11
-9 14 -1 9 8 -5 15 1 19 17 3 14 12 30 20 37 12 9 12 15 2 27 -11 13 -10 15 5
9 11 -4 16 -3 12 3 -3 6 1 13 10 16 13 5 14 9 4 15 -10 6 -10 10 0 23 7 8 9
21 5 27 -4 7 -3 9 3 6 6 -4 16 0 23 8 11 13 10 14 -5 9 -13 -5 -16 -4 -11 4 4
7 14 12 22 12 8 0 12 5 9 10 -3 6 -1 10 4 10 6 0 11 5 11 11 0 5 -4 7 -10 4
-19 -12 -10 7 13 27 12 11 16 16 8 12 -9 -4 -12 -2 -9 7 3 8 11 13 17 11 9 -2
9 3 2 17 -9 17 -8 18 12 14 22 -5 22 -5 2 10 -20 16 -20 16 3 12 20 -4 22 -2
12 10 -9 11 -9 15 -1 15 6 0 11 5 11 11 0 5 -5 7 -12 3 -7 -4 -8 -3 -4 5 4 6
12 8 18 5 8 -5 9 -1 4 11 -5 15 -4 16 9 5 13 -11 16 -11 13 1 -2 8 -7 17 -11
20 -5 4 2 17 15 29 12 13 17 19 10 15 -12 -6 -12 -3 -1 16 7 13 12 29 11 36
-1 6 7 18 20 27 12 9 19 19 15 22 -4 4 1 13 11 21 9 8 12 12 5 9 -8 -5 -8 0 0
18 7 13 15 22 18 20 13 -7 17 21 6 41 -9 17 -8 18 5 7 13 -10 18 -10 24 -1 4
8 3 9 -4 5 -15 -9 -15 -3 -1 28 7 14 17 22 23 19 6 -4 4 2 -4 12 -8 10 -10 16
-4 12 7 -4 15 0 18 9 4 10 2 13 -6 8 -7 -4 -8 -3 -4 4 4 7 14 12 22 12 8 0 14
5 14 11 0 5 -6 7 -12 3 -10 -6 -10 -4 0 8 12 15 22 47 24 75 1 6 7 9 14 6 9
-3 12 2 9 16 -2 12 0 19 5 16 5 -3 11 -1 15 5 3 5 2 10 -4 10 -6 0 -8 7 -5 15
4 8 14 15 23 15 14 0 14 2 1 10 -14 9 -7 15 14 11 5 -1 3 6 -5 15 -12 16 -12
17 1 12 11 -4 16 1 18 19 1 14 12 39 24 56 12 17 17 27 10 23 -7 -4 -12 -2
-12 3 0 6 6 11 14 11 8 0 18 5 22 12 4 7 3 8 -4 4 -7 -4 -12 -1 -12 9 0 12 5
15 16 11 15 -6 15 -4 3 11 -9 11 -10 14 -1 9 7 -4 12 -1 12 9 0 10 5 13 13 9
8 -5 8 -2 -2 9 -8 10 -9 17 -3 17 6 0 9 9 7 20 -2 11 1 23 7 26 7 5 8 2 3 -6
-5 -9 -4 -11 4 -6 6 4 9 12 5 17 -3 5 -9 7 -14 4 -4 -3 -11 6 -14 20 -4 14
-14 25 -24 26 -14 0 -14 2 3 9 18 8 18 9 2 9 -17 1 -39 39 -30 54 2 4 -2 7
-10 7 -8 0 -22 10 -33 22 -10 12 -14 18 -7 15 6 -4 14 -3 18 3 3 5 1 10 -5 10
-7 0 -9 7 -6 16 5 14 4 15 -9 4 -13 -10 -15 -9 -15 9 0 12 -4 20 -9 17 -4 -3
-7 5 -6 19 2 17 -1 22 -11 18 -12 -5 -19 7 -15 30 0 4 -4 7 -10 7 -6 0 -8 7
-5 17 4 10 4 14 0 10 -10 -10 -36 31 -28 45 4 7 3 8 -4 4 -7 -4 -12 -2 -12 4
0 6 -5 8 -11 4 -8 -4 -8 0 0 15 10 18 9 20 -6 14 -12 -5 -15 -2 -11 9 4 8 -2
21 -12 28 -11 8 -16 18 -13 24 4 6 -1 7 -13 2 -15 -6 -17 -5 -6 5 15 16 16 33
1 23 -8 -4 -9 1 -4 17 7 24 7 24 -10 4 -11 -14 -15 -15 -12 -4 3 8 -3 20 -13
26 -14 9 -17 8 -17 -5z m-612 -1355 c-10 -9 -11 -8 -5 6 3 10 9 15 12 12 3 -3
0 -11 -7 -18z m-1441 -547 c0 -5 -5 -10 -11 -10 -5 0 -7 5 -4 10 3 6 8 10 11
10 2 0 4 -4 4 -10z m155 -90 c3 -5 1 -10 -4 -10 -6 0 -11 5 -11 10 0 6 2 10 4
10 3 0 8 -4 11 -10z m1219 -58 c3 -5 -1 -9 -9 -9 -8 0 -12 4 -9 9 3 4 7 8 9 8
2 0 6 -4 9 -8z"/>
<path d="M4187 3942 c5 -14 3 -15 -8 -4 -20 18 -53 16 -45 -4 5 -14 4 -15 -8
-5 -13 11 -15 9 -11 -8 2 -12 0 -19 -5 -16 -8 5 -26 -34 -21 -45 1 -2 -6 -7
-16 -11 -10 -3 -18 -12 -18 -20 -1 -8 -6 -13 -12 -12 -5 1 -9 -9 -8 -21 3 -20
-1 -24 -21 -21 -19 2 -22 0 -13 -11 11 -13 5 -19 -15 -15 -5 1 -3 -6 5 -15 9
-12 9 -15 2 -10 -8 4 -13 2 -13 -4 0 -6 -5 -8 -12 -4 -8 5 -7 0 2 -11 8 -10
10 -16 4 -12 -7 4 -18 -1 -25 -10 -12 -14 -12 -15 -1 -9 11 7 12 4 3 -13 -7
-11 -16 -21 -22 -21 -5 0 -14 -12 -19 -26 -7 -16 -14 -23 -22 -18 -9 5 -8 2 1
-10 8 -9 10 -16 5 -15 -21 4 -28 -2 -14 -11 13 -8 12 -10 -5 -11 -11 -1 -24
-1 -29 0 -5 1 -4 -4 3 -13 8 -10 9 -16 1 -21 -6 -3 -8 -11 -5 -16 3 -5 -1 -6
-9 -3 -12 4 -14 0 -11 -18 4 -23 4 -23 -12 -3 -12 16 -14 16 -10 3 3 -10 0
-24 -8 -32 -8 -7 -11 -17 -7 -21 4 -5 -2 -5 -12 -1 -16 5 -17 4 -6 -9 9 -11 9
-15 1 -15 -7 0 -10 -4 -6 -9 3 -5 1 -12 -5 -16 -5 -3 -10 -1 -10 6 0 6 -9 1
-19 -12 -15 -19 -17 -27 -8 -38 9 -11 9 -13 1 -8 -14 8 -38 -18 -29 -33 3 -5
-1 -10 -9 -10 -10 0 -13 -7 -11 -21 3 -16 1 -18 -8 -10 -10 7 -13 4 -14 -12
-1 -12 -12 -30 -25 -41 -13 -10 -22 -23 -21 -27 2 -5 -2 -9 -7 -9 -6 0 -10 -5
-10 -11 0 -5 5 -7 12 -3 7 4 8 3 4 -5 -4 -6 -12 -9 -17 -6 -5 4 -9 -1 -9 -9 0
-9 -4 -16 -10 -16 -5 0 -9 -3 -7 -7 1 -5 -2 -9 -7 -10 -14 -2 -28 -32 -21 -43
3 -6 -1 -10 -9 -10 -9 0 -15 -6 -13 -12 1 -7 -5 -12 -15 -12 -12 1 -15 -5 -12
-23 4 -21 2 -24 -12 -19 -15 6 -15 4 -3 -11 11 -13 11 -15 1 -9 -9 5 -15 1
-19 -13 -3 -11 -9 -18 -14 -15 -5 3 -10 -2 -10 -10 -1 -9 -3 -20 -4 -26 -1 -5
-3 -13 -4 -17 -1 -5 -6 -1 -12 7 -9 12 -10 11 -6 -7 3 -16 0 -23 -9 -23 -8 0
-13 -6 -11 -12 1 -7 -3 -12 -10 -11 -7 2 -10 -4 -7 -12 4 -8 1 -15 -6 -15 -6
0 -8 -4 -5 -10 3 -5 1 -10 -5 -10 -6 0 -8 -5 -4 -12 5 -8 0 -7 -11 2 -17 14
-18 14 -6 -7 10 -20 9 -22 -6 -16 -13 5 -15 3 -10 -11 4 -11 3 -15 -4 -11 -6
4 -9 0 -7 -8 2 -8 -10 -27 -27 -42 -16 -15 -24 -24 -18 -21 9 5 11 2 7 -8 -3
-9 -10 -14 -14 -11 -5 3 -11 1 -15 -5 -3 -5 0 -10 7 -11 7 0 2 -5 -12 -10 -20
-8 -22 -12 -10 -19 13 -8 12 -10 -2 -10 -9 0 -20 -5 -24 -12 -4 -7 -3 -8 4 -4
7 4 12 2 12 -3 0 -6 -5 -11 -12 -11 -8 0 -7 -4 3 -12 8 -7 23 -23 34 -36 16
-20 17 -22 2 -16 -10 3 -17 1 -17 -5 0 -6 3 -10 8 -10 4 1 15 1 26 0 15 -1 16
-4 6 -16 -8 -9 -8 -15 -2 -15 17 0 44 -32 38 -46 -3 -7 3 -15 12 -19 10 -3 22
-20 27 -38 7 -20 16 -32 27 -31 10 1 14 -4 11 -11 -2 -8 4 -18 15 -24 13 -7
18 -19 17 -35 -2 -18 1 -23 11 -19 8 3 14 -1 14 -11 0 -9 5 -16 10 -16 6 0 10
-10 10 -22 0 -19 2 -20 10 -8 8 12 10 11 10 -7 0 -12 7 -29 16 -37 8 -9 12
-21 8 -28 -5 -8 0 -7 11 2 11 9 16 10 11 3 -5 -9 -1 -13 11 -14 16 0 16 -1 -2
-8 -19 -8 -19 -8 4 -16 18 -5 21 -9 10 -16 -12 -7 -11 -9 1 -10 8 -1 19 -1 24
0 5 1 3 -6 -4 -16 -8 -10 -11 -15 -6 -11 11 9 36 -16 36 -37 0 -9 4 -14 9 -11
9 6 20 -11 17 -26 0 -4 8 -13 18 -21 10 -8 16 -19 12 -25 -5 -8 -1 -10 10 -5
14 5 15 3 5 -15 -9 -18 -8 -20 12 -16 12 2 17 2 10 -2 -10 -4 -10 -8 0 -19 7
-7 15 -11 20 -8 4 2 7 -5 7 -16 0 -12 5 -21 10 -21 6 0 10 -6 10 -14 0 -8 7
-17 16 -20 10 -4 14 -12 10 -22 -5 -14 -4 -15 8 -5 12 10 13 8 9 -10 -4 -15
-3 -20 5 -15 11 6 14 1 11 -20 0 -3 9 -14 21 -24 12 -10 21 -21 21 -24 -3 -20
1 -25 19 -31 11 -3 20 -11 20 -17 0 -6 -7 -5 -17 3 -16 12 -17 12 -6 -2 7 -9
10 -19 6 -23 -4 -4 -1 -4 8 -1 9 3 25 -5 39 -20 13 -14 20 -25 16 -25 -4 0
-16 10 -27 23 -17 19 -17 17 2 -15 11 -21 23 -38 26 -38 2 0 1 5 -3 12 -5 7
-3 8 5 4 7 -5 10 -15 6 -23 -4 -13 -3 -13 9 -4 11 9 14 9 13 -1 -1 -34 5 -47
24 -53 16 -5 18 -9 8 -21 -7 -9 -8 -14 -3 -13 5 1 16 1 24 0 12 -1 13 -3 1
-10 -11 -7 -9 -10 7 -15 11 -4 23 -14 26 -23 6 -14 4 -14 -11 -2 -17 13 -17
13 0 -7 9 -11 14 -24 10 -27 -3 -4 3 -7 15 -7 13 0 22 -6 22 -16 0 -19 25 -46
34 -36 4 3 4 -1 0 -11 -3 -10 -1 -17 6 -17 6 0 8 -5 5 -10 -5 -9 8 -14 19 -7
2 1 13 -7 25 -17 16 -14 21 -16 21 -5 0 8 3 10 8 4 4 -5 18 -10 32 -10 14 0
28 5 32 10 5 6 8 4 8 -5 0 -12 2 -12 9 -1 7 10 13 11 30 2 16 -9 21 -9 21 0 0
8 4 8 15 -1 11 -9 15 -9 15 -1 0 7 4 9 10 6 16 -10 83 -13 106 -5 11 5 28 4
37 -1 9 -6 17 -6 17 -2 0 9 114 8 129 -2 6 -3 11 -1 11 6 0 7 7 4 16 -7 8 -10
12 -13 8 -5 -5 11 -1 13 20 9 14 -3 26 -1 26 5 0 5 8 3 17 -4 14 -12 16 -12 8
0 -6 11 -4 13 8 8 24 -9 47 2 40 20 -5 12 -7 12 -14 1 -6 -9 -9 -7 -9 10 0 12
-5 21 -12 20 -7 -2 -12 2 -13 9 0 7 -6 18 -12 25 -7 6 -13 18 -13 25 0 8 -11
25 -25 39 -14 14 -23 29 -20 34 3 5 -4 11 -15 15 -17 5 -18 10 -9 27 6 11 7
18 2 15 -14 -9 -34 8 -36 31 -1 16 -4 18 -14 10 -11 -8 -12 -7 -7 6 4 11 -2
24 -16 36 -13 11 -19 20 -14 20 5 0 1 5 -8 11 -10 5 -18 17 -18 24 0 8 -4 15
-10 15 -5 0 -10 7 -10 15 0 8 -4 15 -10 15 -5 0 -10 5 -10 11 0 5 5 7 12 3 7
-4 8 -3 4 5 -6 9 -11 9 -21 1 -11 -9 -13 -6 -11 15 3 25 -24 52 -38 38 -3 -3
-6 -2 -6 3 0 6 5 15 12 22 9 9 6 11 -11 7 -13 -2 -19 0 -15 6 3 6 -1 16 -10
22 -9 7 -18 22 -19 35 0 12 -5 22 -10 22 -4 0 -5 6 -1 13 5 7 1 7 -12 -3 -10
-8 -16 -11 -12 -6 4 5 1 21 -7 36 -8 15 -11 31 -7 34 3 4 -1 4 -11 0 -13 -5
-17 -1 -17 16 0 11 -4 18 -10 15 -5 -3 -10 1 -10 9 0 9 -5 16 -11 16 -8 0 -7
5 2 16 11 14 10 15 -7 12 -12 -2 -19 3 -19 14 0 9 -4 20 -9 25 -5 5 -6 2 -1
-6 6 -10 4 -12 -4 -7 -7 5 -10 14 -7 22 3 8 -1 14 -9 14 -8 0 -15 7 -15 16 0
9 -5 12 -12 8 -8 -5 -7 0 2 11 8 10 11 16 5 13 -5 -3 -19 4 -30 15 -12 11 -14
17 -5 13 12 -6 12 -5 -1 6 -9 7 -14 19 -11 27 3 9 0 11 -8 6 -10 -6 -12 -3 -6
10 6 16 4 16 -10 4 -15 -12 -16 -11 -9 10 4 15 3 21 -3 17 -5 -3 -12 4 -15 15
-3 12 -10 18 -16 14 -6 -3 -9 0 -5 8 3 8 -2 17 -11 21 -10 3 -15 12 -11 21 5
13 -5 19 -25 17 -4 -1 -6 6 -5 16 0 10 -5 16 -13 14 -12 -3 -12 -1 0 14 9 12
9 15 2 10 -8 -4 -13 -2 -13 4 0 6 -5 8 -12 4 -9 -5 -9 -2 1 9 12 15 11 17 -4
17 -14 0 -15 3 -5 14 10 13 7 14 -16 10 -24 -4 -26 -3 -14 11 11 14 7 19 -12
16 -4 0 -4 7 -1 16 5 12 3 14 -7 8 -10 -6 -12 -2 -8 19 4 20 2 24 -7 16 -8 -7
-15 -3 -23 16 -15 32 -15 37 1 28 7 -4 8 -3 4 2 -5 5 -15 9 -24 9 -10 0 -17
11 -19 28 -2 19 1 25 9 20 8 -4 7 -1 -1 9 -10 13 -10 18 -1 24 8 5 9 3 4 -6
-6 -9 -4 -11 4 -6 7 5 10 14 7 22 -3 9 0 11 11 7 12 -5 15 -2 10 10 -3 8 1 21
8 27 8 7 12 16 9 21 -3 5 1 6 9 3 8 -3 18 0 23 7 4 8 3 10 -4 5 -7 -4 -12 -2
-12 3 0 6 3 11 8 11 4 0 13 13 20 30 8 16 17 29 20 29 20 -3 25 2 12 11 -13 8
-13 10 2 10 9 0 20 5 24 12 5 7 2 9 -7 4 -8 -4 -6 -1 3 7 12 10 14 17 7 24 -8
8 -6 11 6 10 10 -1 20 4 23 12 3 9 0 11 -8 6 -9 -5 -11 -4 -6 4 4 6 12 8 18 5
8 -5 9 -1 5 10 -4 11 -3 15 4 11 6 -4 13 2 16 14 3 11 9 18 14 15 5 -3 9 1 9
9 0 8 7 17 15 21 8 3 15 11 14 18 0 10 -2 10 -6 1 -2 -7 -9 -13 -15 -13 -6 0
-5 6 2 15 7 9 19 14 27 11 11 -5 11 -1 2 15 -8 15 -8 19 0 15 6 -4 11 -2 11 3
0 6 6 10 13 8 6 -1 11 5 9 14 -1 9 4 19 12 22 9 4 13 15 11 26 -2 13 1 18 9
15 8 -3 16 5 20 21 4 14 11 23 16 20 5 -3 12 0 16 6 4 8 3 9 -4 5 -23 -14 -11
16 17 45 16 16 25 29 20 29 -6 0 -8 4 -4 10 3 5 12 7 21 3 8 -3 14 -2 13 3 -4
24 2 44 13 42 7 -2 13 4 13 12 2 25 17 50 26 44 5 -3 9 2 9 10 0 9 6 16 13 16
8 0 7 4 -3 10 -12 8 -10 10 10 10 20 0 22 2 10 10 -13 8 -13 11 -1 22 8 7 11
8 8 2 -3 -6 0 -11 7 -11 7 0 12 10 11 21 -3 26 13 48 29 39 6 -3 6 0 -1 8 -7
7 -13 18 -13 23 0 6 5 4 10 -4 8 -13 11 -13 22 -1 11 12 10 13 -2 7 -8 -4 -7
-1 4 8 10 8 15 20 10 27 -4 7 -3 10 4 5 6 -3 13 -2 17 4 3 5 1 10 -6 10 -16 0
-1 15 14 15 7 0 11 8 11 18 -1 9 2 17 8 17 5 0 6 6 2 13 -5 8 -2 7 9 -2 15
-12 17 -12 11 3 -3 9 -1 16 6 16 6 0 9 4 6 9 -3 5 1 11 9 15 8 3 15 15 15 26
0 12 4 19 9 16 7 -5 19 17 25 46 0 3 5 10 10 15 5 5 6 2 1 -6 -6 -10 -4 -12 4
-6 7 4 10 16 8 27 -5 16 -3 17 11 6 12 -10 14 -10 8 0 -4 7 -2 12 5 12 7 0 9
3 5 7 -3 4 4 13 16 21 13 7 15 11 6 8 -10 -3 -20 -1 -23 5 -4 5 -3 9 2 8 20
-3 33 2 31 14 -2 6 2 11 9 10 7 -2 10 6 8 18 -4 17 -2 19 11 8 12 -10 13 -9 7
6 -5 15 -3 17 12 11 18 -7 18 -6 0 14 -19 20 -19 21 1 15 18 -6 18 -6 1 5 -10
6 -25 9 -32 6 -8 -3 -17 -1 -20 5 -4 5 -12 6 -18 2 -7 -4 -25 -6 -41 -4 -21 2
-26 0 -20 -11 6 -10 5 -11 -7 -1 -8 7 -37 12 -65 11 -27 -1 -55 1 -61 5 -6 4
-15 2 -19 -4 -5 -8 -3 -9 6 -4 9 5 11 4 6 -4 -6 -9 -11 -9 -22 0 -8 6 -17 9
-21 6 -3 -4 -13 -1 -21 6 -13 9 -14 9 -8 0 4 -8 1 -13 -9 -13 -10 0 -13 5 -9
13 6 9 4 9 -8 -1 -13 -10 -17 -10 -21 0 -3 7 -6 4 -6 -7 -1 -17 -3 -17 -11 -5
-5 8 -10 11 -10 7 0 -4 -10 -3 -21 4 -17 9 -20 8 -14 -2 6 -8 4 -11 -7 -6 -9
3 -21 0 -28 -6 -10 -9 -11 -9 -5 2 6 11 3 13 -12 9 -11 -3 -28 -1 -38 5 -13 7
-16 6 -11 -2 9 -13 9 -13 -31 -2 -27 8 -31 7 -26 -7z m-447 -592 c0 -5 -5 -10
-11 -10 -5 0 -7 5 -4 10 3 6 8 10 11 10 2 0 4 -4 4 -10z m705 -2178 c-3 -3
-11 0 -18 7 -9 10 -8 11 6 5 10 -3 15 -9 12 -12z"/>
<path d="M2707 3813 c-4 -3 -7 -11 -7 -17 0 -6 5 -5 12 2 6 6 9 14 7 17 -3 3
-9 2 -12 -2z"/>
<path d="M656 3682 c-3 -5 1 -9 9 -9 8 0 12 4 9 9 -3 4 -7 8 -9 8 -2 0 -6 -4
-9 -8z"/>
<path d="M1346 3652 c-3 -5 1 -9 9 -9 8 0 12 4 9 9 -3 4 -7 8 -9 8 -2 0 -6 -4
-9 -8z"/>
<path d="M446 3447 c3 -10 9 -15 12 -12 3 3 0 11 -7 18 -10 9 -11 8 -5 -6z"/>
<path d="M4478 3443 c7 -3 16 -2 19 1 4 3 -2 6 -13 5 -11 0 -14 -3 -6 -6z"/>
<path d="M4300 3180 c-6 -11 -8 -20 -6 -20 3 0 10 9 16 20 6 11 8 20 6 20 -3
0 -10 -9 -16 -20z"/>
<path d="M825 3090 c-3 -6 1 -7 9 -4 18 7 21 14 7 14 -6 0 -13 -4 -16 -10z"/>
<path d="M1811 3044 c0 -11 3 -14 6 -6 3 7 2 16 -1 19 -3 4 -6 -2 -5 -13z"/>
<path d="M1906 3042 c-3 -5 1 -9 9 -9 8 0 12 4 9 9 -3 4 -7 8 -9 8 -2 0 -6 -4
-9 -8z"/>
<path d="M3995 2729 c-4 -6 -5 -12 -2 -15 2 -3 7 2 10 11 7 17 1 20 -8 4z"/>
<path d="M2273 2104 c9 -16 -28 -25 -42 -11 -8 8 -11 7 -11 -2 0 -11 -3 -11
-17 0 -15 12 -16 12 -10 -5 6 -16 5 -17 -8 -6 -12 10 -18 10 -32 -1 -14 -12
-16 -12 -8 0 6 11 4 13 -11 7 -21 -8 -24 -9 -42 -7 -7 0 -10 7 -7 14 4 6 -1 3
-9 -7 -9 -11 -16 -14 -16 -8 0 7 -5 12 -11 12 -5 0 -7 -4 -4 -10 3 -5 1 -10
-4 -10 -6 0 -11 4 -11 8 0 5 -7 9 -15 9 -11 0 -12 -4 -3 -14 8 -11 7 -12 -6
-7 -9 3 -16 9 -16 13 0 4 -7 8 -15 8 -12 0 -12 -3 -2 -15 10 -13 9 -14 -10 -4
-26 14 -36 15 -29 4 8 -13 -40 -8 -56 6 -12 9 -15 9 -15 -3 0 -8 5 -11 10 -8
6 3 7 1 3 -5 -4 -7 -15 -8 -34 -2 -15 5 -36 8 -47 6 -11 -2 -28 1 -39 6 -12 7
-16 7 -12 0 3 -5 -1 -12 -9 -16 -8 -3 -15 0 -15 6 0 7 -5 6 -15 -2 -8 -7 -15
-8 -15 -3 0 10 -36 11 -46 1 -3 -4 -13 -4 -22 -1 -9 4 -13 2 -9 -4 3 -5 -3 -9
-16 -7 -12 1 -22 3 -22 4 0 7 -68 3 -72 -4 -4 -5 -1 -6 5 -2 6 3 13 3 16 -2 2
-4 -6 -8 -20 -8 -14 0 -23 5 -20 11 2 7 -2 12 -10 12 -7 0 -10 -5 -7 -10 3 -6
-7 -8 -26 -5 -18 3 -31 0 -31 -6 0 -6 -5 -4 -10 4 -9 14 -15 7 -11 -14 1 -5
-4 -4 -12 2 -8 7 -17 9 -20 5 -4 -3 -14 0 -24 8 -11 9 -14 10 -9 2 4 -7 3 -13
-1 -13 -5 0 -15 6 -22 13 -11 10 -12 9 -6 -2 6 -11 2 -13 -19 -9 -15 3 -26 1
-27 -6 0 -6 -4 -2 -9 9 -7 15 -9 16 -9 4 -1 -12 -8 -15 -27 -11 -21 4 -25 2
-19 -9 7 -11 6 -12 -6 -2 -8 6 -34 12 -57 11 -36 0 -42 -3 -37 -17 4 -10 -1
-8 -15 7 -18 19 -40 22 -40 6 0 -3 4 -3 9 1 5 3 13 0 17 -7 4 -7 4 -10 -1 -6
-4 4 -14 3 -22 -4 -8 -6 -13 -7 -11 -2 2 5 -2 9 -7 9 -5 0 -9 -4 -7 -10 2 -5
-2 -4 -9 3 -7 6 -17 12 -22 12 -4 0 -5 -6 -2 -12 4 -7 -1 -4 -9 6 -16 19 -16
19 -16 -3 0 -21 -1 -21 -16 -6 -12 12 -19 13 -24 5 -6 -9 -9 -9 -15 -1 -5 9
-13 8 -30 -3 -17 -11 -26 -12 -31 -5 -4 8 -9 7 -15 -2 -6 -10 -9 -11 -9 -1 0
6 -5 12 -11 12 -5 0 -7 -6 -3 -12 6 -10 4 -10 -7 -3 -17 12 -39 13 -58 1 -9
-6 -12 -5 -8 1 7 11 -29 11 -39 0 -12 -12 -26 -8 -18 5 4 7 3 8 -4 4 -6 -4 -9
-13 -6 -21 4 -10 0 -13 -16 -10 -18 3 -20 2 -10 -10 10 -11 10 -15 1 -15 -7 0
-9 -5 -5 -12 5 -8 2 -9 -11 -4 -16 6 -16 4 -4 -11 9 -11 10 -14 2 -9 -13 7
-16 0 -16 -36 0 -10 -4 -15 -8 -12 -5 3 -9 0 -9 -6 0 -6 -5 -8 -11 -5 -6 4 -9
0 -7 -11 2 -11 -2 -18 -9 -17 -6 1 -14 -4 -17 -13 -4 -9 -2 -12 5 -8 7 4 7 -1
-1 -16 -8 -14 -17 -19 -28 -15 -9 3 -13 3 -10 -1 4 -4 2 -16 -4 -28 -9 -18 -9
-19 3 -11 8 6 3 -1 -11 -14 -14 -13 -19 -20 -13 -17 9 5 11 2 7 -8 -3 -9 -9
-15 -12 -14 -20 2 -25 -3 -12 -12 13 -8 12 -10 -3 -10 -10 0 -15 -4 -12 -10 9
-14 -26 -70 -45 -70 -13 0 -13 -1 0 -10 13 -8 8 -14 -11 -12 -3 1 -6 -6 -7
-14 -1 -7 -3 -20 -4 -28 -1 -8 -7 -12 -15 -9 -8 3 -13 -3 -13 -16 0 -12 -7
-24 -15 -27 -8 -4 -12 -10 -9 -15 3 -5 -3 -9 -13 -10 -10 -1 -3 -5 16 -9 19
-5 41 -6 49 -2 11 4 13 2 7 -9 -7 -11 -6 -12 6 -3 8 7 44 11 81 10 47 -1 69 3
73 12 4 10 9 10 28 -2 20 -14 26 -14 50 -1 15 8 25 10 22 5 -10 -16 7 -11 29
8 20 16 20 16 6 -2 -13 -18 -13 -19 1 -14 9 4 22 1 28 -5 9 -9 11 -8 6 4 -4
10 0 16 10 16 10 0 14 -6 10 -16 -4 -13 -2 -12 9 2 7 9 17 17 21 17 4 0 4 -8
1 -17 -5 -16 -5 -16 6 -2 20 24 48 31 55 13 3 -9 9 -11 12 -6 8 12 64 26 57
13 -4 -5 -1 -13 5 -17 7 -4 9 -3 6 2 -3 6 4 16 15 23 17 11 20 11 16 -1 -4 -9
1 -14 12 -14 10 0 17 3 14 7 -2 4 3 10 12 13 12 5 15 2 10 -10 -5 -14 -4 -15
9 -4 8 7 15 9 15 5 0 -4 7 -2 15 5 8 7 15 8 15 3 0 -5 9 -9 20 -9 11 0 20 4
20 9 0 5 6 4 14 -2 9 -7 17 -8 20 -2 6 10 31 9 42 -1 10 -11 34 3 27 16 -3 6
4 2 16 -8 21 -19 21 -19 15 -1 -6 14 -4 16 7 9 19 -12 60 -13 52 -1 -3 5 0 7
8 5 8 -3 13 -11 12 -17 -2 -6 2 -11 7 -11 6 0 10 5 10 11 0 5 4 7 10 4 6 -4 7
1 4 12 -5 16 -4 16 10 -1 16 -20 16 -20 16 0 1 19 1 19 17 -1 15 -20 15 -19
10 5 l-6 25 19 -25 c10 -14 22 -21 26 -17 4 4 1 7 -6 7 -10 0 -11 3 -3 11 8 8
17 8 33 -1 15 -8 20 -8 16 -1 -4 6 -3 11 3 11 5 0 12 -6 14 -12 4 -10 6 -9 6
1 1 11 4 11 18 0 11 -10 14 -10 9 -1 -9 16 6 16 23 0 11 -11 12 -10 6 1 -5 9
-3 12 6 9 8 -3 26 -1 42 3 18 5 27 4 27 -4 0 -6 7 -2 15 9 8 10 15 15 14 9 -3
-23 2 -29 11 -15 8 12 12 13 19 2 12 -20 16 -19 40 2 21 19 21 19 22 0 0 -18
1 -18 9 1 5 11 9 14 9 8 1 -7 6 -13 12 -13 5 0 8 4 5 9 -3 5 1 11 9 14 10 4
12 1 8 -10 -5 -13 -1 -12 23 3 24 15 27 16 16 2 -10 -12 -10 -18 -1 -24 8 -4
9 -3 5 4 -4 7 -1 12 9 12 10 0 13 5 9 13 -5 8 -2 8 9 -2 13 -10 17 -10 17 -1
0 9 4 9 17 -1 9 -8 14 -9 10 -2 -5 7 0 9 14 6 12 -4 25 0 30 8 6 10 9 10 9 2
0 -7 9 -13 21 -13 11 0 18 -4 14 -9 -3 -6 3 -14 12 -20 13 -8 14 -10 4 -11
-11 0 -10 -4 4 -13 11 -9 15 -19 10 -27 -6 -9 -4 -11 5 -5 10 6 12 0 8 -23 -3
-24 -2 -29 8 -21 8 7 14 7 19 -1 3 -5 1 -10 -5 -10 -6 0 -8 -5 -5 -10 4 -6 11
-7 17 -4 6 4 6 -1 -1 -14 -8 -16 -7 -23 7 -33 16 -13 16 -12 2 6 -14 18 -14
19 1 7 10 -7 15 -21 12 -32 -4 -14 0 -20 11 -20 10 0 16 -9 16 -25 0 -17 6
-25 18 -26 14 0 14 -2 -3 -9 -14 -6 -16 -9 -5 -10 8 -2 20 -2 25 0 6 1 5 -4
-2 -11 -14 -14 4 -62 20 -52 6 4 8 0 4 -10 -6 -16 3 -22 26 -18 5 1 6 -3 2 -9
-3 -6 -11 -8 -16 -5 -5 4 -9 -1 -9 -10 0 -9 3 -14 8 -12 10 6 43 -31 32 -38
-4 -3 -11 1 -13 7 -4 8 -6 9 -6 2 -1 -6 7 -18 16 -25 14 -12 16 -12 8 0 -6 10
-4 12 4 7 7 -5 10 -14 7 -22 -3 -7 1 -20 9 -28 8 -8 15 -22 15 -30 0 -9 9 -25
20 -36 12 -12 15 -20 8 -20 -8 0 -6 -5 4 -10 9 -6 15 -18 14 -27 -2 -10 3 -24
11 -31 7 -8 11 -17 8 -22 -3 -5 4 -11 15 -15 16 -5 18 -10 10 -26 -7 -13 -7
-19 0 -19 5 0 10 -7 10 -15 0 -8 9 -23 19 -32 11 -9 17 -23 13 -31 -3 -10 -1
-13 6 -8 8 5 10 2 6 -8 -4 -11 0 -16 12 -17 18 0 17 -1 -1 -9 -18 -8 -18 -9
-2 -9 10 -1 17 -7 14 -13 -2 -7 3 -19 12 -26 9 -8 11 -11 5 -8 -6 3 -11 -1
-11 -8 0 -8 6 -12 12 -9 15 5 28 -24 14 -32 -12 -8 -2 -25 14 -25 7 0 6 4 -3
10 -8 5 -10 10 -4 10 18 0 23 -11 14 -34 -6 -17 -5 -23 5 -23 8 0 11 5 8 10
-3 6 -1 7 5 3 9 -5 9 -13 0 -29 -10 -19 -9 -20 4 -9 13 10 16 10 15 0 -1 -32
4 -49 12 -44 5 4 7 -3 4 -14 -4 -15 0 -20 13 -20 16 0 17 -2 4 -10 -12 -8 -12
-10 5 -10 11 0 16 -4 10 -8 -16 -12 -16 -32 0 -26 11 5 15 -1 15 -21 0 -15 4
-24 10 -20 6 3 10 -3 10 -14 0 -10 6 -22 13 -24 8 -4 8 -6 -3 -6 -10 -1 -8 -6
8 -17 23 -16 32 -50 10 -39 -7 4 -3 -2 9 -13 11 -10 23 -30 25 -43 1 -13 10
-31 18 -39 14 -14 14 -14 0 -5 -9 6 -8 1 5 -15 25 -32 37 -40 47 -34 12 7 10
24 -3 24 -5 0 -7 -5 -3 -12 4 -7 3 -8 -4 -4 -6 4 -9 13 -6 21 4 8 9 13 13 11
9 -5 31 21 24 28 -4 3 -1 6 5 6 6 0 9 8 7 19 -3 15 1 18 18 15 12 -2 16 -2 9
2 -6 3 -9 10 -6 15 3 6 12 5 22 -3 14 -10 15 -10 5 2 -15 17 -17 44 -3 35 6
-3 10 1 10 10 0 8 7 18 15 21 11 4 12 11 5 24 -7 14 -6 17 8 16 11 -1 17 6 16
21 -1 15 3 20 14 15 10 -3 13 -1 8 6 -9 15 24 72 42 72 12 0 12 3 1 17 -8 9
-9 14 -2 10 7 -4 14 1 18 13 4 11 11 17 17 14 7 -4 8 -2 4 4 -8 13 17 55 27
47 4 -3 5 -2 2 1 -7 10 15 45 25 39 4 -3 6 3 3 14 -3 10 1 22 8 26 8 6 10 4 4
-5 -5 -9 -4 -11 4 -6 9 6 9 11 1 21 -8 9 -8 15 0 20 6 3 7 11 4 17 -4 7 -2 8
4 4 7 -4 12 -3 12 3 0 5 -5 11 -10 13 -6 2 -12 13 -13 25 0 12 -5 19 -9 17 -4
-3 -9 2 -9 10 -1 9 -2 22 -3 29 -1 6 -10 10 -21 9 -16 -3 -17 -1 -6 11 10 13
9 17 -6 26 -17 10 -17 10 2 11 18 0 17 2 -5 13 -18 9 -25 21 -26 42 -1 17 -3
32 -4 35 -1 3 -2 8 -1 12 0 4 -7 4 -17 1 -15 -6 -15 -5 -4 10 12 14 11 16 -7
12 -19 -3 -20 -1 -10 17 9 16 8 19 -2 13 -9 -6 -11 -2 -7 13 3 12 3 21 -1 20
-19 -2 -24 3 -11 12 13 8 13 10 -1 10 -9 0 -20 7 -23 16 -3 8 -2 12 4 9 6 -3
7 1 4 9 -3 9 -11 13 -18 9 -6 -4 -5 1 2 10 12 14 11 16 -6 12 -16 -3 -19 1
-14 17 4 15 2 19 -7 13 -10 -6 -11 -3 -2 13 8 16 7 23 -7 33 -16 13 -16 12 -2
-6 11 -16 11 -18 0 -7 -8 7 -14 24 -15 39 0 15 -7 28 -15 30 -13 4 -13 3 0 -6
9 -7 10 -11 3 -11 -16 0 -26 17 -14 25 15 8 1 37 -15 31 -10 -4 -11 1 -4 20 6
14 6 23 1 20 -5 -3 -15 2 -22 11 -8 10 -9 14 -2 10 6 -4 15 -2 19 4 4 7 3 9
-2 6 -6 -3 -16 -2 -24 4 -13 7 -13 9 0 9 12 1 11 3 -3 11 -9 6 -15 14 -12 20
4 5 1 9 -6 9 -8 0 -8 4 1 15 11 13 10 14 -5 9 -13 -5 -16 -4 -11 4 4 7 2 12
-4 12 -6 0 -9 4 -5 9 3 5 -2 16 -10 24 -11 12 -12 17 -2 20 7 3 5 6 -5 6 -9 1
-20 6 -24 13 -5 7 -2 9 9 5 11 -4 14 -2 10 9 -3 9 -12 13 -21 9 -9 -3 -13 -3
-10 1 4 4 1 16 -7 26 -7 11 -11 26 -8 34 3 8 -2 17 -11 20 -12 5 -14 10 -6 19
8 9 8 15 0 20 -6 3 -8 11 -4 16 3 5 0 8 -8 7 -7 -2 -12 4 -10 14 2 12 -2 16
-12 12 -11 -4 -14 1 -11 25 3 20 0 30 -8 28 -7 -1 -11 6 -9 17 2 10 -1 15 -6
12 -14 -9 -22 20 -9 33 8 8 5 9 -11 6 -19 -3 -21 -1 -12 16 9 15 7 19 -6 19
-13 0 -14 3 -4 15 10 12 8 14 -7 11 -18 -4 -22 7 -26 71 0 7 -4 10 -9 7 -5 -3
-5 -10 -2 -16 4 -6 2 -8 -4 -5 -5 4 -8 17 -4 29 3 12 1 19 -4 15 -6 -3 -9 7
-8 23 1 16 -1 29 -5 28 -21 -2 -30 4 -24 17 3 9 -3 23 -13 31 -11 9 -13 13 -7
9 9 -4 11 -1 7 9 -3 9 -11 13 -17 9 -6 -4 -8 0 -4 10 4 11 1 17 -8 17 -8 0
-15 5 -15 11 0 5 4 7 10 4 6 -3 7 1 4 9 -3 9 -16 16 -28 16 -12 0 -28 6 -35
13 -8 7 -11 7 -8 1z m312 -544 c3 -5 1 -10 -4 -10 -6 0 -11 5 -11 10 0 6 2 10
4 10 3 0 8 -4 11 -10z m-884 -63 c-10 -9 -11 -8 -5 6 3 10 9 15 12 12 3 -3 0
-11 -7 -18z m-447 -15 c3 -5 -1 -9 -9 -9 -8 0 -12 4 -9 9 3 4 7 8 9 8 2 0 6
-4 9 -8z m1120 -768 c3 -8 2 -12 -4 -9 -6 3 -10 10 -10 16 0 14 7 11 14 -7z"/>
<path d="M1896 2082 c-3 -5 1 -9 9 -9 8 0 12 4 9 9 -3 4 -7 8 -9 8 -2 0 -6 -4
-9 -8z"/>
<path d="M570 1879 c0 -5 5 -7 10 -4 6 3 10 8 10 11 0 2 -4 4 -10 4 -5 0 -10
-5 -10 -11z"/>
<path d="M4421 1754 c0 -11 3 -14 6 -6 3 7 2 16 -1 19 -3 4 -6 -2 -5 -13z"/>
<path d="M420 1625 c-7 -9 -8 -15 -2 -15 5 0 12 7 16 15 3 8 4 15 2 15 -2 0
-9 -7 -16 -15z"/>
<path d="M2616 1502 c-2 -4 -1 -14 4 -22 7 -11 9 -9 7 8 -1 24 -3 26 -11 14z"/>
<path d="M800 1440 c-9 -6 -10 -10 -3 -10 6 0 15 5 18 10 8 12 4 12 -15 0z"/>
<path d="M2957 769 c7 -7 15 -10 18 -7 3 3 -2 9 -12 12 -14 6 -15 5 -6 -5z"/>
<path d="M3040 560 c-9 -6 -10 -10 -3 -10 6 0 15 5 18 10 8 12 4 12 -15 0z"/>
<path d="M2900 325 c-7 -9 -8 -15 -2 -15 5 0 12 7 16 15 3 8 4 15 2 15 -2 0
-9 -7 -16 -15z"/>
<path d="M2590 186 c0 -2 7 -7 16 -10 8 -3 12 -2 9 4 -6 10 -25 14 -25 6z"/>
</g>
</svg>
