<svg xmlns="http://www.w3.org/2000/svg" viewBox="0 0 512 512"><path d="M31.6,369.6c.5-.7,1.1-1.4,1.6-2.1Q49.1,341,64.9,314.3a3.41,3.41,0,0,1,3.2-1.9l49.4-3,35-2.1c13.7-.8,27.3-1.7,41-2.6,9.5-.6,19-1.1,28.5-1.7,2.9-.2,5.9-.3,8.8-.6a2,2,0,0,1,2.4,1.4c10.2,21.7,20.5,43.3,30.7,65q19.65,41.55,39.3,83a4.57,4.57,0,0,1-.2,4.9c-10.5,17.4-20.8,34.9-31.2,52.3-.5.9-1.1,1.8-1.8,2.9-.3-.6-.6-1-.8-1.4l-40.8-86.1L199,362.3c-.6-1.2-1.2-1.8-2.6-1.7-12.8.8-25.7,1.5-38.5,2.3-7.8.4-15.5.9-23.3,1.3-12.6.7-25.1,1.5-37.7,2.2-9.4.5-18.8,1.1-28.1,1.6-11.4.7-22.8,1.3-34.2,2-1,.1-2,.1-2.9.1A.9.9,0,0,1,31.6,369.6Z"/><path d="M479.9,117.2c-.5.8-.9,1.4-1.3,2Q433.3,187,387.9,254.7c-1,1.4-.9,2.3,0,3.7q45.45,67.2,90.8,134.5c.3.5.6,1,1,1.7-.8,0-1.4.1-2.1.1H415.1a3,3,0,0,1-3-1.5q-45.9-67.5-92-134.9a2.74,2.74,0,0,1,0-3.6q32.25-47.7,64.4-95.6c9.2-13.6,18.3-27.2,27.5-40.8a3.21,3.21,0,0,1,2.3-1.3q32.25-.15,64.5,0A7.47,7.47,0,0,0,479.9,117.2Z"/><path d="M32.5,143c1.1.1,2,.1,2.9.1,9.8.5,19.6.9,29.3,1.4l48.3,2.4,48.1,2.4,35.2,1.8c3.3.2,3.3.2,4.6-2.7q34-72.9,68-145.9c.3-.6.6-1.3,1.1-2.2a14.51,14.51,0,0,1,1.2,1.9q16.2,26.7,32.4,53.6a2.74,2.74,0,0,1,.2,3q-34.2,74.4-68.3,148.7a2.37,2.37,0,0,1-2.8,1.7c-19.5-1.1-39.1-2.1-58.6-3.1-11.3-.6-22.6-1.1-33.8-1.7-16-.8-32.1-1.7-48.1-2.6-7.9-.4-15.9-.8-23.8-1.3a2.55,2.55,0,0,1-2-1.1C55.3,181,44.3,162.6,33.2,144.1A5.25,5.25,0,0,1,32.5,143Z"/></svg>
