<?xml version="1.0" standalone="no"?>
<!DOCTYPE svg PUBLIC "-//W3C//DTD SVG 20010904//EN"
 "http://www.w3.org/TR/2001/REC-SVG-20010904/DTD/svg10.dtd">
<svg version="1.0" xmlns="http://www.w3.org/2000/svg"
 width="700.000000pt" height="700.000000pt" viewBox="0 0 700.000000 700.000000"
 preserveAspectRatio="xMidYMid meet">
<metadata>
Created by potrace 1.14, written by Peter Selinger 2001-2017
</metadata>
<g transform="translate(0.000000,700.000000) scale(0.100000,-0.100000)"
fill="#000000" stroke="none">
<path d="M0 3500 l0 -3500 3500 0 3500 0 0 1356 0 1356 -68 -63 c-140 -132
-317 -194 -612 -214 -186 -12 -459 29 -690 104 l-115 37 -3 157 c-1 86 -1 157
1 157 2 0 52 -23 111 -50 224 -106 403 -150 613 -150 246 0 402 59 488 184 97
142 78 366 -40 475 -82 76 -183 113 -447 166 -322 65 -467 125 -584 240 -109
108 -154 225 -154 405 0 221 93 401 268 517 240 159 669 177 1115 46 l87 -26
0 -150 c0 -115 -3 -148 -12 -144 -312 128 -480 166 -683 153 -229 -14 -369
-86 -433 -224 -23 -49 -27 -70 -26 -152 0 -106 12 -144 64 -204 62 -70 159
-105 453 -166 222 -46 333 -78 422 -122 82 -42 176 -110 213 -155 l31 -38 1
1753 0 1752 -3500 0 -3500 0 0 -3500z m1335 495 c209 -558 293 -771 299 -761
6 8 139 356 296 773 l285 758 233 3 232 2 0 -1145 0 -1145 -150 0 -150 0 -2
1003 -3 1002 -294 -782 -294 -783 -156 0 -157 0 -295 783 -294 782 -3 -1002
-2 -1003 -150 0 -150 0 0 1145 0 1145 233 0 232 0 290 -775z m2238 -12 c4
-756 5 -792 25 -881 51 -227 162 -352 353 -397 86 -20 295 -20 374 0 192 49
287 148 347 361 22 78 23 86 26 892 l3 812 160 0 160 0 -4 -802 c-4 -874 -5
-876 -63 -1040 -66 -182 -182 -316 -346 -399 -252 -127 -685 -126 -945 3 -224
112 -358 330 -392 642 -7 59 -11 381 -11 846 l0 750 154 0 155 0 4 -787z"/>
</g>
</svg>
