<?xml version="1.0" standalone="no"?>
<!DOCTYPE svg PUBLIC "-//W3C//DTD SVG 20010904//EN"
 "http://www.w3.org/TR/2001/REC-SVG-20010904/DTD/svg10.dtd">
<svg version="1.0" xmlns="http://www.w3.org/2000/svg"
 width="512.000000pt" height="512.000000pt" viewBox="0 0 512.000000 512.000000"
 preserveAspectRatio="xMidYMid meet">
<g transform="translate(0.000000,512.000000) scale(0.100000,-0.100000)"
fill="#000000" stroke="none">
<path d="M0 2560 l0 -2560 2560 0 2560 0 0 2560 0 2560 -2560 0 -2560 0 0
-2560z m4485 815 c101 -29 190 -76 250 -129 l40 -36 -105 -99 -105 -99 -43 30
c-67 46 -146 70 -248 76 -112 6 -178 -9 -229 -50 -88 -73 -100 -205 -24 -275
40 -36 88 -51 263 -78 178 -28 286 -60 351 -105 123 -86 177 -201 178 -385 2
-226 -114 -387 -339 -468 -202 -73 -504 -57 -699 38 -62 30 -176 113 -183 133
-1 4 44 54 101 110 l103 103 68 -46 c100 -67 153 -80 326 -80 132 0 149 2 193
24 72 35 101 79 105 162 4 56 0 74 -18 107 -35 62 -75 78 -283 112 -254 41
-353 81 -437 176 -98 112 -127 322 -67 487 51 140 160 241 315 291 87 29 141
35 272 31 97 -3 145 -10 215 -30z m-3771 3 c8 -13 105 -212 216 -443 112 -231
205 -423 209 -427 3 -3 98 186 210 420 112 235 210 437 218 450 14 22 17 22
171 20 l157 -3 0 -835 0 -835 -162 -3 -163 -2 0 482 0 483 -159 -310 -159
-310 -110 -3 -110 -3 -159 313 -158 313 -3 -483 -2 -482 -163 2 -162 3 -3 825
c-1 454 0 831 3 838 3 9 45 12 159 12 150 0 156 -1 170 -22z m1816 -578 c6
-657 2 -627 71 -705 52 -59 118 -85 214 -85 93 0 159 25 212 81 70 74 67 49
73 709 l5 595 163 3 162 2 0 -588 c0 -554 -1 -593 -20 -666 -28 -112 -71 -185
-156 -265 -259 -247 -702 -223 -930 50 -40 48 -66 96 -98 179 -20 53 -21 73
-24 673 l-3 617 163 -2 163 -3 5 -595z"/>
</g>
</svg>
