<?xml version="1.0" standalone="no"?>
<!DOCTYPE svg PUBLIC "-//W3C//DTD SVG 20010904//EN"
 "http://www.w3.org/TR/2001/REC-SVG-20010904/DTD/svg10.dtd">
<svg version="1.0" xmlns="http://www.w3.org/2000/svg"
 width="700.000000pt" height="700.000000pt" viewBox="0 0 700.000000 700.000000"
 preserveAspectRatio="xMidYMid meet">
<metadata>
Created by potrace 1.14, written by Peter Selinger 2001-2017
</metadata>
<g transform="translate(0.000000,700.000000) scale(0.100000,-0.100000)"
fill="#000000" stroke="none">
<path d="M0 3500 l0 -2468 490 0 490 0 0 2468 0 2468 -490 0 -490 1 0 -2469z"/>
<path d="M4437 5951 c-8 -9 -74 -110 -147 -226 -73 -115 -157 -246 -185 -290
-124 -193 -171 -266 -180 -282 -5 -10 -26 -43 -46 -73 -20 -30 -58 -89 -84
-130 -26 -41 -58 -91 -70 -110 -12 -19 -52 -82 -89 -140 -36 -58 -69 -109 -73
-115 -5 -5 -55 -84 -113 -175 -57 -91 -131 -208 -165 -260 -33 -52 -76 -120
-95 -150 -19 -30 -38 -59 -43 -65 -4 -5 -59 -91 -122 -190 -120 -189 -309
-487 -385 -605 -136 -212 -500 -783 -540 -846 -8 -13 -87 -137 -175 -274 -88
-138 -164 -258 -170 -268 -5 -9 -31 -49 -56 -87 -25 -39 -90 -140 -144 -225
-130 -204 -202 -317 -231 -361 -13 -19 -24 -38 -24 -41 0 -3 235 -5 522 -5
l521 2 31 45 c18 25 130 198 251 385 120 187 248 385 283 440 36 55 79 123 97
150 18 28 61 95 97 150 35 55 84 132 109 170 24 39 47 75 52 80 4 6 93 143
198 305 104 162 194 302 199 310 6 8 33 51 61 95 29 44 66 103 84 130 27 42
218 337 550 853 33 51 86 132 117 180 31 48 91 141 133 207 42 66 127 198 188
292 269 416 716 1107 732 1133 3 4 -238 8 -535 8 -486 0 -540 -2 -553 -17z"/>
<path d="M6020 3500 l0 -2468 490 0 490 0 0 2468 0 2469 -490 0 -490 -1 0
-2468z"/>
</g>
</svg>
