<?xml version="1.0" standalone="no"?>
<!DOCTYPE svg PUBLIC "-//W3C//DTD SVG 20010904//EN"
 "http://www.w3.org/TR/2001/REC-SVG-20010904/DTD/svg10.dtd">
<svg version="1.0" xmlns="http://www.w3.org/2000/svg"
 width="700.000000pt" height="700.000000pt" viewBox="0 0 700.000000 700.000000"
 preserveAspectRatio="xMidYMid meet">
<metadata>
Created by potrace 1.14, written by Peter Selinger 2001-2017
</metadata>
<g transform="translate(0.000000,700.000000) scale(0.100000,-0.100000)"
fill="#000000" stroke="none">
<path d="M0 3500 l0 -3500 3500 0 3500 0 0 1360 0 1360 -90 0 -90 0 0 450 0
450 -465 0 -465 0 0 -450 0 -450 -130 0 -130 0 0 945 0 945 130 0 130 0 0
-390 0 -390 463 2 462 3 3 388 2 387 90 0 90 0 0 1195 0 1195 -3500 0 -3500 0
0 -3500z m4925 1106 c50 -14 137 -50 195 -78 l105 -53 3 -138 3 -137 -72 55
c-81 63 -204 126 -294 151 -92 25 -305 30 -400 9 -231 -51 -389 -210 -457
-460 -19 -70 -22 -106 -22 -290 -1 -189 1 -218 22 -294 82 -301 269 -455 580
-477 205 -15 413 50 571 177 34 27 63 49 66 49 3 0 5 -58 5 -129 l0 -129 -48
-30 c-239 -154 -616 -195 -899 -98 -271 93 -461 305 -539 601 -36 136 -45 402
-20 554 66 391 303 652 666 732 70 16 116 18 265 15 158 -3 191 -7 270 -30z
m-3005 -106 l0 -110 -335 0 -335 0 0 -835 0 -835 -130 0 -130 0 0 835 0 835
-335 0 -335 0 0 110 0 110 800 0 800 0 0 -110z m1448 3 l-3 -108 -467 -3 -468
-2 0 -280 0 -280 450 0 450 0 0 -105 0 -105 -450 0 -450 0 0 -345 0 -345 480
0 480 0 0 -105 0 -105 -610 0 -610 0 0 945 0 945 600 0 601 0 -3 -107z"/>
</g>
</svg>
