<?xml version="1.0" standalone="no"?>
<!DOCTYPE svg PUBLIC "-//W3C//DTD SVG 20010904//EN"
 "http://www.w3.org/TR/2001/REC-SVG-20010904/DTD/svg10.dtd">
<svg version="1.0" xmlns="http://www.w3.org/2000/svg"
 width="512.000000pt" height="512.000000pt" viewBox="0 0 512.000000 512.000000"
 preserveAspectRatio="xMidYMid meet">
<g transform="translate(0.000000,512.000000) scale(0.100000,-0.100000)"
fill="#000000" stroke="none">
<path d="M0 2560 l0 -2560 2560 0 2560 0 0 2560 0 2560 -2560 0 -2560 0 0
-2560z m3235 685 c159 -42 273 -149 331 -312 42 -119 47 -114 -113 -111 l-136
3 -15 44 c-48 145 -233 198 -360 104 -73 -54 -92 -140 -92 -413 0 -207 10
-291 41 -352 33 -65 110 -108 193 -108 116 0 191 60 230 183 5 15 21 17 141
17 157 0 152 5 111 -113 -60 -168 -187 -283 -353 -317 -77 -16 -244 -8 -313
16 -130 44 -254 165 -291 284 -28 90 -42 302 -34 496 11 265 36 345 141 450
62 63 152 115 230 133 64 15 224 12 289 -4z m-1905 -115 l0 -120 -180 0 -180
0 0 -570 0 -570 -140 0 -140 0 0 570 0 570 -180 0 -180 0 0 120 0 120 500 0
500 0 0 -120z m1090 0 l0 -120 -320 0 -320 0 0 -160 0 -160 270 0 270 0 0
-125 0 -125 -270 0 -270 0 0 -165 0 -165 320 0 320 0 0 -120 0 -120 -460 0
-460 0 0 690 0 690 460 0 460 0 0 -120z m1630 -160 l0 -280 230 0 230 0 0 280
0 280 140 0 140 0 0 -690 0 -690 -140 0 -140 0 0 285 0 285 -230 0 -230 0 0
-285 0 -285 -135 0 -135 0 0 690 0 690 135 0 135 0 0 -280z"/>
</g>
</svg>
