<?xml version="1.0" encoding="UTF-8"?> <svg id="logo-knihovny.cz-cs" xmlns="http://www.w3.org/2000/svg" viewBox="0 0 250 51"><defs><style>.cls-1{fill:#838480}.cls-1,.cls-2{stroke-width:0}.cls-2{fill:#e5004b}</style></defs><g><polygon class="cls-2" points="32.42 10.41 24.43 22.25 32.44 33.99 38.13 33.99 30.2 22.25 38.13 10.41 32.42 10.41"/><polygon class="cls-2" points="20.26 .46 14.28 13.3 .05 12.6 2.99 17.49 17.25 18.24 23.19 5.33 20.26 .46"/><polygon class="cls-2" points="2.91 27 0 31.89 14.15 31.08 20.27 43.95 23.19 39.04 17.09 26.13 2.91 27"/></g><g><path class="cls-2" d="M64.5,33.56l-5.8-10.27-2.92,3.48v6.79h-4.41V11h4.41v9.83l8-9.83h5.32l-7.49,9,8,13.61-5.11-.05Z"/><path class="cls-2" d="M86,33.56l-8.91-13.86v13.86h-4.41V11h3.93l8.94,13.83v-13.83h4.45v22.56h-4Z"/><path class="cls-2" d="M95.45,33.56V11h4.41v22.56h-4.41Z"/><path class="cls-2" d="M117.39,33.56v-9.45h-7.64v9.45h-4.41V11h4.41v9.23h7.64v-9.23h4.41v22.56h-4.41Z"/><path class="cls-2" d="M141,31.28c-3.4,3.29-8.8,3.29-12.2,0-2.29-2.28-2.22-5.11-2.22-9s-.07-6.72,2.22-9c3.39-3.31,8.81-3.31,12.2,0,2.28,2.28,2.25,5.1,2.25,9s-.02,6.72-2.25,9ZM137.73,15.93c-.72-.8-1.75-1.24-2.82-1.21-1.1-.05-2.17.4-2.91,1.21-.86.95-1.08,2-1.08,6.34s.22,5.39,1.08,6.34c.73.8,1.77,1.24,2.85,1.21,1.07.03,2.1-.41,2.82-1.21.86-.95,1.12-2,1.12-6.34s-.25-5.39-1.11-6.34h.05Z"/><path class="cls-2" d="M155.82,33.56h-3.3l-7.45-22.56h4.57l4.53,14.71,4.53-14.71h4.6l-7.48,22.56Z"/><path class="cls-2" d="M179.6,33.56l-8.94-13.86v13.86h-4.41V11h3.93l8.94,13.83v-13.83h4.41v22.56h-3.93Z"/><path class="cls-2" d="M197.65,24.3v9.26h-4.38v-9.26l-6.79-13.3h4.79l4.22,9.1,4.15-9.1h4.79l-6.78,13.3Z"/><path class="cls-2" d="M206.9,33.56v-4.69h4.73v4.69h-4.73Z"/><path class="cls-2" d="M224.19,33.75c-2.28.05-4.49-.84-6.09-2.47-.94-.92-1.58-2.11-1.84-3.4-.3-1.85-.42-3.73-.38-5.61-.04-1.88.08-3.76.38-5.62.25-1.29.89-2.48,1.84-3.39,1.6-1.63,3.81-2.52,6.09-2.47,4.34,0,7.54,2.53,8.3,7.13h-4.49c-.26-1.88-1.9-3.26-3.8-3.2-1.07-.07-2.11.37-2.82,1.17-.92,1-1.12,2-1.12,6.38s.2,5.39,1.12,6.37c.71.81,1.75,1.24,2.82,1.18,1.9.06,3.54-1.33,3.8-3.21h4.47c-.45,4.19-4.07,7.31-8.28,7.14Z"/><path class="cls-2" d="M235.16,33.56v-3.56l9.64-15.09h-9.23v-3.91h14.43v3.49l-9.67,15.16h9.67v3.93l-14.84-.02Z"/></g><g><path class="cls-1" d="M58.73,40.75l-3.21,7.88h-.96l-3.21-7.88h.85c.1,0,.17.02.23.07.06.05.1.11.13.18l2.22,5.56c.05.12.09.26.14.41s.09.3.12.46c.04-.16.08-.32.12-.46.04-.15.08-.28.13-.41l2.22-5.56c.02-.06.06-.12.13-.17.06-.05.14-.08.23-.08h.85Z"/><path class="cls-1" d="M64.08,43.06l-3.11,7.22c-.03.07-.07.13-.12.18-.05.04-.13.07-.23.07h-.73l1.02-2.21-2.3-5.25h.85c.08,0,.15.02.2.06.05.04.08.09.1.14l1.49,3.51c.06.15.11.32.15.48.05-.17.11-.34.17-.49l1.45-3.5c.02-.06.06-.11.11-.15.05-.04.11-.06.18-.06h.78Z"/><path class="cls-1" d="M65.92,43.8c.24-.25.5-.45.79-.6.29-.15.62-.23,1-.23.3,0,.57.05.81.15.23.1.43.24.58.43.16.18.27.41.35.67.08.26.12.55.12.86v3.55h-.98v-3.55c0-.42-.1-.75-.29-.98-.19-.23-.48-.35-.88-.35-.29,0-.56.07-.81.21-.25.14-.48.33-.7.57v4.1h-.98v-8.1h.98v3.27Z"/><path class="cls-1" d="M72.07,40.53v8.1h-.98v-8.1h.98Z"/><path class="cls-1" d="M78.16,47.85c-.12.15-.27.27-.43.38-.17.11-.35.2-.54.27s-.39.12-.6.16c-.21.04-.41.05-.61.05-.38,0-.74-.07-1.06-.2-.32-.13-.6-.32-.84-.57-.24-.25-.42-.56-.55-.93-.13-.37-.2-.8-.2-1.28,0-.39.06-.75.18-1.09.12-.34.29-.63.51-.88.22-.25.5-.44.82-.58.32-.14.69-.21,1.09-.21.33,0,.64.06.93.17.28.11.53.27.74.48s.37.47.49.78.18.66.18,1.06c0,.15-.02.26-.05.31-.03.05-.1.08-.19.08h-3.72c.01.35.06.66.15.92.09.26.21.48.36.65.15.17.34.3.55.39.21.09.45.13.71.13.25,0,.46-.03.64-.08.18-.06.33-.12.46-.18.13-.07.24-.13.32-.18.09-.06.16-.09.22-.09.08,0,.14.03.19.09l.27.36ZM77.37,45.23c0-.23-.03-.44-.1-.62-.06-.19-.16-.35-.28-.49-.12-.14-.27-.24-.45-.32-.18-.08-.38-.11-.6-.11-.47,0-.84.14-1.11.41-.27.27-.44.65-.51,1.14h3.05Z"/><path class="cls-1" d="M84.05,40.53v8.1h-.58c-.14,0-.23-.07-.26-.2l-.09-.68c-.24.29-.51.52-.81.69-.3.18-.66.26-1.06.26-.32,0-.61-.06-.87-.18s-.48-.3-.67-.54c-.18-.24-.32-.54-.42-.89s-.15-.76-.15-1.23c0-.41.05-.79.17-1.15.11-.35.27-.66.47-.92.21-.26.46-.46.76-.61.3-.15.64-.22,1.01-.22.34,0,.63.06.88.17.24.12.46.28.65.48v-3.09h.98ZM83.07,44.38c-.18-.25-.38-.42-.59-.51-.21-.1-.45-.15-.71-.15-.52,0-.92.19-1.19.56-.28.37-.42.9-.42,1.58,0,.36.03.67.09.93.06.26.15.47.27.64s.27.29.45.37c.18.08.38.12.6.12.32,0,.6-.07.84-.22.24-.15.46-.35.66-.62v-2.69Z"/><path class="cls-1" d="M85.45,43.84c.31-.3.64-.52,1-.67s.75-.22,1.18-.22c.31,0,.59.05.83.15.24.1.45.25.61.43.17.18.29.41.37.67s.13.55.13.86v3.56h-.43c-.1,0-.17-.02-.22-.05-.05-.03-.09-.09-.12-.18l-.11-.53c-.15.14-.29.26-.43.36s-.29.19-.44.26c-.15.07-.32.13-.49.17-.17.04-.37.06-.58.06s-.42-.03-.61-.09-.36-.15-.5-.27-.25-.27-.34-.46c-.08-.18-.12-.4-.12-.66,0-.22.06-.43.18-.63.12-.2.32-.38.59-.54.27-.16.62-.29,1.06-.39s.97-.16,1.61-.17v-.43c0-.43-.09-.76-.28-.98s-.46-.33-.82-.33c-.24,0-.44.03-.61.09-.16.06-.3.13-.42.2s-.22.14-.31.2c-.09.06-.17.09-.26.09-.07,0-.12-.02-.17-.05-.05-.04-.09-.08-.12-.13l-.18-.31ZM88.61,46.12c-.45.01-.83.05-1.15.11-.32.06-.58.13-.78.22s-.34.2-.43.32-.13.26-.13.42.02.27.07.38c.05.11.11.19.2.26.08.07.18.12.29.15.11.03.23.05.36.05.17,0,.33-.02.47-.05.14-.04.28-.09.4-.15.13-.07.25-.15.36-.24.12-.09.23-.2.34-.31v-1.16ZM89.1,40.66l-1.28,1.42c-.05.06-.1.09-.15.12-.05.02-.11.04-.19.04h-.58l.81-1.33c.05-.08.11-.15.17-.18.06-.04.15-.06.27-.06h.96Z"/><path class="cls-1" d="M95.7,43.06l-2.27,5.57h-.88l-2.27-5.57h.8c.08,0,.15.02.2.06.05.04.09.09.1.14l1.41,3.59c.04.14.08.27.12.4.03.13.06.26.09.38.03-.13.06-.26.09-.38.03-.13.07-.26.12-.4l1.43-3.59c.02-.06.06-.11.11-.15.05-.04.11-.06.18-.06h.76Z"/><path class="cls-1" d="M100.96,47.85c-.12.15-.27.27-.43.38-.17.11-.35.2-.54.27s-.39.12-.6.16c-.21.04-.41.05-.61.05-.38,0-.74-.07-1.06-.2-.32-.13-.6-.32-.84-.57-.24-.25-.42-.56-.55-.93-.13-.37-.2-.8-.2-1.28,0-.39.06-.75.18-1.09.12-.34.29-.63.51-.88.22-.25.5-.44.82-.58.32-.14.69-.21,1.09-.21.33,0,.64.06.93.17.28.11.53.27.74.48s.37.47.49.78.18.66.18,1.06c0,.15-.02.26-.05.31-.03.05-.1.08-.19.08h-3.72c.01.35.06.66.15.92.09.26.21.48.36.65.15.17.34.3.55.39.21.09.45.13.71.13.25,0,.46-.03.64-.08.18-.06.33-.12.46-.18.13-.07.24-.13.32-.18.09-.06.16-.09.22-.09.08,0,.14.03.19.09l.27.36ZM100.17,45.23c0-.23-.03-.44-.1-.62-.06-.19-.16-.35-.28-.49-.12-.14-.27-.24-.45-.32-.18-.08-.38-.11-.6-.11-.47,0-.84.14-1.11.41-.27.27-.44.65-.51,1.14h3.05Z"/><path class="cls-1" d="M103.27,43.06v5.98c0,.22-.03.43-.09.62-.06.19-.15.36-.28.5s-.29.26-.49.34c-.2.08-.44.12-.72.12-.12,0-.23,0-.32-.03-.1-.02-.2-.05-.3-.08l.04-.53s.02-.06.04-.07c.02-.02.04-.03.07-.03.03,0,.07,0,.11,0s.1,0,.17,0c.29,0,.49-.07.61-.2s.18-.35.18-.65v-5.98h.98ZM103.47,41.31c0,.09-.02.18-.06.27-.04.08-.09.16-.15.22-.06.06-.14.12-.22.15-.08.04-.17.05-.27.05s-.18-.02-.27-.05c-.08-.04-.16-.09-.22-.15-.06-.06-.11-.14-.15-.22-.04-.08-.05-.17-.05-.27s.02-.19.05-.27.09-.16.15-.23c.06-.06.13-.11.22-.15.08-.04.17-.05.27-.05s.19.02.27.05c.08.04.16.09.22.15.06.06.12.14.15.23.04.09.06.18.06.27Z"/><path class="cls-1" d="M106.58,48.72c-.44,0-.78-.12-1.01-.37-.24-.25-.35-.6-.35-1.06v-3.41h-.67c-.06,0-.11-.02-.15-.05-.04-.03-.06-.09-.06-.16v-.39l.91-.12.23-1.72c.01-.05.04-.1.07-.13.04-.03.09-.05.15-.05h.5v1.92h1.61v.71h-1.61v3.34c0,.24.06.41.17.52.11.11.26.17.44.17.1,0,.19-.01.27-.04.08-.03.14-.06.2-.09.06-.03.1-.06.14-.09s.07-.04.1-.04c.05,0,.1.03.14.09l.29.47c-.17.16-.37.28-.61.37-.24.09-.48.13-.74.13Z"/><path class="cls-1" d="M113.29,47.85c-.12.15-.27.27-.43.38-.17.11-.35.2-.54.27s-.39.12-.6.16c-.21.04-.41.05-.61.05-.38,0-.74-.07-1.06-.2-.32-.13-.6-.32-.84-.57-.24-.25-.42-.56-.55-.93-.13-.37-.2-.8-.2-1.28,0-.39.06-.75.18-1.09.12-.34.29-.63.51-.88.22-.25.5-.44.82-.58.32-.14.69-.21,1.09-.21.33,0,.64.06.93.17.28.11.53.27.74.48s.37.47.49.78.18.66.18,1.06c0,.15-.02.26-.05.31-.03.05-.1.08-.19.08h-3.72c.01.35.06.66.15.92.09.26.21.48.36.65.15.17.34.3.55.39.21.09.45.13.71.13.25,0,.46-.03.64-.08.18-.06.33-.12.46-.18.13-.07.24-.13.32-.18.09-.06.16-.09.22-.09.08,0,.14.03.19.09l.27.36ZM112.5,45.23c0-.23-.03-.44-.1-.62-.06-.19-.16-.35-.28-.49-.12-.14-.27-.24-.45-.32-.18-.08-.38-.11-.6-.11-.47,0-.84.14-1.11.41-.27.27-.44.65-.51,1.14h3.05Z"/><path class="cls-1" d="M114.51,49.96s-.05-.05-.06-.07c-.01-.02-.02-.05-.02-.08,0-.03,0-.05.02-.08.02-.03.04-.05.06-.07.04-.04.08-.09.14-.16.06-.07.11-.14.17-.23.06-.09.11-.19.16-.3.05-.11.09-.22.11-.34-.01,0-.02,0-.04,0h-.04c-.19,0-.35-.06-.46-.19-.12-.13-.18-.29-.18-.49,0-.17.06-.32.18-.44s.28-.18.48-.18c.11,0,.21.02.29.06.08.04.15.1.21.17.06.07.1.15.13.25s.04.2.04.31c0,.17-.02.34-.07.51s-.11.35-.2.53c-.09.17-.2.34-.33.51s-.27.32-.44.46l-.17-.16Z"/><path class="cls-1" d="M123.1,43.97c-.04.08-.11.12-.2.12-.06,0-.12-.02-.19-.06-.07-.04-.16-.08-.26-.13-.1-.05-.22-.09-.36-.14-.14-.04-.3-.06-.49-.06-.17,0-.31.02-.45.06-.13.04-.24.1-.34.17s-.17.16-.21.26c-.05.1-.07.2-.07.32,0,.14.04.26.12.36.08.09.19.18.33.25.13.07.29.13.46.18.17.05.35.11.53.17s.36.13.53.2.33.17.46.28c.14.11.25.24.33.4.08.16.12.35.12.57,0,.26-.04.49-.14.71-.09.22-.23.41-.41.57-.18.16-.4.29-.66.38-.26.09-.56.14-.9.14-.39,0-.74-.06-1.06-.19-.32-.13-.58-.29-.8-.49l.23-.37s.06-.08.1-.11c.04-.03.09-.04.15-.04s.14.03.21.08c.07.05.16.11.27.17.11.06.23.12.38.17.15.05.34.08.56.08.19,0,.36-.02.5-.07.14-.05.26-.12.36-.2.1-.08.17-.18.21-.29.04-.11.07-.23.07-.35,0-.15-.04-.28-.12-.38-.08-.1-.19-.19-.33-.26-.13-.07-.29-.13-.46-.19-.17-.05-.35-.11-.53-.17s-.36-.12-.53-.2-.33-.17-.46-.28c-.14-.11-.25-.25-.33-.42-.08-.17-.12-.37-.12-.61,0-.21.04-.42.13-.61.09-.2.22-.37.39-.52.17-.15.38-.27.62-.35s.53-.13.84-.13c.37,0,.7.06.99.17s.54.27.76.48l-.22.36Z"/><path class="cls-1" d="M126.32,48.72c-.44,0-.78-.12-1.01-.37-.24-.25-.36-.6-.36-1.06v-3.41h-.67c-.06,0-.11-.02-.15-.05-.04-.03-.06-.09-.06-.16v-.39l.91-.12.23-1.72c.01-.05.04-.1.07-.13.04-.03.09-.05.15-.05h.5v1.92h1.61v.71h-1.61v3.34c0,.24.06.41.17.52s.26.17.44.17c.1,0,.19-.01.27-.04.08-.03.14-.06.2-.09.05-.03.1-.06.14-.09.04-.03.07-.04.1-.04.05,0,.1.03.14.09l.29.47c-.17.16-.37.28-.61.37s-.48.13-.74.13Z"/><path class="cls-1" d="M128.4,43.84c.31-.3.64-.52,1-.67s.75-.22,1.18-.22c.31,0,.59.05.83.15.24.1.45.25.61.43.16.18.29.41.37.67.08.26.13.55.13.86v3.56h-.43c-.1,0-.17-.02-.22-.05-.05-.03-.09-.09-.12-.18l-.11-.53c-.15.14-.29.26-.43.36s-.29.19-.44.26c-.15.07-.32.13-.49.17-.17.04-.37.06-.58.06s-.42-.03-.61-.09-.36-.15-.5-.27c-.14-.12-.25-.27-.33-.46-.08-.18-.12-.4-.12-.66,0-.22.06-.43.18-.63.12-.2.32-.38.59-.54.27-.16.62-.29,1.06-.39.44-.1.97-.16,1.61-.17v-.43c0-.43-.09-.76-.28-.98-.19-.22-.46-.33-.82-.33-.24,0-.45.03-.61.09s-.3.13-.42.2-.22.14-.31.2-.17.09-.26.09c-.07,0-.12-.02-.17-.05-.05-.04-.09-.08-.12-.13l-.18-.31ZM131.56,46.12c-.45.01-.83.05-1.15.11-.32.06-.58.13-.78.22s-.34.2-.43.32-.13.26-.13.42.02.27.07.38c.05.11.11.19.2.26.08.07.18.12.29.15.11.03.23.05.36.05.17,0,.33-.02.47-.05.14-.04.28-.09.4-.15.13-.07.25-.15.36-.24.12-.09.23-.2.34-.31v-1.16Z"/><path class="cls-1" d="M134.98,43.8c.24-.25.5-.45.79-.6.29-.15.62-.23,1-.23.3,0,.57.05.81.15.23.1.43.24.58.43.16.18.27.41.36.67.08.26.12.55.12.86v3.55h-.99v-3.55c0-.42-.1-.75-.29-.98-.19-.23-.49-.35-.88-.35-.29,0-.56.07-.81.21-.25.14-.48.33-.7.57v4.1h-.98v-8.1h.98v3.27Z"/><path class="cls-1" d="M144.71,43.06v5.57h-.58c-.14,0-.23-.07-.26-.2l-.08-.6c-.24.27-.51.48-.81.65-.3.16-.65.25-1.03.25-.3,0-.57-.05-.81-.15-.23-.1-.43-.24-.59-.43-.16-.18-.28-.41-.35-.67-.08-.26-.12-.55-.12-.86v-3.55h.98v3.55c0,.42.1.75.29.98.19.23.49.35.88.35.29,0,.56-.07.81-.21.25-.14.48-.33.7-.57v-4.1h.98Z"/><path class="cls-1" d="M147.28,43.06v5.98c0,.22-.03.43-.09.62s-.15.36-.28.5c-.13.14-.29.26-.49.34-.2.08-.44.12-.72.12-.12,0-.23,0-.33-.03-.1-.02-.2-.05-.3-.08l.04-.53s.02-.06.04-.07.04-.03.07-.03c.03,0,.07,0,.11,0s.1,0,.17,0c.29,0,.49-.07.61-.2.12-.13.18-.35.18-.65v-5.98h.98ZM147.48,41.31c0,.09-.02.18-.06.27-.04.08-.09.16-.15.22-.06.06-.14.12-.22.15-.08.04-.17.05-.27.05s-.18-.02-.27-.05c-.08-.04-.15-.09-.22-.15-.06-.06-.11-.14-.15-.22-.04-.08-.06-.17-.06-.27s.02-.19.06-.27c.04-.09.09-.16.15-.23s.13-.11.22-.15c.08-.04.17-.05.27-.05s.19.02.27.05c.08.04.16.09.22.15.06.06.12.14.15.23.04.09.06.18.06.27Z"/><path class="cls-1" d="M150.59,48.72c-.44,0-.78-.12-1.01-.37-.24-.25-.36-.6-.36-1.06v-3.41h-.67c-.06,0-.11-.02-.15-.05-.04-.03-.06-.09-.06-.16v-.39l.91-.12.23-1.72c.01-.05.04-.1.07-.13.04-.03.09-.05.15-.05h.5v1.92h1.61v.71h-1.61v3.34c0,.24.06.41.17.52s.26.17.44.17c.1,0,.19-.01.27-.04.08-.03.14-.06.2-.09.05-.03.1-.06.14-.09.04-.03.07-.04.1-.04.05,0,.1.03.14.09l.29.47c-.17.16-.37.28-.61.37s-.48.13-.74.13Z"/><path class="cls-1" d="M157.3,47.85c-.12.15-.27.27-.43.38-.17.11-.35.2-.54.27s-.39.12-.6.16c-.21.04-.41.05-.61.05-.39,0-.74-.07-1.06-.2s-.61-.32-.84-.57-.42-.56-.55-.93c-.13-.37-.2-.8-.2-1.28,0-.39.06-.75.18-1.09.12-.34.29-.63.51-.88.22-.25.5-.44.82-.58.32-.14.69-.21,1.09-.21.33,0,.64.06.93.17.28.11.53.27.74.48s.37.47.49.78c.12.31.18.66.18,1.06,0,.15-.02.26-.05.31-.03.05-.1.08-.19.08h-3.72c.01.35.06.66.15.92.09.26.21.48.36.65.15.17.34.3.55.39s.45.13.71.13c.25,0,.46-.03.64-.08s.33-.12.46-.18c.13-.07.24-.13.32-.18.09-.06.16-.09.22-.09.08,0,.14.03.19.09l.28.36ZM156.51,45.23c0-.23-.03-.44-.1-.62-.06-.19-.16-.35-.28-.49-.12-.14-.27-.24-.45-.32s-.38-.11-.6-.11c-.47,0-.84.14-1.11.41-.27.27-.44.65-.51,1.14h3.05Z"/><path class="cls-1" d="M158.52,49.96s-.05-.05-.06-.07c-.01-.02-.02-.05-.02-.08,0-.03,0-.05.03-.08.02-.03.04-.05.06-.07.04-.04.08-.09.14-.16.06-.07.12-.14.17-.23s.11-.19.16-.3c.05-.11.08-.22.11-.34-.01,0-.02,0-.04,0h-.04c-.19,0-.35-.06-.46-.19-.12-.13-.18-.29-.18-.49,0-.17.06-.32.18-.44s.28-.18.48-.18c.11,0,.21.02.29.06.08.04.16.1.21.17.06.07.1.15.13.25.03.09.04.2.04.31,0,.17-.02.34-.07.51s-.11.35-.2.53c-.09.17-.2.34-.33.51-.13.17-.28.32-.44.46l-.17-.16Z"/><path class="cls-1" d="M164.8,43.92c.23-.29.51-.52.81-.7s.66-.26,1.06-.26c.32,0,.61.06.88.18.26.12.48.3.67.54.18.24.33.54.42.89s.15.76.15,1.23c0,.41-.05.79-.17,1.15-.11.35-.27.66-.48.92-.21.26-.46.46-.76.61s-.64.22-1.01.22c-.34,0-.63-.06-.88-.17-.24-.12-.46-.28-.65-.48v2.46h-.98v-7.46h.59c.14,0,.23.07.26.2l.09.66ZM164.85,47.29c.18.24.38.41.59.51.21.1.45.15.71.15.52,0,.92-.19,1.2-.56.28-.37.42-.9.42-1.58,0-.36-.03-.67-.1-.94-.06-.26-.16-.47-.28-.64s-.27-.29-.45-.37c-.18-.08-.38-.12-.6-.12-.32,0-.6.07-.84.22s-.46.35-.66.62v2.7Z"/><path class="cls-1" d="M174.61,43.06v5.57h-.58c-.14,0-.23-.07-.26-.2l-.08-.6c-.24.27-.51.48-.81.65-.3.16-.65.25-1.03.25-.3,0-.57-.05-.81-.15-.23-.1-.43-.24-.59-.43-.16-.18-.28-.41-.35-.67-.08-.26-.12-.55-.12-.86v-3.55h.98v3.55c0,.42.1.75.29.98.19.23.49.35.88.35.29,0,.56-.07.81-.21.25-.14.48-.33.7-.57v-4.1h.98ZM171.23,41.4c0-.15.03-.29.09-.42s.14-.23.24-.32c.1-.09.22-.16.35-.21.13-.05.27-.07.42-.07s.29.02.43.07c.13.05.25.12.35.21.1.09.18.2.24.32s.09.26.09.42-.03.29-.09.41c-.06.12-.14.23-.24.32s-.22.16-.35.21-.28.07-.43.07-.29-.02-.42-.07-.25-.12-.35-.21c-.1-.09-.18-.19-.24-.32-.06-.12-.09-.26-.09-.41ZM171.78,41.4c0,.16.05.29.15.4.1.1.23.15.41.15s.3-.05.4-.15c.1-.1.15-.23.15-.4s-.05-.3-.15-.4-.23-.15-.4-.15-.31.05-.41.15c-.1.1-.15.24-.15.4Z"/><path class="cls-1" d="M177.18,43.06v5.98c0,.22-.03.43-.09.62s-.15.36-.28.5c-.13.14-.29.26-.49.34-.2.08-.44.12-.72.12-.12,0-.23,0-.33-.03-.1-.02-.2-.05-.3-.08l.04-.53s.02-.06.04-.07.04-.03.07-.03c.03,0,.07,0,.11,0s.1,0,.17,0c.29,0,.49-.07.61-.2.12-.13.18-.35.18-.65v-5.98h.98ZM177.38,41.31c0,.09-.02.18-.06.27-.04.08-.09.16-.15.22-.06.06-.14.12-.22.15-.08.04-.17.05-.27.05s-.18-.02-.27-.05c-.08-.04-.15-.09-.22-.15-.06-.06-.11-.14-.15-.22-.04-.08-.06-.17-.06-.27s.02-.19.06-.27c.04-.09.09-.16.15-.23s.13-.11.22-.15c.08-.04.17-.05.27-.05s.19.02.27.05c.08.04.16.09.22.15.06.06.12.14.15.23.04.09.06.18.06.27Z"/><path class="cls-1" d="M182.65,44.05s-.06.07-.09.09c-.03.02-.07.03-.12.03-.06,0-.12-.02-.18-.07-.07-.05-.15-.1-.25-.15-.1-.06-.22-.11-.36-.15-.14-.05-.31-.07-.52-.07-.28,0-.52.05-.73.15-.21.1-.38.24-.52.42-.14.18-.25.41-.32.67-.07.26-.11.55-.11.88s.04.64.12.9c.08.26.19.48.33.66.14.18.31.31.51.41.2.09.42.14.67.14s.43-.03.59-.09c.15-.06.28-.12.38-.19s.19-.13.25-.19c.07-.06.13-.09.2-.09.08,0,.14.03.19.09l.28.36c-.12.15-.26.28-.41.38-.15.11-.32.2-.5.27-.18.07-.36.12-.56.16s-.39.05-.59.05c-.35,0-.67-.06-.97-.19-.3-.13-.56-.31-.78-.56s-.39-.54-.52-.9c-.12-.36-.19-.76-.19-1.21,0-.42.06-.8.17-1.15.12-.35.28-.66.51-.91.22-.25.5-.45.82-.6.32-.14.7-.21,1.12-.21.39,0,.74.06,1.04.19.3.13.56.31.79.54l-.26.35ZM182.74,40.75l-1.23,1.45h-.91l-1.23-1.45h.68s.09,0,.13.03c.04.02.07.04.09.05l.7.75s.03.04.05.05.03.04.05.05c.02-.02.03-.04.05-.05.01-.02.03-.04.05-.05l.7-.75s.06-.04.1-.05c.04-.02.08-.03.12-.03h.65Z"/><path class="cls-1" d="M188.6,43.06v5.57h-.58c-.14,0-.23-.07-.26-.2l-.08-.6c-.24.27-.51.48-.81.65-.3.16-.65.25-1.03.25-.3,0-.57-.05-.81-.15-.23-.1-.43-.24-.59-.43-.16-.18-.28-.41-.35-.67-.08-.26-.12-.55-.12-.86v-3.55h.98v3.55c0,.42.1.75.29.98.19.23.49.35.88.35.29,0,.56-.07.81-.21.25-.14.48-.33.7-.57v-4.1h.98Z"/><path class="cls-1" d="M191.17,43.06v5.98c0,.22-.03.43-.09.62s-.15.36-.28.5c-.13.14-.29.26-.49.34-.2.08-.44.12-.72.12-.12,0-.23,0-.33-.03-.1-.02-.2-.05-.3-.08l.04-.53s.02-.06.04-.07.04-.03.07-.03c.03,0,.07,0,.11,0s.1,0,.17,0c.29,0,.49-.07.61-.2.12-.13.18-.35.18-.65v-5.98h.98ZM191.37,41.31c0,.09-.02.18-.06.27-.04.08-.09.16-.15.22-.06.06-.14.12-.22.15-.08.04-.17.05-.27.05s-.18-.02-.27-.05c-.08-.04-.15-.09-.22-.15-.06-.06-.11-.14-.15-.22-.04-.08-.06-.17-.06-.27s.02-.19.06-.27c.04-.09.09-.16.15-.23s.13-.11.22-.15c.08-.04.17-.05.27-.05s.19.02.27.05c.08.04.16.09.22.15.06.06.12.14.15.23.04.09.06.18.06.27Z"/><path class="cls-1" d="M194.48,48.72c-.44,0-.78-.12-1.01-.37-.24-.25-.36-.6-.36-1.06v-3.41h-.67c-.06,0-.11-.02-.15-.05-.04-.03-.06-.09-.06-.16v-.39l.91-.12.23-1.72c.01-.05.04-.1.07-.13.04-.03.09-.05.15-.05h.5v1.92h1.61v.71h-1.61v3.34c0,.24.06.41.17.52s.26.17.44.17c.1,0,.19-.01.27-.04.08-.03.14-.06.2-.09.05-.03.1-.06.14-.09.04-.03.07-.04.1-.04.05,0,.1.03.14.09l.29.47c-.17.16-.37.28-.61.37s-.48.13-.74.13Z"/><path class="cls-1" d="M201.19,47.85c-.12.15-.27.27-.43.38-.17.11-.35.2-.54.27s-.39.12-.6.16c-.21.04-.41.05-.61.05-.39,0-.74-.07-1.06-.2s-.61-.32-.84-.57-.42-.56-.55-.93c-.13-.37-.2-.8-.2-1.28,0-.39.06-.75.18-1.09.12-.34.29-.63.51-.88.22-.25.5-.44.82-.58.32-.14.69-.21,1.09-.21.33,0,.64.06.93.17.28.11.53.27.74.48s.37.47.49.78c.12.31.18.66.18,1.06,0,.15-.02.26-.05.31-.03.05-.1.08-.19.08h-3.72c.01.35.06.66.15.92.09.26.21.48.36.65.15.17.34.3.55.39s.45.13.71.13c.25,0,.46-.03.64-.08s.33-.12.46-.18c.13-.07.24-.13.32-.18.09-.06.16-.09.22-.09.08,0,.14.03.19.09l.28.36ZM200.4,45.23c0-.23-.03-.44-.1-.62-.06-.19-.16-.35-.28-.49-.12-.14-.27-.24-.45-.32s-.38-.11-.6-.11c-.47,0-.84.14-1.11.41-.27.27-.44.65-.51,1.14h3.05Z"/><path class="cls-1" d="M208.52,43.97c-.04.08-.11.12-.2.12-.06,0-.12-.02-.19-.06-.07-.04-.16-.08-.26-.13-.1-.05-.22-.09-.36-.14-.14-.04-.3-.06-.5-.06-.17,0-.31.02-.45.06-.13.04-.24.1-.34.17s-.17.16-.21.26c-.05.1-.07.2-.07.32,0,.14.04.26.12.36.08.09.19.18.33.25.14.07.29.13.46.18.17.05.35.11.53.17.18.06.36.13.53.2.17.07.33.17.46.28.14.11.25.24.33.4.08.16.12.35.12.57,0,.26-.05.49-.14.71-.09.22-.23.41-.41.57-.18.16-.4.29-.66.38-.26.09-.56.14-.9.14-.39,0-.74-.06-1.06-.19-.32-.13-.58-.29-.8-.49l.23-.37s.06-.08.1-.11.09-.04.15-.04.13.03.21.08c.07.05.16.11.27.17s.23.12.38.17c.15.05.34.08.56.08.19,0,.36-.02.5-.07.14-.05.26-.12.36-.2.1-.08.17-.18.21-.29s.07-.23.07-.35c0-.15-.04-.28-.12-.38-.08-.1-.19-.19-.33-.26-.14-.07-.29-.13-.46-.19-.17-.05-.35-.11-.53-.17-.18-.06-.36-.12-.53-.2s-.33-.17-.46-.28c-.14-.11-.24-.25-.33-.42-.08-.17-.12-.37-.12-.61,0-.21.04-.42.13-.61.09-.2.22-.37.38-.52.17-.15.38-.27.62-.35.25-.09.53-.13.84-.13.37,0,.7.06.99.17.29.12.54.27.76.48l-.22.36Z"/><path class="cls-1" d="M211.27,41.31c0,.09-.02.18-.06.27-.04.08-.09.16-.15.22-.06.06-.14.12-.23.15-.09.04-.18.05-.27.05s-.18-.02-.27-.05c-.08-.04-.15-.09-.22-.15-.06-.06-.11-.14-.15-.22-.04-.08-.06-.17-.06-.27s.02-.19.06-.27c.04-.09.09-.16.15-.23s.13-.11.22-.15c.08-.04.17-.05.27-.05s.19.02.27.05c.09.04.16.09.23.15s.12.14.15.23c.04.09.06.18.06.27ZM211.06,43.06v5.57h-.98v-5.57h.98Z"/><path class="cls-1" d="M215.32,43.84c.31-.3.64-.52,1-.67s.75-.22,1.18-.22c.31,0,.59.05.83.15.24.1.45.25.61.43.16.18.29.41.37.67.08.26.13.55.13.86v3.56h-.43c-.1,0-.17-.02-.22-.05-.05-.03-.09-.09-.12-.18l-.11-.53c-.15.14-.29.26-.43.36s-.29.19-.44.26c-.15.07-.32.13-.49.17-.17.04-.37.06-.58.06s-.42-.03-.61-.09-.36-.15-.5-.27c-.14-.12-.25-.27-.33-.46-.08-.18-.12-.4-.12-.66,0-.22.06-.43.18-.63.12-.2.32-.38.59-.54.27-.16.62-.29,1.06-.39.44-.1.97-.16,1.61-.17v-.43c0-.43-.09-.76-.28-.98-.19-.22-.46-.33-.82-.33-.24,0-.45.03-.61.09s-.3.13-.42.2-.22.14-.31.2-.17.09-.26.09c-.07,0-.12-.02-.17-.05-.05-.04-.09-.08-.12-.13l-.18-.31ZM218.48,46.12c-.45.01-.83.05-1.15.11-.32.06-.58.13-.78.22s-.34.2-.43.32-.13.26-.13.42.02.27.07.38c.05.11.11.19.2.26.08.07.18.12.29.15.11.03.23.05.36.05.17,0,.33-.02.47-.05.14-.04.28-.09.4-.15.13-.07.25-.15.36-.24.12-.09.23-.2.34-.31v-1.16Z"/><path class="cls-1" d="M227.6,44.05s-.06.07-.09.09c-.03.02-.07.03-.12.03-.06,0-.12-.02-.18-.07-.07-.05-.15-.1-.25-.15-.1-.06-.22-.11-.36-.15-.14-.05-.31-.07-.52-.07-.28,0-.52.05-.73.15-.21.1-.38.24-.52.42-.14.18-.25.41-.32.67-.07.26-.11.55-.11.88s.04.64.12.9c.08.26.19.48.33.66.14.18.31.31.51.41.2.09.42.14.67.14s.43-.03.59-.09c.15-.06.28-.12.38-.19s.19-.13.25-.19c.07-.06.13-.09.2-.09.08,0,.14.03.19.09l.28.36c-.12.15-.26.28-.41.38-.15.11-.32.2-.5.27-.18.07-.36.12-.56.16s-.39.05-.59.05c-.35,0-.67-.06-.97-.19-.3-.13-.56-.31-.78-.56s-.39-.54-.52-.9c-.12-.36-.19-.76-.19-1.21,0-.42.06-.8.17-1.15.12-.35.28-.66.51-.91.22-.25.5-.45.82-.6.32-.14.7-.21,1.12-.21.39,0,.74.06,1.04.19.3.13.56.31.79.54l-.26.35ZM227.69,40.75l-1.23,1.45h-.91l-1.23-1.45h.68s.09,0,.13.03c.04.02.07.04.09.05l.7.75s.03.04.05.05.03.04.05.05c.02-.02.03-.04.05-.05.01-.02.03-.04.05-.05l.7-.75s.06-.04.1-.05c.04-.02.08-.03.12-.03h.65Z"/><path class="cls-1" d="M230.67,48.72c-.44,0-.78-.12-1.01-.37-.24-.25-.36-.6-.36-1.06v-3.41h-.67c-.06,0-.11-.02-.15-.05-.04-.03-.06-.09-.06-.16v-.39l.91-.12.23-1.72c.01-.05.04-.1.07-.13.04-.03.09-.05.15-.05h.5v1.92h1.61v.71h-1.61v3.34c0,.24.06.41.17.52s.26.17.44.17c.1,0,.19-.01.27-.04.08-.03.14-.06.2-.09.05-.03.1-.06.14-.09.04-.03.07-.04.1-.04.05,0,.1.03.14.09l.29.47c-.17.16-.37.28-.61.37s-.48.13-.74.13Z"/><path class="cls-1" d="M237.39,47.85c-.12.15-.27.27-.43.38-.17.11-.35.2-.54.27s-.39.12-.6.16c-.21.04-.41.05-.61.05-.39,0-.74-.07-1.06-.2s-.61-.32-.84-.57-.42-.56-.55-.93c-.13-.37-.2-.8-.2-1.28,0-.39.06-.75.18-1.09.12-.34.29-.63.51-.88.22-.25.5-.44.82-.58.32-.14.69-.21,1.09-.21.33,0,.64.06.93.17.28.11.53.27.74.48s.37.47.49.78c.12.31.18.66.18,1.06,0,.15-.02.26-.05.31-.03.05-.1.08-.19.08h-3.72c.01.35.06.66.15.92.09.26.21.48.36.65.15.17.34.3.55.39s.45.13.71.13c.25,0,.46-.03.64-.08s.33-.12.46-.18c.13-.07.24-.13.32-.18.09-.06.16-.09.22-.09.08,0,.14.03.19.09l.28.36ZM236.85,40.75l-1.23,1.45h-.91l-1.23-1.45h.68s.09,0,.13.03c.04.02.07.04.09.05l.7.75s.03.04.05.05.03.04.05.05c.02-.02.03-.04.05-.05s.03-.04.05-.05l.7-.75s.06-.04.1-.05c.04-.02.08-.03.12-.03h.65ZM236.6,45.23c0-.23-.03-.44-.1-.62-.06-.19-.16-.35-.28-.49-.12-.14-.27-.24-.45-.32s-.38-.11-.6-.11c-.47,0-.84.14-1.11.41-.27.27-.44.65-.51,1.14h3.05Z"/><path class="cls-1" d="M240.33,48.72c-.44,0-.78-.12-1.01-.37-.24-.25-.36-.6-.36-1.06v-3.41h-.67c-.06,0-.11-.02-.15-.05-.04-.03-.06-.09-.06-.16v-.39l.91-.12.23-1.72c.01-.05.04-.1.07-.13.04-.03.09-.05.15-.05h.5v1.92h1.61v.71h-1.61v3.34c0,.24.06.41.17.52s.26.17.44.17c.1,0,.19-.01.27-.04.08-.03.14-.06.2-.09.05-.03.1-.06.14-.09.04-.03.07-.04.1-.04.05,0,.1.03.14.09l.29.47c-.17.16-.37.28-.61.37s-.48.13-.74.13Z"/><path class="cls-1" d="M247.05,47.85c-.12.15-.27.27-.43.38-.17.11-.35.2-.54.27s-.39.12-.6.16c-.21.04-.41.05-.61.05-.39,0-.74-.07-1.06-.2s-.61-.32-.84-.57-.42-.56-.55-.93c-.13-.37-.2-.8-.2-1.28,0-.39.06-.75.18-1.09.12-.34.29-.63.51-.88.22-.25.5-.44.82-.58.32-.14.69-.21,1.09-.21.33,0,.64.06.93.17.28.11.53.27.74.48s.37.47.49.78c.12.31.18.66.18,1.06,0,.15-.02.26-.05.31-.03.05-.1.08-.19.08h-3.72c.01.35.06.66.15.92.09.26.21.48.36.65.15.17.34.3.55.39s.45.13.71.13c.25,0,.46-.03.64-.08s.33-.12.46-.18c.13-.07.24-.13.32-.18.09-.06.16-.09.22-.09.08,0,.14.03.19.09l.28.36ZM246.26,45.23c0-.23-.03-.44-.1-.62-.06-.19-.16-.35-.28-.49-.12-.14-.27-.24-.45-.32s-.38-.11-.6-.11c-.47,0-.84.14-1.11.41-.27.27-.44.65-.51,1.14h3.05Z"/><path class="cls-1" d="M248.33,48.02c0-.09.02-.18.05-.27.04-.08.08-.16.15-.22.06-.06.13-.11.22-.15.08-.04.17-.05.27-.05s.18.02.27.05c.08.04.15.09.22.15s.11.14.15.22c.04.08.06.17.06.27,0,.1-.02.19-.06.27-.04.08-.09.16-.15.22s-.13.11-.22.15c-.08.04-.17.05-.27.05-.1,0-.19-.02-.27-.05-.08-.04-.16-.08-.22-.15-.06-.06-.11-.13-.15-.22-.03-.08-.05-.17-.05-.27ZM249.5,40.75v3.15c0,.17,0,.33-.01.48,0,.16-.02.32-.03.48-.01.16-.02.32-.04.49s-.04.35-.06.54h-.66c-.02-.19-.04-.37-.06-.54-.02-.17-.03-.33-.04-.49-.01-.16-.02-.32-.03-.48,0-.16-.01-.32-.01-.48v-3.15h.93Z"/></g></svg>
