<?xml version="1.0" encoding="UTF-8"?>
<svg id="Layer_1" data-name="Layer 1" xmlns="http://www.w3.org/2000/svg" version="1.1" viewBox="0 0 500 154">
  <defs>
    <style>
      .cls-1 {
        fill: #1ebcc5;
        stroke-width: 0px;
      }
    </style>
  </defs>
  <polygon class="cls-1" points="203.7 12.9 203.7 12.9 175.6 12.9 175.6 154 203.7 154 203.7 12.9"/>
  <polygon class="cls-1" points="0 12.9 0 154 28.1 154 28.1 12.9 28.1 12.9 0 12.9"/>
  <polygon class="cls-1" points="129.8 12.9 37.4 154 68.8 154 161.5 12.9 129.8 12.9"/>
  <g>
    <polygon class="cls-1" points="263.1 102.1 263.1 80.4 255.8 94.5 250.8 94.5 243.5 80.4 243.5 102.1 236.1 102.1 236.1 64.9 243.4 64.9 253.3 85 263.2 64.9 270.5 64.9 270.5 102.1 263.1 102.1"/>
    <path class="cls-1" d="M296.9,73c-1.1-1.2-2.7-2-4.7-2s-3.7.8-4.8,2c-1.4,1.6-1.8,3.3-1.8,10.5s.4,8.9,1.8,10.5c1.1,1.2,2.8,2,4.8,2s3.7-.8,4.7-2c1.4-1.6,1.9-3.3,1.9-10.5s-.4-8.9-1.9-10.5M302.4,98.4c-2.7,2.6-5.9,4.1-10.3,4.1s-7.6-1.5-10.3-4.1c-3.8-3.8-3.7-8.4-3.7-14.9s-.1-11.1,3.7-14.9c2.7-2.6,6-4.1,10.3-4.1s7.6,1.5,10.3,4.1c3.8,3.8,3.8,8.4,3.8,14.9s0,11.1-3.8,14.9"/>
    <path class="cls-1" d="M328.2,71.4h-7v9.8h7c3.3,0,5.4-2,5.4-4.9s-2.1-4.9-5.4-4.9M334,102.1l-7.4-14.9h-5.3v14.9h-7.4v-37.2h14.9c7.7,0,12.3,5.2,12.3,11.4s-3.3,8.5-6.9,9.8l8.5,16h-8.6Z"/>
    <path class="cls-1" d="M361.5,75.9l-4.8,13.6h9.5l-4.6-13.6ZM370.4,102.1l-2.2-6.6h-13.5l-2.3,6.6h-7.8l13.8-37.2h5.8l13.9,37.2h-7.8Z"/>
    <polygon class="cls-1" points="394.8 102.1 389.2 102.1 376.7 64.9 384.4 64.9 392 89.2 399.7 64.9 407.4 64.9 394.8 102.1"/>
    <rect class="cls-1" x="412" y="64.9" width="7.4" height="37.2"/>
    <path class="cls-1" d="M441.1,75.9l-4.8,13.6h9.4l-4.6-13.6ZM449.9,102.1l-2.2-6.6h-13.5l-2.3,6.6h-7.7l13.8-37.2h5.8l13.9,37.2h-7.8Z"/>
    <polygon class="cls-1" points="484.9 102.1 469.8 79.3 469.8 102.1 462.4 102.1 462.4 64.9 469 64.9 484.1 87.7 484.1 64.9 491.5 64.9 491.5 102.1 484.9 102.1"/>
    <polygon class="cls-1" points="236.1 116.8 236.1 154 260.8 154 260.8 147.5 243.5 147.5 243.5 116.8 236.1 116.8"/>
    <rect class="cls-1" x="266.8" y="116.8" width="7.4" height="37.2"/>
    <path class="cls-1" d="M298.3,138.4h-7.7v9.2h7.7c3.4,0,5-2.1,5-4.6s-1.6-4.6-5-4.6M297.8,123.2h-7.3v8.6h7.3c3.1,0,4.9-1.7,4.9-4.3s-1.8-4.3-4.9-4.3M299,154h-15.9v-37.2h15.3c7.4,0,11.8,4.1,11.8,10.5s-2.8,6.8-4.7,7.7c2.3,1,5.2,3.4,5.2,8.4s-4.9,10.7-11.6,10.7"/>
    <path class="cls-1" d="M332.7,123.2h-7v9.8h7c3.3,0,5.4-2,5.4-4.9s-2.1-4.9-5.4-4.9M338.4,154l-7.4-14.9h-5.3v14.9h-7.4v-37.2h14.9c7.7,0,12.3,5.2,12.3,11.4s-3.3,8.5-6.9,9.8l8.5,16.1h-8.6Z"/>
    <path class="cls-1" d="M365.9,127.7l4.6,13.5h-9.5l4.8-13.5ZM362.8,116.8l-13.8,37.2h7.7l2.3-6.6h13.5l2.2,6.6h7.7l-13.9-37.2h-5.8Z"/>
    <path class="cls-1" d="M401.7,123.2h-7v9.8h7c3.3,0,5.4-2,5.4-4.9s-2.1-4.9-5.4-4.9M407.4,154l-7.4-14.9h-5.3v14.9h-7.4v-37.2h14.9c7.8,0,12.3,5.2,12.3,11.4s-3.3,8.5-6.9,9.8l8.5,16.1h-8.6Z"/>
    <polygon class="cls-1" points="440.1 116.8 433.1 131.8 426 116.8 417.9 116.8 429.4 138.7 429.4 154 436.7 154 436.7 138.7 448.2 116.8 440.1 116.8"/>
  </g>
</svg>