<?xml version="1.0" encoding="UTF-8"?>
<svg id="knihovny.cz" data-name="knihovny.cz" xmlns="http://www.w3.org/2000/svg" viewBox="0 0 250 44">
  <defs>
    <style>
      .cls-1 {
        fill: #e5004b;
        stroke-width: 0px;
      }
    </style>
  </defs>
  <polygon class="cls-1" points="32.42 10.41 24.43 22.25 32.44 33.99 38.13 33.99 30.2 22.25 38.13 10.41 32.42 10.41"/>
  <polygon class="cls-1" points="20.26 .46 14.28 13.3 .05 12.6 2.99 17.49 17.25 18.24 23.19 5.33 20.26 .46"/>
  <polygon class="cls-1" points="2.91 27 0 31.89 14.15 31.08 20.27 43.95 23.19 39.04 17.09 26.13 2.91 27"/>
  <path class="cls-1" d="M64.5,33.56l-5.8-10.27-2.92,3.48v6.79h-4.41V11h4.41v9.83l8-9.83h5.32l-7.49,9,8,13.61-5.11-.05Z"/>
  <path class="cls-1" d="M86,33.56l-8.91-13.86v13.86h-4.41V11h3.93l8.94,13.83v-13.83h4.45v22.56h-4Z"/>
  <path class="cls-1" d="M95.45,33.56V11h4.41v22.56h-4.41Z"/>
  <path class="cls-1" d="M117.39,33.56v-9.45h-7.64v9.45h-4.41V11h4.41v9.23h7.64v-9.23h4.41v22.56h-4.41Z"/>
  <path class="cls-1" d="M141,31.28c-3.4,3.29-8.8,3.29-12.2,0-2.29-2.28-2.22-5.11-2.22-9s-.07-6.72,2.22-9c3.39-3.31,8.81-3.31,12.2,0,2.28,2.28,2.25,5.1,2.25,9s-.02,6.72-2.25,9ZM137.73,15.93c-.72-.8-1.75-1.24-2.82-1.21-1.1-.05-2.17.4-2.91,1.21-.86.95-1.08,2-1.08,6.34s.22,5.39,1.08,6.34c.73.8,1.77,1.24,2.85,1.21,1.07.03,2.1-.41,2.82-1.21.86-.95,1.12-2,1.12-6.34s-.25-5.39-1.11-6.34h.05Z"/>
  <path class="cls-1" d="M155.82,33.56h-3.3l-7.45-22.56h4.57l4.53,14.71,4.53-14.71h4.6l-7.48,22.56Z"/>
  <path class="cls-1" d="M179.6,33.56l-8.94-13.86v13.86h-4.41V11h3.93l8.94,13.83v-13.83h4.41v22.56h-3.93Z"/>
  <path class="cls-1" d="M197.65,24.3v9.26h-4.38v-9.26l-6.79-13.3h4.79l4.22,9.1,4.15-9.1h4.79l-6.78,13.3Z"/>
  <path class="cls-1" d="M206.9,33.56v-4.69h4.73v4.69h-4.73Z"/>
  <path class="cls-1" d="M224.19,33.75c-2.28.05-4.49-.84-6.09-2.47-.94-.92-1.58-2.11-1.84-3.4-.3-1.85-.42-3.73-.38-5.61-.04-1.88.08-3.76.38-5.62.25-1.29.89-2.48,1.84-3.39,1.6-1.63,3.81-2.52,6.09-2.47,4.34,0,7.54,2.53,8.3,7.13h-4.49c-.26-1.88-1.9-3.26-3.8-3.2-1.07-.07-2.11.37-2.82,1.17-.92,1-1.12,2-1.12,6.38s.2,5.39,1.12,6.37c.71.81,1.75,1.24,2.82,1.18,1.9.06,3.54-1.33,3.8-3.21h4.47c-.45,4.19-4.07,7.31-8.28,7.14Z"/>
  <path class="cls-1" d="M235.16,33.56v-3.56l9.64-15.09h-9.23v-3.91h14.43v3.49l-9.67,15.16h9.67v3.93l-14.84-.02Z"/>
</svg>
