<?xml version="1.0" encoding="UTF-8"?>
<svg id="Layer_1" xmlns="http://www.w3.org/2000/svg" version="1.1" xmlns:xlink="http://www.w3.org/1999/xlink" viewBox="0 0 237 40">
  <defs>
    <style>
      .st0 {
        fill: #fff;
      }

      .st1 {
        fill: none;
      }

      .st2 {
        clip-path: url(#clippath);
      }
    </style>
    <clipPath id="clippath">
      <rect class="st1" x="0" width="57" height="40"/>
    </clipPath>
  </defs>
  <g class="st2">
    <g>
      <path class="st0" d="M0,0v5.1c1.1,1.3,2.3,2.8,3.7,4.6,1.5,1.9,3,4,4.6,6.1,1.6,2.1,3.1,4.2,4.5,6.3,1.5,2.1,2.8,4,3.8,5.7V7.7c0-.7-.3-1.1-.8-1.2-.5-.2-1.6-.3-2.3-.3s-.3,0-.4-.2c0-.2-.1-.3-.1-.5s0-.4.1-.5c0-.1.2-.2.4-.2.3,0,1.1,0,1.8,0,.5,0,1.2,0,1.9,0h.4c.9,0,1.6,0,2.2,0,.6,0,1.5,0,1.8,0s.3,0,.4.2c0,.1.1.3.1.5s0,.3-.1.5c0,.2-.2.2-.4.2-.7,0-1.8.1-2.3.3-.5.2-.8.6-.8,1.2v27.2c0,.2-.1.4-.3.5-.2,0-.4.1-.6.1s-.4,0-.6,0c-.2,0-.3-.1-.4-.3-.6-.9-1.4-2.1-2.5-3.6-1-1.5-2.2-3.1-3.4-4.9-1.3-1.8-2.5-3.5-3.9-5.4-1.3-1.8-2.6-3.6-3.8-5.2C1.9,14.5.9,13.3,0,12.1v27.9h27.6V0H0Z"/>
      <path class="st0" d="M30.5,0v19.1c1.8-.2,3.3-.6,4.7-1.4,1.6-.8,2.9-1.8,3.9-2.9,1-1.2,1.8-2.4,2.4-3.7.5-1.3.8-2.5.8-3.6s-.2-.8-.6-1.1c-.4-.3-1-.4-1.6-.4s-.5-.2-.5-.6,0-.3.1-.5c0-.1.2-.2.4-.2.3,0,.9,0,1.7,0,.8,0,1.9,0,3.4,0s2.6,0,3.5,0c.8,0,1.4,0,1.7,0s.5.2.5.6,0,.3-.1.5c0,.1-.2.2-.4.2-.8,0-1.5.1-2,.4-.5.2-.9.8-1.1,1.6-.5,1.7-1.3,3.2-2.3,4.5s-2.1,2.5-3.3,3.4c-1.2,1-2.4,1.7-3.7,2.3-1.3.6-2.5,1-3.6,1.2,1.7.3,3.3.8,4.7,1.6s2.6,1.7,3.7,2.9c1.1,1.1,2,2.4,2.8,3.8.8,1.4,1.4,2.9,1.9,4.5.3.8.6,1.3,1.1,1.6.5.2,1.2.4,2,.4s.3,0,.4.2c0,.1.1.3.1.5,0,.4-.2.6-.5.6s-.9,0-1.8,0c-.9,0-2.1,0-3.5,0s-2.6,0-3.4,0c-.8,0-1.4,0-1.7,0s-.3,0-.4-.2c0-.1-.1-.3-.1-.5,0-.4.2-.6.5-.6.7,0,1.2-.1,1.6-.4.4-.3.6-.7.6-1.1s-.1-1.2-.4-2c-.2-.8-.6-1.6-1.1-2.5-.5-.9-1.1-1.8-1.8-2.6-.7-.9-1.6-1.7-2.5-2.4-.9-.7-2-1.3-3.1-1.8-1.1-.5-2-.6-3-.7v19.6h27.6V0h-27.6Z"/>
    </g>
  </g>
  <g>
    <path class="st0" d="M79,7.2v8c0,.4.7.6,1.2.6s.2.1.2.2,0,.2-.2.2c-.2,0-1.1,0-1.7,0s-1.2,0-1.4,0-.2-.1-.2-.2,0-.2.2-.2c.6,0,1-.2,1-.6V6.1c0-.3-.4-.5-1-.5s-.2-.1-.2-.3,0-.3.2-.3c.2,0,2.1,0,3.1,0,1.5,1.9,4.1,5.3,5.6,7.7v-6.5c0-.5-.6-.7-1.2-.7s-.2-.1-.2-.3,0-.3.2-.3c.2,0,.8,0,1.6,0s1.2,0,1.4,0,.2.1.2.3,0,.3-.2.3c-.6,0-1,.1-1,.6v9.9c0,.1-.2.2-.6.2s-.4,0-.5-.1c-1.2-1.9-5.1-7.2-6.6-9Z"/>
    <path class="st0" d="M96.5,15.2c0,.3.4.5,1,.5s.2,0,.2.2,0,.2-.2.2c-.2,0-1.2,0-2.7,0s-.3-.3-.3-.8c-.4.6-1.1,1-2.2,1-1.8,0-3.5-1.5-3.5-4s1.8-3.9,3.5-3.9,1.9.4,2.3,1c.9-.5,1.4-1.1,1.7-1.1s.3,0,.3.4v6.5ZM94.5,10.8c0-1.1-.7-1.8-1.6-1.8s-1.9,1.2-1.9,2.9c0,2.4.7,3.7,2,3.7s1.6-.5,1.6-1.9v-2.9Z"/>
    <path class="st0" d="M99.3,14v-4.7c-.5,0-.9,0-1.1,0s-.2-.1-.2-.3,0-.3.2-.3c1.5,0,2.5-.8,2.5-2.6s.1-.2.3-.2.3,0,.3.2v2.6c.8,0,2.2,0,2.3,0s.2.2.2.3,0,.3-.2.3-1.5,0-2.3,0v5.2c0,.8.3,1.1.8,1.1s1-.4,1.3-.9c0-.2.2-.2.4-.2s.3.2.2.3c-.4.8-1.2,1.6-2.5,1.6s-2.2-.6-2.2-2.4Z"/>
    <path class="st0" d="M107.4,12.9v2.4c0,.3.4.5,1,.5s.2.1.2.2,0,.2-.2.2c-.2,0-1,0-2,0s-1.8,0-2,0-.2-.1-.2-.2,0-.2.2-.2c.6,0,1-.2,1-.5v-5.6c0-.3-.4-.5-1-.5s-.2-.1-.2-.2,0-.2.2-.2c.2,0,1.3,0,2.8,0s.3.1.3.3c0,.4,0,1.1,0,3.8ZM107.6,6.1c0,.7-.5,1.2-1.2,1.2s-1.2-.5-1.2-1.2.5-1.2,1.2-1.2,1.2.5,1.2,1.2Z"/>
    <path class="st0" d="M117.3,12.4c0,2.4-1.7,3.9-4,3.9s-4-1.6-4-3.9,1.7-3.9,4-3.9,4,1.6,4,3.9ZM111.4,12.4c0,2,.6,3.4,1.8,3.4s1.8-1.4,1.8-3.4-.6-3.4-1.8-3.4-1.8,1.3-1.8,3.4Z"/>
    <path class="st0" d="M121.1,15.2c0,.3.4.5,1,.5s.2.1.2.2,0,.2-.2.2c-.2,0-.9,0-2,0s-1.8,0-2,0-.2-.1-.2-.2,0-.2.2-.2c.6,0,1-.2,1-.5v-5.6c0-.3-.4-.5-1-.5s-.2-.1-.2-.2,0-.2.2-.2c.2,0,1.2,0,2.7,0s.3.1.3.3c0,.2,0,.5,0,.7.6-.7,1.4-1.3,2.7-1.3s2.7.7,2.7,2.4v4.3c0,.3.4.5,1,.5s.2.1.2.2,0,.2-.2.2c-.2,0-1,0-2,0s-1.8,0-2,0-.2-.1-.2-.2,0-.2.2-.2c.6,0,1-.2,1-.5v-4c0-1.2-.3-1.9-1.4-1.9s-2,.7-2,2.1v3.8Z"/>
    <path class="st0" d="M131.2,16.3c-1.7,0-2.8-1-2.8-2.5s1.2-2.6,2.8-2.6,1.9.5,2.3.9v-1c0-1.4-.7-2.1-1.7-2.1s-1,.2-1.2.4c.1.1.2.4.2.6,0,.6-.5.9-1.1.9s-.9-.3-.9-.8c0-.9,1.2-1.7,3.1-1.7s3.6.9,3.6,2.9v3.9c0,.3.4.5,1,.5s.2.1.2.2,0,.2-.2.2c-.2,0-.9,0-2.4,0s-.5-.3-.5-.9c-.6.8-1.2,1-2.4,1ZM130.6,13.7c0,1.3.6,2,1.3,2s1.7-.7,1.7-1.9-.6-1.9-1.8-1.9-1.2.5-1.2,1.8Z"/>
    <path class="st0" d="M140.3,9.2v6c0,.3.4.5,1,.5s.2.1.2.2,0,.2-.2.2c-.2,0-1,0-2,0s-1.8,0-2,0-.2-.1-.2-.2,0-.2.2-.2c.6,0,1-.2,1-.5V6c0-.3-.4-.5-1-.5s-.2-.1-.2-.3,0-.2.2-.2c.4,0,1.3,0,2.8,0s.3.1.3.3c0,.4,0,1.1,0,3.7Z"/>
    <path class="st0" d="M149.9,15.5c1.5,0,2.4,0,2.8-.3.4-.3,1.1-1.1,1.3-1.9,0-.2.2-.2.3-.2.3,0,.4,0,.4.2s0,0,0,.1c-.3.7-.5,1.7-.7,2.4,0,.2-.1.3-.4.3h-5.6c-.9,0-1.9,0-2.1,0s-.2-.1-.2-.2,0-.2.2-.2c.6,0,1-.2,1-.5V6.1c0-.3-.4-.5-1-.5s-.2-.1-.2-.3,0-.3.2-.3c.2,0,1,0,2.1,0s2,0,2.2,0,.2.1.2.3,0,.3-.2.3c-.6,0-1.1.1-1.1.5v8.6c0,.6.1.8.8.8Z"/>
    <path class="st0" d="M157.8,12.9v2.4c0,.3.4.5,1,.5s.2.1.2.2,0,.2-.2.2c-.2,0-1,0-2,0s-1.8,0-2,0-.2-.1-.2-.2,0-.2.2-.2c.6,0,1-.2,1-.5v-5.6c0-.3-.4-.5-1-.5s-.2-.1-.2-.2,0-.2.2-.2c.2,0,1.3,0,2.8,0s.3.1.3.3c0,.4,0,1.1,0,3.8ZM158,6.1c0,.7-.5,1.2-1.2,1.2s-1.2-.5-1.2-1.2.5-1.2,1.2-1.2,1.2.5,1.2,1.2Z"/>
    <path class="st0" d="M164.9,8.4c2,0,3.5,1.7,3.5,3.9s-1.7,4-3.5,4-1.8-.4-2.2-1c0,.5-.1.8-.3.8-1.5,0-2.5,0-2.7,0s-.2-.1-.2-.2,0-.2.2-.2c.6,0,1-.2,1-.5V6c0-.3-.4-.5-1-.5s-.2-.1-.2-.3,0-.2.2-.2c.4,0,1.2,0,2.8,0s.3.1.3.3c0,.4,0,1.4,0,3.9.4-.6,1.2-.9,2.2-.9ZM164.3,15.6c1.3,0,1.9-1.3,1.9-3.3s-.7-3.3-1.9-3.3-1.6.6-1.6,1.7v2.9c0,1.4.8,1.9,1.6,1.9Z"/>
    <path class="st0" d="M175.5,10.7c0,.1-.2.2-.2.2s-.2,0-.2-.1c-.2-.4-.6-.8-1.3-.8s-1.5.6-1.5,2.1v3.2c0,.3.5.5,1.5.5s.2.1.2.2,0,.2-.2.2c-.2,0-1.4,0-2.4,0s-1.8,0-2.1,0-.2-.1-.2-.2,0-.2.2-.2c.6,0,1-.2,1-.5v-5.6c0-.3-.4-.5-1-.5s-.2-.1-.2-.2,0-.2.2-.2c.2,0,1.2,0,2.7,0s.3.1.3.3c0,.2,0,1,0,1.3.5-.9,1.4-1.9,2.6-1.9s1.3.4,1.3.7,0,.2,0,.3l-.6,1.2Z"/>
    <path class="st0" d="M179.1,16.3c-1.7,0-2.8-1-2.8-2.5s1.2-2.6,2.8-2.6,1.9.5,2.3.9v-1c0-1.4-.7-2.1-1.7-2.1s-1,.2-1.2.4c.1.1.2.4.2.6,0,.6-.5.9-1.1.9s-.9-.3-.9-.8c0-.9,1.2-1.7,3.1-1.7s3.6.9,3.6,2.9v3.9c0,.3.4.5,1,.5s.2.1.2.2,0,.2-.2.2c-.2,0-.9,0-2.4,0s-.5-.3-.5-.9c-.6.8-1.2,1-2.4,1ZM178.4,13.7c0,1.3.6,2,1.3,2s1.7-.7,1.7-1.9-.6-1.9-1.8-1.9-1.2.5-1.2,1.8Z"/>
    <path class="st0" d="M191.4,10.7c0,.1-.2.2-.2.2s-.2,0-.2-.1c-.2-.4-.6-.8-1.3-.8s-1.5.6-1.5,2.1v3.2c0,.3.5.5,1.5.5s.2.1.2.2,0,.2-.2.2c-.2,0-1.4,0-2.4,0s-1.8,0-2.1,0-.2-.1-.2-.2,0-.2.2-.2c.6,0,1-.2,1-.5v-5.6c0-.3-.4-.5-1-.5s-.2-.1-.2-.2,0-.2.2-.2c.2,0,1.2,0,2.7,0s.3.1.3.3c0,.2,0,1,0,1.3.5-.9,1.4-1.9,2.6-1.9s1.3.4,1.3.7,0,.2,0,.3l-.6,1.2Z"/>
    <path class="st0" d="M193.2,19.6c-.8,0-1.6-.3-1.6-1.2s.5-1,1-1,.9.3.9,1,0,.3,0,.4c0,0,.2,0,.4,0,.4,0,.9-.3,1.5-1.5l.3-.8-2.6-6c-.6-1.3-.7-1.4-1.4-1.4s-.2-.1-.2-.2,0-.2.2-.2c.2,0,.9,0,2,0s1.8,0,2,0,.2.1.2.2,0,.2-.2.2c-.5,0-.7.1-.7.5s0,.3.1.6l1.7,3.8c.7-1.4,1.2-3,1.5-3.9,0-.2,0-.4,0-.5,0-.3-.2-.5-.6-.5s-.2,0-.2-.2,0-.2.2-.2c.2,0,.8,0,1.2,0s1.1,0,1.3,0,.2,0,.2.2,0,.2-.2.2c-.8,0-.9.3-1.9,2.5l-2.4,5.7c-.7,1.7-1.7,2.1-2.7,2.1Z"/>
    <path class="st0" d="M85.1,31.4c0,2.4-1.7,3.9-4,3.9s-4-1.6-4-3.9,1.7-3.9,4-3.9,4,1.6,4,3.9ZM79.2,31.4c0,2,.6,3.4,1.8,3.4s1.8-1.4,1.8-3.4-.6-3.4-1.8-3.4-1.8,1.3-1.8,3.4Z"/>
    <path class="st0" d="M90.9,27.6c.1,0,.2.2.2.4s0,.3-.2.3-1.1,0-1.9,0v6c0,.3.6.5,1.1.5s.2.1.2.2,0,.2-.2.2c-.2,0-1.1,0-2.1,0s-1.7,0-2,0-.2-.1-.2-.2,0-.2.2-.2c.6,0,1-.2,1-.5v-6c-.6,0-.9,0-1,0s-.2-.2-.2-.3,0-.3.2-.3.5,0,1,0v-.7c0-1.9,1.4-3,3.2-3s2.5.6,2.5,1.4-.4,1.1-1.1,1.1-1-.4-1-1,.1-.6.4-.9c-.2,0-.4-.2-.7-.2-.8,0-1.3.5-1.3,1.6v1.5c.8,0,1.7,0,1.9,0Z"/>
    <path class="st0" d="M96.1,32.9v-4.7c-.5,0-.9,0-1.1,0s-.2-.1-.2-.3,0-.3.2-.3c1.5,0,2.5-.8,2.5-2.6s.1-.2.3-.2.3,0,.3.2v2.6c.8,0,2.2,0,2.3,0s.2.2.2.3,0,.3-.2.3-1.5,0-2.3,0v5.2c0,.8.3,1.1.8,1.1s1-.4,1.3-.9c0-.2.2-.2.4-.2s.3.2.2.3c-.4.8-1.2,1.6-2.5,1.6s-2.2-.6-2.2-2.4Z"/>
    <path class="st0" d="M107,27.4c1.7,0,2.7.7,2.7,2.4v4.3c0,.3.4.5,1,.5s.2.1.2.2,0,.2-.2.2c-.2,0-1,0-2,0s-1.8,0-2,0-.2-.1-.2-.2,0-.2.2-.2c.6,0,1-.2,1-.5v-4c0-1.2-.3-1.9-1.4-1.9s-2,.7-2,2.1v3.8c0,.3.4.5,1,.5s.2.1.2.2,0,.2-.2.2c-.2,0-.9,0-2,0s-1.8,0-2,0-.2-.1-.2-.2,0-.2.2-.2c.6,0,1-.2,1-.5v-9.2c0-.3-.4-.5-1-.5s-.2-.1-.2-.3,0-.2.2-.2c.4,0,1.2,0,2.8,0s.3.1.3.3c0,.4,0,1.1,0,3.7v.6c.6-.7,1.4-1.3,2.7-1.3Z"/>
    <path class="st0" d="M113.6,31.3c0,2.5.9,3.3,2,3.3s1.8-.5,2.2-1.4c0-.2.2-.2.4-.2s.3.1.2.3c-.4,1-1.4,2-3.3,2s-3.8-1.5-3.8-3.9,1.7-4,3.9-4,3.3,1.7,3.3,3.5c-.2,0-1.1.2-3,.2s-1.2,0-1.9,0c0,0,0,.2,0,.3ZM116.6,30.4c0-1.8-.5-2.4-1.4-2.4s-1.5.6-1.6,2.4h3Z"/>
    <path class="st0" d="M128.4,35.3c-3.4,0-5.2-2.8-5.2-5.7s1.9-5.7,5.3-5.7,2.3.6,2.9,1.3c.2,0,.3-.4.3-.9s.1-.3.3-.3.3,0,.3.3c0,1.2,0,2.2.2,3.1,0,0,0,.1,0,.2,0,.2-.1.2-.3.2s-.4,0-.4-.3c-.6-2-1.6-3-3.2-3s-3.1,2.5-3.1,5,1,5,3.4,5,2.9-1.3,3.3-2.6c0-.2.2-.3.4-.3s.4.1.3.4c-.5,1.5-1.7,3.3-4.5,3.3Z"/>
    <path class="st0" d="M138.9,34.5c.9,0,1.2-.4,1.8-2,.1-.2.6-.3.5.1-.2.8-.4,1.8-.4,2.1,0,.2-.2.3-.6.3h-6.2c-.2,0-.3-.1-.3-.3s0-.2.1-.3l4.6-6.2h-2.6c-.7,0-1.1.5-1.6,1.8,0,.2-.2.2-.4.2s-.3,0-.2-.3c.2-.6.5-1.7.6-2.4,0-.2,0-.2.2-.2.3,0,.3.3,1.1.3h5.1c.2,0,.3.1.3.3s0,.2-.1.3l-4.5,6.2h2.6Z"/>
    <path class="st0" d="M144.3,31.3c0,2.5.9,3.3,2,3.3s1.8-.5,2.2-1.4c0-.2.2-.2.4-.2s.3.1.2.3c-.4,1-1.4,2-3.3,2s-3.8-1.5-3.8-3.9,1.7-4,3.9-4,3.3,1.7,3.3,3.5c-.2,0-1.1.2-3,.2s-1.2,0-1.9,0c0,0,0,.2,0,.3ZM147.3,30.4c0-1.8-.5-2.4-1.4-2.4s-1.5.6-1.6,2.4h3Z"/>
    <path class="st0" d="M153.9,35.3c-2.1,0-3.9-1.5-3.9-3.9s1.7-4,3.7-4,1.7.3,2.2.8c.2-.2.2-.3.3-.5,0,0,.1,0,.2,0,.1,0,.2,0,.2.2,0,.6.1,1.5.4,2.3,0,0,0,.1,0,.1,0,.1-.1.2-.2.2s-.3,0-.4-.2c-.5-1.3-1.4-2.2-2.4-2.2s-1.8,1.3-1.8,3.2.8,3.4,2,3.4,1.6-.5,2.2-1.5c0-.2.2-.2.4-.2s.3.1.2.3c-.3.7-1.1,2.1-3.2,2.1Z"/>
    <path class="st0" d="M163.6,27.4c1.7,0,2.7.7,2.7,2.4v4.3c0,.3.4.5,1,.5s.2.1.2.2,0,.2-.2.2c-.2,0-1,0-2,0s-1.8,0-2,0-.2-.1-.2-.2,0-.2.2-.2c.6,0,1-.2,1-.5v-4c0-1.2-.3-1.9-1.4-1.9s-2,.7-2,2.1v3.8c0,.3.4.5,1,.5s.2.1.2.2,0,.2-.2.2c-.2,0-.9,0-2,0s-1.8,0-2,0-.2-.1-.2-.2,0-.2.2-.2c.6,0,1-.2,1-.5v-9.2c0-.3-.4-.5-1-.5s-.2-.1-.2-.3,0-.2.2-.2c.4,0,1.2,0,2.8,0s.3.1.3.3c0,.4,0,1.1,0,3.7v.6c.6-.7,1.4-1.3,2.7-1.3Z"/>
    <path class="st0" d="M180.5,32.5c1.5,2.1,2.1,2.2,2.6,2.2s.2.1.2.2,0,.2-.2.2c-.2,0-1.4,0-2.3,0s-2.4,0-2.5,0-.2-.1-.2-.2,0-.2.2-.2c.9,0,1.1-.2.7-.9l-2.3-3.4c-.2-.3-.4-.5-1-.5h-.6v4.3c0,.3.4.5.9.5s.2.1.2.2,0,.2-.2.2c-.2,0-1,0-2,0s-1.8,0-2,0-.2-.1-.2-.2,0-.2.2-.2c.6,0,1-.2,1-.5v-9.2c0-.3-.4-.5-1-.5s-.2-.1-.2-.3,0-.3.2-.3c.2,0,1,0,1.7,0s2.3-.2,3.6-.2c2.7,0,3.8,1.3,3.8,2.8s-1,2.4-2.6,2.7c.7,1,1.5,2.1,2.1,3ZM178.7,27c0-1.4-.7-2.5-2.3-2.5s-1.3.2-1.3.5v4.3h1.2c1.6,0,2.4-.8,2.4-2.3Z"/>
    <path class="st0" d="M185.2,31.3c0,2.5.9,3.3,2,3.3s1.8-.5,2.2-1.4c0-.2.2-.2.4-.2s.3.1.2.3c-.4,1-1.4,2-3.3,2s-3.8-1.5-3.8-3.9,1.7-4,3.9-4,3.3,1.7,3.3,3.5c-.2,0-1.1.2-3,.2s-1.2,0-1.9,0c0,0,0,.2,0,.3ZM188.2,30.4c0-1.8-.5-2.4-1.4-2.4s-1.5.6-1.6,2.4h3Z"/>
    <path class="st0" d="M191.9,28.6c0-.3-.4-.5-1-.5s-.2,0-.2-.2,0-.2.2-.2c.2,0,1.2,0,2.7,0s.3.3.3.8c.4-.6,1.1-1.1,2.2-1.1,1.9,0,3.5,1.6,3.5,4s-1.8,3.9-3.5,3.9-1.8-.3-2.2-.9v3c0,.3.6.5,1.2.5s.2.1.2.2,0,.2-.2.2c-.2,0-1.2,0-2.2,0s-1.8,0-2,0-.2-.1-.2-.2,0-.2.2-.2c.6,0,1-.2,1-.5v-8.9ZM193.9,33c0,1.1.7,1.7,1.6,1.7s1.9-1.2,1.9-2.9-.6-3.6-2-3.6-1.6.6-1.6,1.9v2.9Z"/>
    <path class="st0" d="M208.8,34.2c0,.3.4.5,1,.5s.2.1.2.2,0,.2-.2.2c-.2,0-1.2,0-2.7,0s-.3-.1-.3-.3c0-.2,0-.6,0-.9-.5.7-1.4,1.4-2.8,1.4s-2.6-.7-2.6-2.4v-4.3c0-.3-.4-.5-1-.5s-.2-.1-.2-.2,0-.2.2-.2c.2,0,1.1,0,2.8,0s.3.1.3.3c0,.4,0,1,0,2.8v1.8c0,1.2.3,1.8,1.3,1.8s2-.8,2-2.2v-3.6c0-.3-.4-.5-1-.5s-.2-.1-.2-.2,0-.2.2-.2c.2,0,1.6,0,2.8,0s.3.1.3.3c0,.4,0,1,0,2.9v3.3Z"/>
    <path class="st0" d="M215.9,27.4c2,0,3.5,1.7,3.5,3.9s-1.7,4-3.5,4-1.8-.4-2.2-1c0,.5-.1.8-.3.8-1.5,0-2.5,0-2.7,0s-.2-.1-.2-.2,0-.2.2-.2c.6,0,1-.2,1-.5v-9.2c0-.3-.4-.5-1-.5s-.2-.1-.2-.3,0-.2.2-.2c.4,0,1.2,0,2.8,0s.3.1.3.3c0,.4,0,1.4,0,3.9.4-.6,1.2-.9,2.2-.9ZM215.3,34.6c1.3,0,1.9-1.3,1.9-3.3s-.7-3.3-1.9-3.3-1.6.6-1.6,1.7v2.9c0,1.4.8,1.9,1.6,1.9Z"/>
    <path class="st0" d="M223.3,28.1v6c0,.3.4.5,1,.5s.2.1.2.2,0,.2-.2.2c-.2,0-1,0-2,0s-1.8,0-2,0-.2-.1-.2-.2,0-.2.2-.2c.6,0,1-.2,1-.5v-9.2c0-.3-.4-.5-1-.5s-.2-.1-.2-.3,0-.2.2-.2c.4,0,1.3,0,2.8,0s.3.1.3.3c0,.4,0,1.1,0,3.7Z"/>
    <path class="st0" d="M228.1,31.8v2.4c0,.3.4.5,1,.5s.2.1.2.2,0,.2-.2.2c-.2,0-1,0-2,0s-1.8,0-2,0-.2-.1-.2-.2,0-.2.2-.2c.6,0,1-.2,1-.5v-5.6c0-.3-.4-.5-1-.5s-.2-.1-.2-.2,0-.2.2-.2c.2,0,1.3,0,2.8,0s.3.1.3.3c0,.4,0,1.1,0,3.8ZM228.3,25.1c0,.7-.5,1.2-1.2,1.2s-1.2-.5-1.2-1.2.5-1.2,1.2-1.2,1.2.5,1.2,1.2Z"/>
    <path class="st0" d="M233.8,35.3c-2.1,0-3.9-1.5-3.9-3.9s1.7-4,3.7-4,1.7.3,2.2.8c.2-.2.2-.3.3-.5,0,0,.1,0,.2,0,.1,0,.2,0,.2.2,0,.6.1,1.5.4,2.3,0,0,0,.1,0,.1,0,.1-.1.2-.2.2s-.3,0-.4-.2c-.5-1.3-1.4-2.2-2.4-2.2s-1.8,1.3-1.8,3.2.8,3.4,2,3.4,1.6-.5,2.2-1.5c0-.2.2-.2.4-.2s.3.1.2.3c-.3.7-1.1,2.1-3.2,2.1Z"/>
  </g>
</svg>
