<?xml version="1.0" encoding="utf-8"?>
<svg id="logo-mkcr" data-name="logo-mkcr" xmlns="http://www.w3.org/2000/svg" viewBox="0 0 234.86 72.28">
  <defs>
    <style>.cls-1{fill:#9fa1a4;}.cls-2{fill:none;}.cls-3{fill:#0076c0;}.cls-4{fill:#ffd200;}.cls-5{fill:#44c8f5;}.cls-6{fill:#e31b23;}.cls-7{fill:#fff;}</style>
  </defs>
  <path class="cls-1" d="M86.7,16.85h4.71L94.9,28h0l3.49-11.12h4.71V31.53h-2.81V19.41h0l-4,12.12H93.51l-4-12.12,0,.05V31.53H86.7Z"/>
  <path class="cls-1" d="M107.63,16.85h3V31.53h-3Z"/>
  <path class="cls-1" d="M115.08,16.85h3.62l5.59,11h0v-11h2.82V31.53h-3.59l-5.62-11h0v11h-2.82Z"/>
  <path class="cls-1" d="M131.86,16.85h2.94V31.53h-2.94Z"/>
  <path class="cls-1" d="M147,19.54a7.55,7.55,0,0,0-3-.63,2,2,0,0,0-2.32,2c0,2.55,6.44,1.47,6.44,6.39,0,3.22-2.54,4.44-5.51,4.44a12.81,12.81,0,0,1-3.76-.57l.27-2.65a7,7,0,0,0,3.32.91c1.11,0,2.61-.57,2.61-1.89,0-2.8-6.44-1.64-6.44-6.51,0-3.28,2.55-4.48,5.13-4.48a11.05,11.05,0,0,1,3.52.53Z"/>
  <path class="cls-1" d="M152.3,19.16h-4.07V16.85h11.08v2.31h-4.07V31.53H152.3Z"/>
  <path class="cls-1" d="M161.18,16.85h8.67v2.31h-5.73v3.62h5.25v2.31h-5.25v4.13h5.77v2.31h-8.71Z"/>
  <path class="cls-1" d="M173.32,16.85h3.17c3.15,0,6.92-.11,6.92,4a3.36,3.36,0,0,1-3,3.41v0c.8.06,1.26.86,1.56,1.52l2.35,5.74H181L179.24,27c-.42-1.1-.79-1.52-2-1.52h-.94v6.1h-2.94Zm2.94,6.27h1c1.45,0,3.11-.21,3.11-2.05s-1.64-1.91-3.11-1.91h-1Z"/>
  <path class="cls-1" d="M194.59,19.54a7.63,7.63,0,0,0-3-.63,2,2,0,0,0-2.31,2c0,2.55,6.44,1.47,6.44,6.39,0,3.22-2.55,4.44-5.52,4.44a12.86,12.86,0,0,1-3.76-.57l.27-2.65a7.07,7.07,0,0,0,3.32.91c1.12,0,2.61-.57,2.61-1.89,0-2.8-6.43-1.64-6.43-6.51,0-3.28,2.54-4.48,5.13-4.48a11,11,0,0,1,3.51.53Z"/>
  <path class="cls-1" d="M199.92,19.16h-4.07V16.85h11.08v2.31h-4.07V31.53h-2.94Z"/>
  <path class="cls-1" d="M205.53,16.85h3.15l3.77,11.52h.05l3.72-11.52h2.92L214.2,31.53h-3.62Z"/>
  <path class="cls-1" d="M227.66,16.59c4.61,0,7.2,3.12,7.2,7.56s-2.55,7.63-7.2,7.63-7.19-3.13-7.19-7.63S223,16.59,227.66,16.59Zm0,12.88c3,0,4.13-2.67,4.13-5.32s-1.2-5.24-4.13-5.24-4.12,2.65-4.12,5.24S224.66,29.47,227.66,29.47Z"/>
  <path class="cls-1" d="M86.7,36.18h3v6.31L95,36.18h3.62l-6,6.92,6.29,7.76H95L89.69,44h0v6.82h-3Z"/>
  <path class="cls-1" d="M100.63,36.18h2.94v8.47c0,2.51.8,4.15,3.06,4.15s3-1.64,3-4.15V36.18h3v9.38c0,3.93-2.23,5.55-6,5.55s-6-1.62-6-5.55Z"/>
  <path class="cls-1" d="M116.81,36.18h2.94V48.55h5.53v2.31h-8.47Z"/>
  <path class="cls-1" d="M127.75,38.49h-4.06V36.18h11.07v2.31H130.7V50.86h-2.95Z"/>
  <path class="cls-1" d="M136.53,36.18h2.95v8.47c0,2.51.79,4.15,3,4.15s3-1.64,3-4.15V36.18h3v9.38c0,3.93-2.23,5.55-6,5.55s-6-1.62-6-5.55Z"/>
  <path class="cls-1" d="M152.57,36.18h3.18c3.15,0,6.92-.11,6.92,4a3.36,3.36,0,0,1-3,3.41v0c.8.06,1.26.86,1.55,1.52l2.36,5.74h-3.28l-1.77-4.59c-.42-1.09-.8-1.51-2-1.51h-.94v6.1h-3Zm3,6.27h1c1.45,0,3.12-.21,3.12-2.05s-1.64-1.91-3.12-1.91h-1Z"/>
  <path class="cls-1" d="M168.79,45.05l-5.36-8.87h3.45l3.48,6.16,3.53-6.16H177l-5.26,8.87v5.81h-3Z"/>
  <path class="cls-2" d="M36.14,2.43A33.72,33.72,0,0,0,2.58,33L1,32.85,2.58,33c-.1,1-.14,2.09-.14,3.14A33.71,33.71,0,0,0,67.05,49.6a33.37,33.37,0,0,0,2.8-13.46A33.71,33.71,0,0,0,36.14,2.43Z"/>
  <path class="cls-1" d="M2.44,36.14c0-1,0-2.11.14-3.14L1,32.85l-.83-.08C.05,33.88,0,35,0,36.14A36.08,36.08,0,0,0,16.24,66.31l1.34-2A33.64,33.64,0,0,1,2.44,36.14Z"/>
  <path class="cls-3" d="M36.14,69.85a33.58,33.58,0,0,1-18.56-5.57l-1.34,2A36.16,36.16,0,0,0,69.29,50.57l-2.24-1A33.71,33.71,0,0,1,36.14,69.85Z"/>
  <path class="cls-4" d="M67.92,18.91l-2.14,1.17a33.75,33.75,0,0,1,4.07,16.06,33.37,33.37,0,0,1-2.8,13.46l2.24,1a35.83,35.83,0,0,0,3-14.43A36.25,36.25,0,0,0,67.92,18.91Z"/>
  <path class="cls-5" d="M36.14,2.43A33.7,33.7,0,0,1,65.78,20.08l2.14-1.17A36.21,36.21,0,0,0,27.37,1.07L28,3.44A33.5,33.5,0,0,1,36.14,2.43Z"/>
  <path class="cls-6" d="M2.58,33A33.69,33.69,0,0,1,28,3.44l-.59-2.37A36.16,36.16,0,0,0,.15,32.77h0l.83.08Z"/>
  <path class="cls-1" d="M33.38,49.08,33,55.47a19.08,19.08,0,0,0,3.22.27,19.7,19.7,0,0,0,9.15-2.26l-3.82-7.3A11.54,11.54,0,0,1,24.64,36l.07-1.3-2.06-.24a14.7,14.7,0,0,0-.1,1.63A13.25,13.25,0,0,0,33.38,49.08Z"/>
  <path class="cls-4" d="M19.79,36.25A16.82,16.82,0,0,0,21,42.49l-3,.95a23.3,23.3,0,0,0,2.32,4.2A19.85,19.85,0,0,0,33,55.47l.43-6.39a13.25,13.25,0,0,1-10.83-13,14.7,14.7,0,0,1,.1-1.63A13.26,13.26,0,0,1,35.79,22.8V19.85A16.41,16.41,0,0,0,19.79,36.25Z"/>
  <path class="cls-3" d="M14.44,40.94A23.43,23.43,0,0,1,14,36.45,22.6,22.6,0,0,1,28.38,15.51l.78,2a19.81,19.81,0,0,1,7-1.28,20.2,20.2,0,0,1,16.29,8.4l6.07-4.29A27.39,27.39,0,0,0,8.79,36.14,27.76,27.76,0,0,0,9.42,42l3.81-.84Z"/>
  <path class="cls-7" d="M17.58,43.57a18.84,18.84,0,0,1-1.39-7.32,20,20,0,0,1,13-18.72l-.78-2A22.6,22.6,0,0,0,14,36.45a23.43,23.43,0,0,0,.42,4.49A20.5,20.5,0,0,0,18,49.07l2.55-1.15-.2-.28A23.3,23.3,0,0,1,18,43.44Z"/>
  <path class="cls-5" d="M36.2,16.25a19.81,19.81,0,0,0-7,1.28,20,20,0,0,0-13,18.72,18.84,18.84,0,0,0,1.39,7.32l.41-.13,3-.95a16.82,16.82,0,0,1-1.21-6.24,16.41,16.41,0,0,1,16-16.4h.41a16.48,16.48,0,0,1,13.33,6.84l3-2h0A20.2,20.2,0,0,0,36.2,16.25Z"/>
  <path class="cls-6" d="M20.52,47.91A19.81,19.81,0,0,0,33,55.47a19.08,19.08,0,0,0,3.22.27,19.58,19.58,0,0,0,16.1-8.41l6.39,4.45A27.4,27.4,0,0,1,9.42,42l3.81-.84,1.21-.26A20.5,20.5,0,0,0,18,49.07l2.55-1.15Z"/>
</svg>
