<?xml version="1.0" encoding="utf-8"?>
<svg version="1.1" id="Layer_1" xmlns="http://www.w3.org/2000/svg" xmlns:xlink="http://www.w3.org/1999/xlink" x="0px" y="0px"
	 viewBox="0 0 500 154" style="enable-background:new 0 0 500 154;" xml:space="preserve">
<style type="text/css">
	.st0{fill:#2EB8C5;}
</style>
<g id="Vrstva_x0020_1">
	<polygon class="st0" points="259,50 259,28 252,42 247,42 240,28 240,50 233,50 233,12 240,12 249,33 259,12 266,12 266,50 	"/>
	<path class="st0" d="M292,21c-1-2-2-2-4-2s-4,0-5,2c-2,1-2,3-2,10s0,9,2,11c1,1,3,2,5,2s3-1,4-2c2-2,2-4,2-11S294,22,292,21z
		 M298,46c-3,3-6,4-10,4c-5,0-8-1-11-4c-3-4-3-8-3-15c0-6,0-11,3-15c3-2,6-4,11-4c4,0,7,2,10,4c3,4,3,9,3,15C301,38,301,42,298,46z"
		/>
	<path class="st0" d="M323,19h-7v10h7c3,0,5-2,5-5S326,19,323,19z M329,50l-8-15h-5v15h-7V12h14c8,0,13,6,13,12c0,5-4,8-7,10l8,16
		H329z"/>
	<path class="st0" d="M356,23l-5,14h9L356,23z M364,50l-2-7h-13l-2,7h-8l14-38h5l14,38H364z"/>
	<polygon class="st0" points="388,50 383,50 371,12 378,12 386,37 393,12 401,12 	"/>
	<path class="st0" d="M416,50c-6,0-10-1-14-5l5-5c2,3,5,4,9,4s6-2,6-5c0-1,0-2-1-3s-1-1-3-1l-5-1c-3-1-5-2-7-3c-2-2-3-4-3-8
		c0-6,5-11,13-11c6,0,9,1,12,5l-4,4c-3-2-5-2-8-2c-4,0-6,2-6,4c0,1,1,2,1,3c1,1,2,1,4,1l4,1c4,0,6,1,7,3c2,2,3,5,3,8
		C429,46,423,50,416,50z"/>
	<polygon class="st0" points="458,50 448,33 444,39 444,50 436,50 436,12 444,12 444,29 457,12 466,12 453,27 466,50 	"/>
	<polygon class="st0" points="230,102 230,96 246,71 231,71 231,65 255,65 255,70 239,95 255,95 255,102 	"/>
	<polygon class="st0" points="261,102 261,65 286,65 286,71 269,71 269,80 283,80 283,86 269,86 269,95 286,95 286,102 	"/>
	<polygon class="st0" points="320,102 320,80 312,94 307,94 300,80 300,102 293,102 293,65 300,65 310,85 320,65 327,65 327,102
		"/>
	<path class="st0" d="M346,102c-6,0-10-1-14-5l5-4c2,2,5,3,9,3s7-2,7-5c0-1-1-2-2-3c0-1-1-1-3-1l-4-1c-4-1-6-2-8-3c-1-2-2-4-2-7
		c0-7,5-12,13-12c5,0,9,1,12,5l-5,4c-2-2-5-2-8-2s-5,2-5,4c0,1,0,2,1,3s2,1,3,1l5,1c3,1,5,1,7,3s3,5,3,8C360,98,354,102,346,102z"/>
	<polygon class="st0" points="388,102 379,85 374,91 374,102 367,102 367,65 374,65 374,81 387,65 396,65 383,79 397,102 	"/>
	<path class="st0" d="M415,61h-4l3-9h7L415,61z M414,76l-5,13h10L414,76z M423,102l-3-7h-13l-2,7h-8l14-37h6l13,37H423z"/>
	<polygon class="st0" points="254,154 245,137 240,143 240,154 233,154 233,117 240,117 240,133 253,117 262,117 249,131 263,154
		"/>
	<polygon class="st0" points="289,154 275,131 275,154 267,154 267,117 274,117 289,139 289,117 296,117 296,154 	"/>
	<polygon class="st0" points="305,154 312,154 312,117 305,117 	"/>
	<polygon class="st0" points="341,154 341,138 328,138 328,154 321,154 321,117 328,117 328,132 341,132 341,117 348,117 348,154
		"/>
	<path class="st0" d="M374,125c-1-1-3-2-5-2s-4,1-5,2s-1,3-1,10s0,9,1,11c1,1,3,2,5,2s4-1,5-2c1-2,2-4,2-11S375,126,374,125z
		 M379,150c-2,3-6,4-10,4s-7-1-10-4c-4-4-4-8-4-15c0-6,0-11,4-15c3-2,6-4,10-4s8,2,10,4c4,4,4,9,4,15C383,142,383,146,379,150z"/>
	<polygon class="st0" points="403,154 398,154 386,117 393,117 401,141 408,117 416,117 	"/>
	<polygon class="st0" points="442,154 428,131 428,154 420,154 420,117 427,117 442,139 442,117 449,117 449,154 	"/>
	<path class="st0" d="M470,128l-5,13h10L470,128z M479,154l-2-7h-14l-2,7h-7l13-37h6l13,37H479z"/>
	<polygon class="st0" points="200,13 200,13 172,13 172,154 200,154 	"/>
	<polygon class="st0" points="0,13 0,154 28,154 28,13 	"/>
	<polygon class="st0" points="127,13 37,154 67,154 158,13 	"/>
	<path class="st0" d="M485,9h-5l4-9h7L485,9z M484,23l-5,14h9L484,23z M492,50l-2-7h-13l-2,7h-8l14-38h5l14,38H492z"/>
</g>
</svg>
