<svg width="204" height="40" viewBox="0 0 204 40" fill="none" xmlns="http://www.w3.org/2000/svg">
<g clip-path="url(#clip0_2772_8987)">
<path d="M-0.000483125 0V5.12697C1.08041 6.43102 2.31181 7.97529 3.68687 9.76664C5.18507 11.7159 6.71063 13.7474 8.26356 15.8545C9.81649 17.9616 11.3352 20.0686 12.7992 22.162C14.27 24.2553 15.5493 26.1702 16.6439 27.9067L16.5892 7.65271C16.555 6.97323 16.295 6.60261 15.7956 6.41043C15.262 6.21139 14.2358 6.10844 13.4902 6.10844C13.3191 6.10844 13.1891 6.03294 13.1002 5.87509C13.0113 5.71723 12.9702 5.55251 12.9702 5.38092C12.9702 5.18188 13.0113 5.0103 13.1002 4.86616C13.1823 4.72203 13.3123 4.6534 13.4902 4.6534C13.7775 4.6534 14.6258 4.67399 15.262 4.72203C15.8024 4.76321 16.4181 4.7838 17.1228 4.7838C17.2596 4.7838 17.4033 4.7838 17.5469 4.7838C18.4089 4.7838 19.1546 4.76321 19.784 4.71517C20.4133 4.67399 21.2616 4.64653 21.5558 4.64653C21.7268 4.64653 21.8568 4.71517 21.9457 4.8593C22.0347 5.00343 22.0757 5.17502 22.0757 5.37406C22.0757 5.54564 22.0347 5.71036 21.9457 5.86822C21.8568 6.02608 21.7268 6.10158 21.5558 6.10158C20.8101 6.10158 19.7771 6.20453 19.2504 6.40357C18.7168 6.60947 18.4705 7.04187 18.4705 7.60467L18.4499 34.7975C18.4499 35.0309 18.361 35.1819 18.19 35.2505C18.019 35.3191 17.8206 35.3603 17.588 35.3603C17.3554 35.3603 17.1433 35.3329 16.9449 35.2711C16.7465 35.2093 16.6165 35.127 16.555 35.0034C15.9529 34.0631 15.132 32.9032 14.0922 31.4001C13.0523 29.897 11.9099 28.2704 10.6579 26.5271C9.40602 24.7769 8.11306 22.9856 6.78588 21.1531C5.45871 19.3205 4.18627 17.5909 2.96171 15.9712C1.88082 14.5436 0.8957 13.267 -0.00732422 12.1345V39.9863H27.5554V0H-0.000483125Z" fill="#16799B"/>
<path d="M30.4268 0V19.094C32.1781 18.9293 33.7447 18.4695 35.1197 17.7351C36.6795 16.9046 37.9862 15.9849 39.026 14.8181C40.0659 13.6582 40.8594 12.4159 41.393 11.0913C41.9266 9.76664 42.1934 8.57241 42.1934 7.49485C42.1934 7.02814 41.9882 6.65065 41.5846 6.36239C41.181 6.06726 40.6268 5.92313 39.9359 5.92313C39.587 5.92313 39.416 5.71036 39.416 5.27797C39.416 5.10638 39.457 4.95539 39.5459 4.82498C39.6349 4.69458 39.7648 4.63281 39.9359 4.63281C40.2506 4.63281 40.8184 4.6534 41.6325 4.70144C42.4397 4.74949 43.5753 4.77008 45.0188 4.77008C46.4623 4.77008 47.6458 4.74949 48.4736 4.70144C49.3013 4.66026 49.8555 4.63281 50.1496 4.63281C50.4985 4.63281 50.6696 4.84557 50.6696 5.27797C50.6696 5.44955 50.6285 5.60055 50.5396 5.73095C50.4506 5.86136 50.3207 5.92313 50.1496 5.92313C49.3082 5.92313 48.6446 6.04667 48.152 6.29375C47.6595 6.54084 47.2832 7.06932 47.0233 7.88607C46.476 9.57447 45.7029 11.0776 44.7178 12.4022C43.7327 13.7268 42.6449 14.8662 41.4614 15.827C40.2711 16.7879 39.0397 17.5566 37.7673 18.14C36.4948 18.7234 35.2908 19.1283 34.162 19.3617C35.8996 19.65 37.4731 20.1922 38.8755 20.9746C40.2779 21.757 41.523 22.7111 42.6107 23.8298C43.6985 24.9485 44.6357 26.2114 45.4361 27.6253C46.2297 29.0391 46.8796 30.5285 47.3721 32.0933C47.6321 32.9101 48.0084 33.4386 48.5009 33.6857C48.9935 33.9327 49.6571 34.0563 50.4985 34.0563C50.6696 34.0563 50.7995 34.118 50.8885 34.2485C50.9774 34.3789 51.0184 34.5299 51.0184 34.7014C51.0184 35.1338 50.8474 35.3466 50.4985 35.3466C50.2112 35.3466 49.6229 35.326 48.7404 35.278C47.8579 35.2299 46.6812 35.2093 45.1967 35.2093C43.7122 35.2093 42.6176 35.2299 41.8103 35.278C41.0031 35.326 40.4353 35.3466 40.1206 35.3466C39.9427 35.3466 39.8127 35.2848 39.7306 35.1544C39.6417 35.024 39.6007 34.873 39.6007 34.7014C39.6007 34.269 39.7717 34.0563 40.1206 34.0563C40.8115 34.0563 41.3657 33.9121 41.7693 33.6239C42.1729 33.3356 42.3781 32.9581 42.3781 32.4914C42.3781 31.9698 42.255 31.304 42.0087 30.5079C41.7625 29.7117 41.3999 28.8744 40.921 28.0027C40.4421 27.1311 39.8401 26.2526 39.1149 25.3672C38.3898 24.4818 37.562 23.6719 36.6179 22.9513C35.6807 22.2237 34.5998 21.6815 33.471 21.1393C32.4038 20.6314 31.4734 20.5148 30.4268 20.4598V40.0137H57.9895V0H30.4268Z" fill="#16799B"/>
</g>
<g clip-path="url(#clip1_2772_8987)">
<path d="M84.0735 14.8734C83.7731 14.3983 83.4317 13.8786 83.0631 13.3144C82.6944 12.7502 82.3121 12.1712 81.9025 11.5624C81.4928 10.9537 81.0968 10.3895 80.7145 9.82533C80.3322 9.27598 79.9772 8.77118 79.6495 8.31091C79.3218 7.85065 79.035 7.47947 78.8165 7.19738V15.0812C78.8165 15.1852 78.8575 15.2742 78.9258 15.3485C78.9941 15.4227 79.0896 15.4821 79.1989 15.5266C79.3081 15.5712 79.431 15.6009 79.5675 15.6157C79.7041 15.6306 79.827 15.6454 79.9499 15.6454C80.0045 15.6454 80.0454 15.6603 80.0864 15.7196C80.1137 15.7642 80.1274 15.8236 80.1274 15.883C80.1274 16.0314 80.0728 16.1205 79.9499 16.1205C79.9089 16.1205 79.827 16.1205 79.7041 16.1205C79.5949 16.1205 79.4583 16.1205 79.3218 16.1057C79.1716 16.1057 79.0214 16.1057 78.8712 16.0908C78.7073 16.0908 78.5708 16.0908 78.4342 16.0908C78.1611 16.0908 77.9017 16.0908 77.6832 16.1205C77.4648 16.1354 77.3009 16.1502 77.1917 16.1502C77.1371 16.1502 77.0961 16.1205 77.0551 16.076C77.0278 16.0314 77.0142 15.972 77.0142 15.9127C77.0142 15.7642 77.0688 15.69 77.1917 15.69C77.4374 15.69 77.6559 15.6454 77.8334 15.5563C78.0109 15.4672 78.0929 15.3039 78.0929 15.0812V6.11353C78.0929 5.96506 78.0109 5.84629 77.8334 5.7572C77.6559 5.68297 77.4374 5.63843 77.1917 5.63843C77.1371 5.63843 77.0961 5.60873 77.0551 5.56419C77.0142 5.51965 77.0142 5.44541 77.0142 5.37118C77.0142 5.31179 77.0142 5.2524 77.0551 5.19301C77.0824 5.13362 77.1234 5.10393 77.1917 5.10393C77.2463 5.10393 77.3692 5.10393 77.574 5.10393C77.7788 5.10393 78.0246 5.10393 78.3113 5.11877C78.5981 5.11877 78.8848 5.11877 79.1989 5.13362C79.4993 5.13362 79.7724 5.13362 80.0181 5.13362C80.3732 5.60873 80.7691 6.15808 81.2197 6.78166C81.6567 7.40524 82.1073 8.05851 82.5715 8.74148C83.0358 9.42445 83.4864 10.1223 83.9233 10.8201C84.3603 11.5179 84.7562 12.1712 85.1112 12.7502V6.30655C85.1112 6.18777 85.0839 6.06899 85.0157 5.99476C84.9474 5.90567 84.8655 5.83144 84.7562 5.7869C84.647 5.72751 84.5378 5.69781 84.4012 5.68297C84.2783 5.65327 84.1418 5.65327 84.0189 5.65327C83.9643 5.65327 83.9233 5.62358 83.896 5.57904C83.8687 5.51965 83.855 5.46026 83.855 5.38602C83.855 5.32664 83.855 5.26725 83.896 5.20786C83.9233 5.14847 83.9643 5.11877 84.0189 5.11877C84.1281 5.11877 84.3056 5.11877 84.5514 5.14847C84.8108 5.16332 85.0976 5.17816 85.439 5.17816C85.7257 5.17816 85.9851 5.17816 86.2173 5.14847C86.4494 5.13362 86.6132 5.11877 86.7088 5.11877C86.7634 5.11877 86.8044 5.14847 86.8317 5.20786C86.859 5.2524 86.8727 5.32664 86.8727 5.40087C86.8727 5.46026 86.859 5.51965 86.8317 5.57904C86.8044 5.63843 86.7634 5.66812 86.7088 5.66812C86.463 5.66812 86.2446 5.71266 86.0671 5.7869C85.8895 5.87598 85.8076 6.02445 85.8076 6.27685V16.0314C85.8076 16.1057 85.7667 16.1651 85.6711 16.1948C85.5755 16.2245 85.439 16.2541 85.2888 16.2541C85.1932 16.2541 85.0976 16.2541 85.0293 16.2245C84.9474 16.2096 84.8928 16.1651 84.8655 16.1057C84.6743 15.7939 84.4285 15.393 84.1145 14.9179" fill="#16799B"/>
<path d="M93.1669 6.24716C92.9074 6.45502 92.648 6.66288 92.3886 6.85589C92.1155 7.0489 91.856 7.21222 91.5966 7.37554C91.3372 7.53886 91.1051 7.67248 90.8866 7.77641C90.7773 7.82095 90.6818 7.8655 90.5862 7.88034C90.4906 7.89519 90.3814 7.91004 90.2585 7.91004C90.1356 7.91004 90.0673 7.8655 90.0673 7.76157C90.0673 7.68733 90.1083 7.61309 90.2039 7.55371C90.3677 7.43493 90.5316 7.3013 90.7091 7.15283C90.8866 6.98951 91.0368 6.82619 91.187 6.64803C91.3372 6.46986 91.4737 6.2917 91.5966 6.09868C91.7195 5.90567 91.8151 5.7275 91.897 5.54934C91.938 5.44541 92.0062 5.37117 92.0882 5.32663C92.1701 5.28209 92.2657 5.26724 92.3749 5.26724H93.7131C93.7131 5.26724 93.8223 5.28209 93.8633 5.32663C93.8906 5.35633 93.9042 5.40087 93.9042 5.44541C93.9042 5.51964 93.8769 5.57903 93.8359 5.63842C93.6448 5.84628 93.4263 6.05414 93.1669 6.27685M92.7709 10.8498C92.7709 10.2856 92.6207 9.85502 92.334 9.55807C92.0472 9.26113 91.6922 9.11266 91.2826 9.11266C90.9958 9.11266 90.7364 9.18689 90.5316 9.32052C90.3131 9.46899 90.1356 9.662 89.9854 9.9144C89.8352 10.1668 89.726 10.4637 89.6577 10.8201C89.5894 11.1616 89.5484 11.5476 89.5484 11.9485C89.5484 13.1214 89.6986 14.0122 89.999 14.6507C90.2994 15.2891 90.75 15.6009 91.3508 15.6009C91.542 15.6009 91.7195 15.5712 91.897 15.4969C92.0745 15.4227 92.2247 15.3188 92.3476 15.1703C92.4705 15.0218 92.5797 14.8288 92.6617 14.5913C92.7436 14.3537 92.7846 14.0568 92.7846 13.7153V10.8349L92.7709 10.8498ZM94.5869 15.2148C94.5869 15.3782 94.6825 15.4821 94.86 15.5712C95.0375 15.6454 95.256 15.69 95.5018 15.69C95.6247 15.69 95.6793 15.7642 95.6793 15.9275C95.6793 15.9869 95.6656 16.0463 95.6383 16.0908C95.611 16.1354 95.5701 16.1651 95.5018 16.1651C95.3925 16.1651 95.1331 16.1651 94.7098 16.1354C94.2865 16.1205 93.7404 16.1057 93.0713 16.1057C92.9074 16.1057 92.7982 15.8236 92.7846 15.2742C92.5934 15.586 92.334 15.8384 92.0062 16.0166C91.6785 16.1948 91.2553 16.2838 90.7364 16.2838C90.3131 16.2838 89.9035 16.1948 89.5211 16.0166C89.1388 15.8384 88.7975 15.5712 88.4971 15.2297C88.1967 14.8882 87.9645 14.4725 87.787 13.9974C87.6095 13.5074 87.5276 12.9729 87.5276 12.3642C87.5276 11.8297 87.6232 11.3249 87.8007 10.8646C87.9782 10.3895 88.224 9.98864 88.5244 9.63231C88.8248 9.27598 89.1661 8.99388 89.5484 8.80087C89.9308 8.59301 90.3131 8.48908 90.7227 8.48908C91.2416 8.48908 91.6785 8.57816 92.0336 8.75633C92.3886 8.93449 92.6617 9.18689 92.8392 9.51353C93.0303 9.39475 93.2215 9.26113 93.3717 9.1275C93.5219 8.99388 93.6721 8.8751 93.795 8.77117C93.9179 8.66724 94.0271 8.57816 94.109 8.50392C94.191 8.44454 94.2729 8.39999 94.3412 8.39999C94.4231 8.39999 94.4777 8.42969 94.5187 8.47423C94.5596 8.51877 94.5869 8.63755 94.5869 8.80087V15.1851" fill="#16799B"/>
<path d="M102.22 10.7162C102.152 10.8498 102.083 10.9092 102.001 10.9092C101.919 10.9092 101.851 10.8646 101.797 10.7756C101.701 10.5677 101.564 10.3895 101.373 10.2411C101.182 10.0926 100.923 10.0183 100.595 10.0183C100.431 10.0183 100.267 10.048 100.117 10.1223C99.9532 10.1965 99.8167 10.3153 99.6938 10.4786C99.5709 10.6419 99.4753 10.8498 99.3934 11.117C99.3114 11.3843 99.2841 11.6961 99.2841 12.0673V15.2C99.2841 15.5118 99.7347 15.6751 100.622 15.6751C100.677 15.6751 100.732 15.69 100.759 15.7493C100.786 15.7939 100.8 15.8533 100.8 15.9127C100.8 16.0611 100.745 16.1502 100.622 16.1502C100.581 16.1502 100.486 16.1502 100.336 16.1502C100.199 16.1502 100.021 16.1502 99.8167 16.1354C99.6118 16.1354 99.3934 16.1354 99.1476 16.1205C98.9018 16.1205 98.656 16.1205 98.4239 16.1205C97.946 16.1205 97.55 16.1205 97.2087 16.1502C96.8809 16.1651 96.6625 16.1799 96.5532 16.1799C96.4986 16.1799 96.4577 16.1502 96.4167 16.1057C96.3894 16.0611 96.3757 16.0018 96.3757 15.9424C96.3757 15.7939 96.4304 15.7197 96.5532 15.7197C96.799 15.7197 97.0175 15.6751 97.195 15.6009C97.3725 15.5266 97.4544 15.4079 97.4544 15.2445V9.69171C97.4544 9.54324 97.3725 9.42446 97.195 9.33538C97.0175 9.26114 96.799 9.2166 96.5532 9.2166C96.4986 9.2166 96.4577 9.1869 96.4167 9.14236C96.3894 9.09782 96.3757 9.03843 96.3757 8.97904C96.3757 8.83057 96.4304 8.74149 96.5532 8.74149C96.6625 8.74149 96.9219 8.74149 97.3315 8.77118C97.7412 8.78603 98.2874 8.80088 98.9837 8.80088C99.0657 8.80088 99.1339 8.83057 99.1612 8.88996C99.1885 8.94935 99.2159 9.03843 99.2432 9.14236C99.2432 9.1869 99.2568 9.26114 99.2568 9.37992C99.2568 9.49869 99.2568 9.61747 99.2705 9.7511C99.2705 9.88472 99.2705 10.0035 99.2705 10.1371V10.4192C99.3797 10.1965 99.5026 9.98865 99.6665 9.76594C99.8167 9.54324 99.9942 9.35022 100.199 9.17206C100.39 8.99389 100.609 8.84542 100.854 8.74149C101.087 8.63756 101.346 8.57817 101.633 8.57817C101.797 8.57817 101.947 8.59302 102.097 8.63756C102.247 8.6821 102.37 8.74149 102.479 8.80088C102.589 8.87511 102.67 8.94935 102.739 9.02359C102.807 9.11267 102.834 9.1869 102.834 9.29083C102.834 9.37992 102.807 9.469 102.752 9.60262L102.206 10.8052L102.22 10.7162Z" fill="#16799B"/>
<path d="M105.156 9.89957C104.869 10.4935 104.719 11.3101 104.719 12.3642C104.719 12.869 104.76 13.3293 104.828 13.7301C104.91 14.1459 105.005 14.5022 105.142 14.7991C105.278 15.0961 105.456 15.3336 105.661 15.4821C105.866 15.6454 106.111 15.7197 106.384 15.7197C106.671 15.7197 106.917 15.6454 107.122 15.4821C107.327 15.3188 107.504 15.0961 107.641 14.7991C107.777 14.5022 107.886 14.1459 107.941 13.7301C108.009 13.3144 108.037 12.8542 108.037 12.3642C108.037 11.3101 107.886 10.4935 107.613 9.89957C107.34 9.30568 106.917 9.00874 106.371 9.00874C105.825 9.00874 105.429 9.30568 105.142 9.89957M107.859 8.75634C108.31 8.94935 108.692 9.20175 109.02 9.55809C109.348 9.89957 109.593 10.3153 109.771 10.7904C109.948 11.2655 110.044 11.8 110.044 12.379C110.044 12.9581 109.948 13.4926 109.757 13.9825C109.566 14.4576 109.307 14.8734 108.992 15.2149C108.665 15.5563 108.282 15.8236 107.832 16.0018C107.381 16.1948 106.903 16.2838 106.384 16.2838C105.866 16.2838 105.388 16.1948 104.937 16.0018C104.487 15.8087 104.104 15.5563 103.776 15.2C103.449 14.8585 103.189 14.4428 102.998 13.9677C102.807 13.4926 102.725 12.9581 102.725 12.379C102.725 11.8 102.821 11.2804 102.998 10.8052C103.189 10.3301 103.449 9.91442 103.763 9.57293C104.091 9.23145 104.473 8.9642 104.923 8.77119C105.374 8.57817 105.866 8.48909 106.384 8.48909C106.903 8.48909 107.422 8.57817 107.873 8.77119" fill="#16799B"/>
<path d="M116.27 10.8201C116.27 10.2559 116.12 9.82533 115.833 9.52838C115.546 9.23144 115.191 9.08297 114.782 9.08297C114.495 9.08297 114.249 9.1572 114.031 9.29083C113.812 9.4393 113.635 9.63231 113.485 9.88471C113.334 10.1371 113.225 10.4341 113.157 10.7904C113.089 11.1319 113.048 11.5179 113.048 11.9188C113.048 13.0917 113.198 13.9825 113.498 14.621C113.799 15.2594 114.249 15.5712 114.85 15.5712C115.041 15.5712 115.219 15.5415 115.396 15.4672C115.574 15.393 115.724 15.2891 115.847 15.1406C115.97 14.9921 116.079 14.7991 116.161 14.5616C116.243 14.324 116.284 14.0271 116.284 13.6856V10.8052L116.27 10.8201ZM118.086 15.1852C118.086 15.3485 118.182 15.4524 118.346 15.5415C118.523 15.6157 118.742 15.6603 118.987 15.6603C119.097 15.6603 119.165 15.7345 119.165 15.8978C119.165 15.9572 119.151 16.0166 119.124 16.0611C119.097 16.1057 119.056 16.1354 118.987 16.1354C118.878 16.1354 118.619 16.1354 118.195 16.1057C117.772 16.0908 117.226 16.076 116.557 16.076C116.379 16.076 116.284 15.7939 116.27 15.2445C116.079 15.5563 115.82 15.8087 115.492 15.9869C115.164 16.1651 114.741 16.2541 114.222 16.2541C113.812 16.2541 113.403 16.1651 113.02 15.9869C112.638 15.8087 112.297 15.5415 111.996 15.2C111.71 14.8585 111.464 14.4428 111.286 13.9677C111.109 13.4777 111.013 12.9432 111.013 12.3345C111.013 11.8 111.109 11.2952 111.286 10.8349C111.464 10.3598 111.71 9.95895 112.01 9.60262C112.31 9.24629 112.652 8.96419 113.034 8.77118C113.416 8.56332 113.799 8.45939 114.208 8.45939C114.7 8.45939 115.11 8.53362 115.465 8.69694C115.806 8.86026 116.079 9.08297 116.256 9.39476V6.08384C116.256 5.93537 116.161 5.80174 115.983 5.72751C115.806 5.65327 115.587 5.60873 115.342 5.60873C115.287 5.60873 115.246 5.57904 115.219 5.51965C115.191 5.46026 115.178 5.40087 115.178 5.34148C115.178 5.19301 115.232 5.11877 115.355 5.11877C115.56 5.11877 115.874 5.11877 116.284 5.11877C116.693 5.11877 117.24 5.11877 117.936 5.11877C118.1 5.11877 118.182 5.23755 118.182 5.46026C118.182 5.54934 118.182 5.72751 118.168 5.99476C118.168 6.26201 118.141 6.5738 118.141 6.93013C118.141 7.30131 118.113 7.70218 118.113 8.1476C118.113 8.59301 118.1 9.05327 118.1 9.51353V15.1555" fill="#16799B"/>
<path d="M122.756 15.1852C122.756 15.3485 122.852 15.4673 123.016 15.5415C123.193 15.6157 123.398 15.6454 123.657 15.6454C123.712 15.6454 123.753 15.6751 123.794 15.7197C123.821 15.7642 123.835 15.8236 123.835 15.883C123.835 16.0314 123.78 16.1205 123.657 16.1205C123.562 16.1205 123.357 16.1205 123.043 16.0908C122.729 16.076 122.333 16.0611 121.841 16.0611C121.35 16.0611 120.967 16.0611 120.653 16.0908C120.339 16.1057 120.121 16.1205 120.025 16.1205C119.971 16.1205 119.93 16.0908 119.902 16.0463C119.875 16.0018 119.861 15.9424 119.861 15.883C119.861 15.7345 119.916 15.6603 120.025 15.6603C120.271 15.6603 120.489 15.6157 120.667 15.5415C120.844 15.4673 120.926 15.3485 120.926 15.1852V9.63232C120.926 9.48385 120.844 9.36507 120.667 9.29084C120.489 9.2166 120.271 9.17206 120.025 9.17206C119.971 9.17206 119.93 9.14236 119.902 9.09782C119.875 9.05328 119.861 8.99389 119.861 8.9345C119.861 8.78603 119.916 8.69695 120.025 8.69695C120.134 8.69695 120.394 8.69695 120.803 8.72664C121.213 8.74149 121.759 8.75634 122.442 8.75634C122.538 8.75634 122.592 8.78603 122.62 8.84542C122.647 8.90481 122.674 8.99389 122.701 9.09782C122.715 9.18691 122.742 9.30568 122.742 9.43931C122.742 9.57293 122.742 9.69171 122.742 9.81049C122.988 9.45416 123.316 9.14236 123.698 8.88996C124.094 8.63756 124.599 8.50394 125.214 8.50394C125.979 8.50394 126.579 8.69695 127.003 9.06813C127.426 9.45416 127.644 10.0629 127.644 10.9092V15.2C127.644 15.3633 127.74 15.4821 127.917 15.5563C128.095 15.6306 128.313 15.6603 128.559 15.6603C128.614 15.6603 128.655 15.69 128.682 15.7345C128.709 15.779 128.723 15.8384 128.723 15.8978C128.723 16.0463 128.668 16.1354 128.546 16.1354C128.45 16.1354 128.245 16.1354 127.917 16.1057C127.603 16.0908 127.194 16.076 126.702 16.076C126.211 16.076 125.828 16.076 125.528 16.1057C125.228 16.1205 125.023 16.1354 124.913 16.1354C124.859 16.1354 124.818 16.1057 124.777 16.0611C124.75 16.0166 124.736 15.9572 124.736 15.8978C124.736 15.7494 124.791 15.6751 124.913 15.6751C125.159 15.6751 125.378 15.6306 125.555 15.5563C125.733 15.4821 125.815 15.3633 125.815 15.2V11.2358C125.815 10.6419 125.733 10.1965 125.542 9.86988C125.364 9.55809 125.023 9.39477 124.545 9.39477C123.999 9.39477 123.562 9.57293 123.22 9.91442C122.879 10.2559 122.715 10.7904 122.715 11.4882V15.2L122.756 15.1852Z" fill="#16799B"/>
<path d="M132.737 6.24716C132.492 6.45502 132.219 6.66288 131.959 6.85589C131.686 7.0489 131.427 7.21222 131.167 7.37554C130.908 7.53886 130.676 7.67248 130.471 7.77641C130.362 7.82095 130.266 7.8655 130.17 7.88034C130.075 7.89519 129.979 7.91004 129.843 7.91004C129.706 7.91004 129.652 7.8655 129.652 7.76157C129.652 7.68733 129.693 7.61309 129.774 7.55371C129.938 7.43493 130.102 7.3013 130.28 7.15283C130.457 6.98951 130.607 6.82619 130.758 6.64803C130.908 6.46986 131.044 6.2917 131.167 6.09868C131.29 5.90567 131.399 5.7275 131.468 5.54934C131.509 5.44541 131.563 5.37117 131.659 5.32663C131.741 5.28209 131.836 5.26724 131.946 5.26724H133.284C133.284 5.26724 133.393 5.28209 133.434 5.32663C133.461 5.35633 133.475 5.40087 133.475 5.44541C133.475 5.51964 133.447 5.57903 133.407 5.63842C133.215 5.84628 132.997 6.05414 132.737 6.27685M132.382 9.49868C132.382 9.64716 132.369 9.86986 132.355 10.152C132.355 10.4341 132.355 10.7904 132.328 11.221C132.328 11.6515 132.314 12.2009 132.314 12.8541V15.2148C132.314 15.3782 132.396 15.4969 132.574 15.5712C132.751 15.6454 132.956 15.6751 133.202 15.6751C133.256 15.6751 133.297 15.7048 133.325 15.7493C133.352 15.7939 133.366 15.8533 133.366 15.9127C133.366 16.0611 133.311 16.1502 133.188 16.1502C133.092 16.1502 132.888 16.1502 132.574 16.1205C132.246 16.1057 131.85 16.0908 131.372 16.0908C130.894 16.0908 130.498 16.0908 130.198 16.1205C129.897 16.1354 129.679 16.1502 129.583 16.1502C129.529 16.1502 129.488 16.1205 129.46 16.076C129.433 16.0314 129.419 15.972 129.419 15.9127C129.419 15.7642 129.474 15.69 129.583 15.69C129.829 15.69 130.048 15.6454 130.225 15.5712C130.403 15.4969 130.484 15.3782 130.484 15.2148V9.662C130.484 9.51353 130.403 9.39475 130.225 9.30567C130.048 9.23144 129.829 9.18689 129.583 9.18689C129.529 9.18689 129.488 9.1572 129.46 9.11266C129.433 9.06812 129.419 9.00873 129.419 8.94934C129.419 8.80087 129.474 8.71178 129.583 8.71178C129.693 8.71178 129.966 8.71178 130.416 8.74148C130.867 8.75633 131.44 8.77117 132.123 8.77117C132.287 8.77117 132.369 8.88995 132.369 9.11266C132.369 9.20174 132.369 9.33536 132.355 9.48384" fill="#16799B"/>
<path d="M142.418 12.3493C142.76 12.5275 143.047 12.7651 143.292 13.0323C143.538 13.2996 143.743 13.5965 143.893 13.9231C144.057 14.2498 144.166 14.5616 144.248 14.8734C144.33 15.1852 144.467 15.393 144.658 15.5118C144.863 15.6157 145.095 15.6751 145.354 15.6751C145.409 15.6751 145.45 15.7048 145.491 15.7493C145.518 15.7939 145.532 15.8533 145.532 15.9127C145.532 16.0611 145.477 16.1354 145.354 16.1354C145.259 16.1354 145.081 16.1354 144.822 16.1057C144.549 16.0908 144.18 16.076 143.688 16.076C143.484 16.076 143.279 16.076 143.074 16.1057C142.869 16.1205 142.705 16.1354 142.596 16.1354C142.391 16.1354 142.296 16.0017 142.296 15.7196C142.296 15.2297 142.214 14.7843 142.104 14.3686C141.982 13.9677 141.831 13.6114 141.627 13.3144C141.422 13.0175 141.176 12.7948 140.903 12.6166C140.616 12.4533 140.316 12.3493 139.974 12.3345V15.2148C139.974 15.5415 140.22 15.7048 140.698 15.7048C140.753 15.7048 140.794 15.7345 140.821 15.779C140.848 15.8236 140.862 15.883 140.862 15.9424C140.862 16.076 140.807 16.1502 140.684 16.1502C140.589 16.1502 140.411 16.1502 140.152 16.1205C139.892 16.1057 139.524 16.0908 139.032 16.0908C138.541 16.0908 138.172 16.0908 137.858 16.1205C137.557 16.1354 137.353 16.1502 137.243 16.1502C137.189 16.1502 137.148 16.1205 137.107 16.076C137.08 16.0314 137.066 15.9721 137.066 15.9127C137.066 15.7642 137.121 15.69 137.243 15.69C137.489 15.69 137.708 15.6454 137.885 15.5712C138.063 15.4969 138.145 15.3782 138.145 15.2148V6.08384C138.145 5.93537 138.063 5.81659 137.885 5.72751C137.708 5.65327 137.489 5.60873 137.243 5.60873C137.189 5.60873 137.148 5.57904 137.107 5.51965C137.08 5.46026 137.066 5.40087 137.066 5.34148C137.066 5.19301 137.121 5.11877 137.243 5.11877C137.435 5.11877 137.735 5.11877 138.145 5.11877C138.554 5.11877 139.1 5.11877 139.797 5.11877C139.961 5.11877 140.043 5.23755 140.043 5.46026C140.043 5.54934 140.043 5.68297 140.029 5.83144C140.029 5.97991 140.015 6.20262 140.002 6.46987C140.002 6.73712 140.002 7.09345 139.988 7.52401C139.988 7.95458 139.974 8.50393 139.974 9.1572V11.7406C140.302 11.7406 140.602 11.6515 140.876 11.5031C141.149 11.3546 141.367 11.1764 141.545 10.9686C141.722 10.7607 141.872 10.538 141.968 10.3004C142.063 10.0629 142.104 9.85502 142.104 9.66201C142.104 9.49869 142.05 9.36506 141.954 9.24629C141.859 9.14236 141.695 9.08297 141.463 9.08297C141.353 9.08297 141.285 9.00873 141.285 8.84541C141.285 8.78602 141.299 8.72664 141.326 8.68209C141.353 8.63755 141.394 8.60786 141.449 8.60786C141.558 8.60786 141.763 8.60786 142.063 8.63755C142.364 8.6524 142.76 8.66725 143.238 8.66725C143.716 8.66725 144.153 8.66725 144.508 8.63755C144.863 8.6227 145.095 8.60786 145.19 8.60786C145.3 8.60786 145.368 8.68209 145.368 8.84541C145.368 8.9048 145.368 8.96419 145.327 9.00873C145.3 9.05327 145.259 9.08297 145.19 9.08297C144.835 9.08297 144.576 9.12751 144.412 9.24629C144.248 9.35022 144.098 9.52838 143.948 9.79563C143.647 10.3301 143.251 10.7755 142.773 11.1467C142.296 11.5031 141.763 11.7703 141.19 11.9039C141.64 11.9633 142.036 12.0969 142.377 12.2751" fill="#16799B"/>
<path d="M148.713 15.1852C148.713 15.3485 148.795 15.4673 148.973 15.5415C149.15 15.6157 149.369 15.6454 149.614 15.6454C149.669 15.6454 149.71 15.6751 149.751 15.7197C149.778 15.7642 149.792 15.8236 149.792 15.883C149.792 16.0314 149.737 16.1205 149.628 16.1205C149.532 16.1205 149.328 16.1205 149.013 16.0908C148.699 16.076 148.303 16.0611 147.812 16.0611C147.32 16.0611 146.938 16.0611 146.624 16.0908C146.31 16.1057 146.105 16.1205 145.996 16.1205C145.941 16.1205 145.9 16.0908 145.859 16.0463C145.832 16.0018 145.818 15.9424 145.818 15.883C145.818 15.7345 145.873 15.6603 145.996 15.6603C146.242 15.6603 146.46 15.6157 146.638 15.5415C146.815 15.4673 146.911 15.3485 146.911 15.1852V9.63232C146.911 9.48385 146.829 9.36507 146.638 9.29084C146.46 9.2166 146.255 9.17206 145.996 9.17206C145.941 9.17206 145.9 9.14236 145.859 9.09782C145.832 9.05328 145.818 8.99389 145.818 8.9345C145.818 8.78603 145.873 8.69695 145.996 8.69695C146.105 8.69695 146.351 8.69695 146.774 8.72664C147.184 8.74149 147.73 8.75634 148.413 8.75634C148.495 8.75634 148.563 8.78603 148.59 8.84542C148.618 8.90481 148.645 8.99389 148.672 9.09782C148.686 9.18691 148.713 9.30568 148.713 9.43931C148.713 9.57293 148.713 9.69171 148.713 9.81049C148.959 9.45416 149.287 9.14236 149.669 8.88996C150.065 8.63756 150.57 8.50394 151.185 8.50394C151.949 8.50394 152.55 8.69695 152.973 9.06813C153.397 9.45416 153.615 10.0629 153.615 10.9092V15.2C153.615 15.3633 153.697 15.4821 153.874 15.5563C154.052 15.6306 154.27 15.6603 154.516 15.6603C154.571 15.6603 154.612 15.69 154.639 15.7345C154.666 15.779 154.68 15.8384 154.68 15.8978C154.68 16.0463 154.625 16.1354 154.503 16.1354C154.407 16.1354 154.202 16.1354 153.874 16.1057C153.547 16.0908 153.151 16.076 152.659 16.076C152.168 16.076 151.785 16.076 151.485 16.1057C151.171 16.1205 150.966 16.1354 150.87 16.1354C150.816 16.1354 150.775 16.1057 150.734 16.0611C150.707 16.0166 150.693 15.9572 150.693 15.8978C150.693 15.7494 150.748 15.6751 150.87 15.6751C151.116 15.6751 151.335 15.6306 151.512 15.5563C151.69 15.4821 151.772 15.3633 151.772 15.2V11.2358C151.772 10.6419 151.676 10.1965 151.499 9.86988C151.321 9.55809 150.98 9.39477 150.502 9.39477C149.956 9.39477 149.519 9.57293 149.177 9.91442C148.836 10.2559 148.672 10.7904 148.672 11.4882V15.2L148.713 15.1852Z" fill="#16799B"/>
<path d="M158.012 5.34148C158.217 5.56419 158.326 5.84629 158.326 6.17293C158.326 6.49956 158.217 6.78166 158.012 7.00437C157.807 7.22707 157.548 7.34585 157.247 7.34585C156.947 7.34585 156.687 7.22707 156.469 7.00437C156.264 6.78166 156.155 6.49956 156.155 6.17293C156.155 5.84629 156.251 5.56419 156.469 5.34148C156.687 5.11878 156.933 5 157.247 5C157.561 5 157.807 5.10393 158.012 5.34148ZM158.258 9.469C158.258 9.61747 158.244 9.84017 158.23 10.1223C158.23 10.4044 158.23 10.7607 158.217 11.1913C158.217 11.6218 158.203 12.1712 158.203 12.8245V15.1852C158.203 15.3485 158.285 15.4672 158.463 15.5415C158.64 15.6157 158.859 15.6454 159.104 15.6454C159.159 15.6454 159.2 15.6751 159.227 15.7196C159.254 15.7642 159.268 15.8236 159.268 15.883C159.268 16.0314 159.214 16.1205 159.104 16.1205C159.009 16.1205 158.804 16.1205 158.476 16.0908C158.162 16.076 157.752 16.0611 157.261 16.0611C156.769 16.0611 156.387 16.0611 156.087 16.0908C155.786 16.1057 155.581 16.1205 155.472 16.1205C155.418 16.1205 155.377 16.0908 155.349 16.0463C155.322 16.0017 155.308 15.9424 155.308 15.883C155.308 15.7345 155.363 15.6603 155.486 15.6603C155.732 15.6603 155.95 15.6157 156.128 15.5415C156.305 15.4672 156.387 15.3485 156.387 15.1852V9.63231C156.387 9.48384 156.305 9.36507 156.128 9.27598C155.95 9.20175 155.732 9.15721 155.486 9.15721C155.431 9.15721 155.39 9.12751 155.363 9.08297C155.336 9.03843 155.322 8.97904 155.322 8.91965C155.322 8.77118 155.377 8.6821 155.5 8.6821C155.609 8.6821 155.882 8.6821 156.346 8.71179C156.797 8.72664 157.37 8.74148 158.053 8.74148C158.217 8.74148 158.299 8.86026 158.299 9.08297C158.299 9.17205 158.299 9.30568 158.299 9.45415" fill="#16799B"/>
<path d="M163.76 8.87511C164.156 8.6227 164.662 8.48908 165.276 8.48908C166.041 8.48908 166.642 8.68209 167.065 9.05327C167.488 9.4393 167.707 10.048 167.707 10.8943V15.1851C167.707 15.3485 167.802 15.4672 167.98 15.5415C168.157 15.6157 168.362 15.6454 168.621 15.6454C168.676 15.6454 168.717 15.6751 168.744 15.7196C168.772 15.7642 168.785 15.8236 168.785 15.883C168.785 16.0314 168.731 16.1205 168.621 16.1205C168.526 16.1205 168.321 16.1205 167.993 16.0908C167.679 16.076 167.27 16.0611 166.778 16.0611C166.287 16.0611 165.904 16.0611 165.604 16.0908C165.303 16.1057 165.099 16.1205 164.989 16.1205C164.935 16.1205 164.894 16.0908 164.866 16.0463C164.839 16.0017 164.825 15.9424 164.825 15.883C164.825 15.7345 164.88 15.6603 164.989 15.6603C165.235 15.6603 165.454 15.6157 165.631 15.5415C165.809 15.4672 165.891 15.3485 165.891 15.1851V11.221C165.891 10.6271 165.795 10.1817 165.617 9.85502C165.44 9.54323 165.099 9.37991 164.621 9.37991C164.074 9.37991 163.638 9.55808 163.296 9.89956C162.955 10.241 162.791 10.7755 162.791 11.4734V15.1851C162.791 15.3485 162.887 15.4672 163.05 15.5415C163.228 15.6157 163.446 15.6454 163.692 15.6454C163.747 15.6454 163.788 15.6751 163.815 15.7196C163.842 15.7642 163.856 15.8236 163.856 15.883C163.856 16.0314 163.801 16.1205 163.679 16.1205C163.583 16.1205 163.378 16.1205 163.064 16.0908C162.75 16.076 162.34 16.0611 161.849 16.0611C161.357 16.0611 160.975 16.0611 160.675 16.0908C160.374 16.1057 160.169 16.1205 160.06 16.1205C160.005 16.1205 159.965 16.0908 159.937 16.0463C159.91 16.0017 159.896 15.9424 159.896 15.883C159.896 15.7345 159.951 15.6603 160.06 15.6603C160.306 15.6603 160.524 15.6157 160.702 15.5415C160.879 15.4672 160.975 15.3485 160.975 15.1851V6.08384C160.975 5.93537 160.879 5.81659 160.702 5.72751C160.524 5.65327 160.32 5.60873 160.06 5.60873C160.005 5.60873 159.965 5.57904 159.937 5.51965C159.91 5.46026 159.896 5.40087 159.896 5.34148C159.896 5.19301 159.951 5.11877 160.06 5.11877C160.224 5.11877 160.511 5.11877 160.907 5.11877C161.316 5.11877 161.876 5.11877 162.6 5.11877C162.764 5.11877 162.846 5.23755 162.846 5.46026C162.846 5.54934 162.846 5.68297 162.832 5.83144C162.832 5.97991 162.818 6.20262 162.818 6.46987C162.818 6.73712 162.818 7.09345 162.791 7.52401C162.791 7.95458 162.791 8.50393 162.791 9.1572V9.75109C163.037 9.39476 163.364 9.08297 163.76 8.83056" fill="#16799B"/>
<path d="M171.926 9.89957C171.639 10.4935 171.489 11.3101 171.489 12.3642C171.489 12.869 171.53 13.3293 171.598 13.7301C171.666 14.1459 171.775 14.5022 171.912 14.7991C172.048 15.0961 172.226 15.3336 172.431 15.4821C172.636 15.6454 172.881 15.7197 173.141 15.7197C173.428 15.7197 173.687 15.6454 173.892 15.4821C174.097 15.3188 174.274 15.0961 174.411 14.7991C174.547 14.5022 174.656 14.1459 174.711 13.7301C174.779 13.3144 174.807 12.8542 174.807 12.3642C174.807 11.3101 174.67 10.4935 174.383 9.89957C174.097 9.30568 173.687 9.00874 173.141 9.00874C172.595 9.00874 172.199 9.30568 171.912 9.89957M174.629 8.75634C175.08 8.94935 175.476 9.20175 175.79 9.55809C176.117 9.89957 176.363 10.3153 176.541 10.7904C176.718 11.2655 176.814 11.8 176.814 12.379C176.814 12.9581 176.718 13.4926 176.527 13.9825C176.336 14.4576 176.077 14.8734 175.762 15.2149C175.435 15.5563 175.052 15.8236 174.602 16.0018C174.151 16.1948 173.673 16.2838 173.154 16.2838C172.636 16.2838 172.158 16.1948 171.707 16.0018C171.257 15.8087 170.874 15.5563 170.546 15.2C170.219 14.8585 169.959 14.4428 169.768 13.9677C169.577 13.4926 169.481 12.9581 169.481 12.379C169.481 11.8 169.577 11.2804 169.768 10.8052C169.959 10.3301 170.219 9.91442 170.533 9.57293C170.861 9.23145 171.243 8.9642 171.707 8.77119C172.158 8.57817 172.636 8.48909 173.154 8.48909C173.673 8.48909 174.192 8.57817 174.643 8.77119" fill="#16799B"/>
<path d="M184.938 13.8341C184.734 14.4131 184.46 14.8882 184.119 15.2445C183.778 15.6157 183.395 15.8681 182.959 16.0314C182.535 16.1948 182.085 16.269 181.634 16.269C181.183 16.269 180.787 16.2096 180.405 16.076C180.023 15.9572 179.695 15.7642 179.408 15.5266C179.122 15.2891 178.889 14.9921 178.739 14.6358C178.575 14.2795 178.494 13.8638 178.494 13.4035V9.64716C178.494 9.48384 178.398 9.36507 178.234 9.27598C178.057 9.20175 177.838 9.15721 177.592 9.15721C177.538 9.15721 177.497 9.12751 177.469 9.08297C177.442 9.03843 177.428 8.97904 177.428 8.91965C177.428 8.77118 177.483 8.69695 177.606 8.69695C177.729 8.69695 177.988 8.69695 178.439 8.72664C178.889 8.74149 179.463 8.75633 180.146 8.75633C180.31 8.75633 180.391 8.87511 180.391 9.09782C180.391 9.1869 180.391 9.30568 180.378 9.45415C180.378 9.60262 180.364 9.78079 180.364 10.0035C180.364 10.2262 180.364 10.4935 180.337 10.8052C180.337 11.117 180.323 11.5031 180.323 11.9336V13.8192C180.323 14.4428 180.446 14.8882 180.678 15.1703C180.91 15.4524 181.252 15.586 181.675 15.586C181.907 15.586 182.139 15.5415 182.344 15.4524C182.563 15.3633 182.74 15.2 182.904 14.9773C183.068 14.7546 183.191 14.4428 183.286 14.0419C183.382 13.6411 183.423 13.1511 183.423 12.5424C183.423 11.9336 183.409 11.414 183.368 10.8795C183.327 10.345 183.286 9.94411 183.232 9.64716C183.163 9.32053 182.877 9.15721 182.358 9.15721C182.303 9.15721 182.248 9.12751 182.221 9.08297C182.194 9.03843 182.18 8.97904 182.18 8.91965C182.18 8.77118 182.235 8.69695 182.358 8.69695C182.399 8.69695 182.508 8.69695 182.658 8.69695C182.808 8.69695 182.986 8.69695 183.191 8.71179C183.395 8.71179 183.628 8.71179 183.887 8.72664C184.146 8.72664 184.392 8.72664 184.638 8.72664C184.747 8.72664 184.829 8.75633 184.911 8.80088C184.993 8.86026 185.048 8.97904 185.102 9.1869C185.157 9.39476 185.184 9.69171 185.211 10.0926C185.225 10.4786 185.239 11.028 185.239 11.6961C185.239 12.5424 185.13 13.2402 184.925 13.8192" fill="#16799B"/>
<path d="M189.089 15.1852C189.089 15.3485 189.171 15.4673 189.349 15.5415C189.526 15.6157 189.745 15.6454 189.991 15.6454C190.045 15.6454 190.086 15.6751 190.113 15.7197C190.141 15.7642 190.154 15.8236 190.154 15.883C190.154 16.0314 190.1 16.1205 189.991 16.1205C189.895 16.1205 189.69 16.1205 189.376 16.0908C189.062 16.076 188.666 16.0611 188.174 16.0611C187.683 16.0611 187.301 16.0611 186.987 16.0908C186.672 16.1057 186.468 16.1205 186.358 16.1205C186.304 16.1205 186.263 16.0908 186.236 16.0463C186.208 16.0018 186.195 15.9424 186.195 15.883C186.195 15.7345 186.249 15.6603 186.372 15.6603C186.618 15.6603 186.836 15.6157 187.014 15.5415C187.191 15.4673 187.287 15.3485 187.287 15.1852V9.63232C187.287 9.48385 187.205 9.36507 187.014 9.29084C186.836 9.2166 186.632 9.17206 186.372 9.17206C186.317 9.17206 186.277 9.14236 186.249 9.09782C186.222 9.05328 186.208 8.99389 186.208 8.9345C186.208 8.78603 186.263 8.69695 186.386 8.69695C186.495 8.69695 186.754 8.69695 187.164 8.72664C187.574 8.74149 188.12 8.75634 188.803 8.75634C188.885 8.75634 188.953 8.78603 188.98 8.84542C189.007 8.90481 189.035 8.99389 189.062 9.09782C189.076 9.18691 189.103 9.30568 189.103 9.43931C189.103 9.57293 189.103 9.69171 189.103 9.81049C189.349 9.45416 189.676 9.14236 190.059 8.88996C190.455 8.63756 190.96 8.50394 191.574 8.50394C192.339 8.50394 192.94 8.69695 193.363 9.06813C193.786 9.45416 194.005 10.0629 194.005 10.9092V15.2C194.005 15.3633 194.101 15.4821 194.278 15.5563C194.456 15.6306 194.66 15.6603 194.92 15.6603C194.974 15.6603 195.015 15.69 195.043 15.7345C195.07 15.779 195.084 15.8384 195.084 15.8978C195.084 16.0463 195.029 16.1354 194.906 16.1354C194.811 16.1354 194.606 16.1354 194.278 16.1057C193.95 16.0908 193.554 16.076 193.063 16.076C192.571 16.076 192.189 16.076 191.888 16.1057C191.574 16.1205 191.37 16.1354 191.274 16.1354C191.219 16.1354 191.178 16.1057 191.151 16.0611C191.124 16.0166 191.11 15.9572 191.11 15.8978C191.11 15.7494 191.165 15.6751 191.288 15.6751C191.533 15.6751 191.752 15.6306 191.929 15.5563C192.107 15.4821 192.203 15.3633 192.203 15.2V11.2358C192.203 10.6419 192.107 10.1965 191.929 9.86988C191.752 9.55809 191.411 9.39477 190.933 9.39477C190.386 9.39477 189.95 9.57293 189.608 9.91442C189.267 10.2559 189.103 10.7904 189.103 11.4882V15.2L189.089 15.1852Z" fill="#16799B"/>
<path d="M201.105 10.8201C201.105 10.2559 200.955 9.82532 200.668 9.52838C200.382 9.23144 200.027 9.08296 199.617 9.08296C199.33 9.08296 199.071 9.1572 198.866 9.29082C198.648 9.4393 198.47 9.63231 198.32 9.88471C198.17 10.1371 198.06 10.4341 197.992 10.7904C197.924 11.1319 197.883 11.5179 197.883 11.9188C197.883 13.0917 198.033 13.9825 198.334 14.621C198.634 15.2594 199.085 15.5712 199.685 15.5712C199.876 15.5712 200.054 15.5415 200.231 15.4672C200.409 15.393 200.559 15.2891 200.682 15.1406C200.805 14.9921 200.914 14.7991 200.996 14.5616C201.078 14.324 201.119 14.0271 201.119 13.6856V10.8052L201.105 10.8201ZM202.921 15.1851C202.921 15.3485 203.003 15.4524 203.181 15.5415C203.358 15.6157 203.563 15.6603 203.823 15.6603C203.945 15.6603 204 15.7345 204 15.8978C204 15.9572 203.986 16.0166 203.959 16.0611C203.932 16.1057 203.891 16.1354 203.836 16.1354C203.727 16.1354 203.468 16.1354 203.044 16.1057C202.621 16.0908 202.075 16.076 201.406 16.076C201.228 16.076 201.133 15.7939 201.119 15.2445C200.928 15.5563 200.668 15.8087 200.341 15.9869C200.013 16.1651 199.59 16.2541 199.071 16.2541C198.648 16.2541 198.238 16.1651 197.856 15.9869C197.473 15.8087 197.132 15.5415 196.832 15.2C196.531 14.8585 196.299 14.4428 196.121 13.9677C195.944 13.4777 195.862 12.9432 195.862 12.3345C195.862 11.8 195.958 11.2952 196.135 10.8349C196.313 10.3598 196.558 9.95895 196.859 9.60261C197.159 9.24628 197.501 8.96419 197.883 8.77117C198.265 8.56331 198.648 8.45938 199.057 8.45938C199.576 8.45938 200.013 8.54847 200.382 8.72663C200.737 8.9048 201.01 9.1572 201.174 9.48384C201.378 9.36506 201.556 9.23144 201.706 9.09781C201.856 8.96419 202.007 8.84541 202.129 8.74148C202.252 8.63755 202.362 8.54847 202.444 8.47423C202.525 8.41484 202.607 8.3703 202.676 8.3703C202.758 8.3703 202.812 8.39999 202.853 8.44454C202.894 8.48908 202.921 8.60785 202.921 8.77117V15.1555" fill="#16799B"/>
<path d="M80.7003 21.8367C80.8232 21.8367 80.9188 21.8664 80.987 21.9258C81.0553 21.9703 81.1236 22.0594 81.1919 22.1782C81.2465 22.2524 81.3284 22.3563 81.4103 22.4603C81.5059 22.5642 81.6015 22.683 81.6971 22.7869C81.7927 22.8908 81.9019 23.0096 82.0111 23.1135C82.1204 23.2175 82.2159 23.3066 82.3252 23.3956C82.6119 23.1581 82.8714 22.9057 83.1171 22.6384C83.3629 22.3712 83.5131 22.1782 83.5814 22.0297C83.636 21.9406 83.7043 21.8812 83.8135 21.8367C83.9228 21.807 84.0183 21.7773 84.1003 21.7773C84.2505 21.7773 84.3597 21.7921 84.4143 21.8218C84.4689 21.8515 84.4962 21.8961 84.4962 21.9406C84.4962 21.9555 84.4962 22 84.4689 22.0297C84.3733 22.1782 84.2231 22.3563 84.0047 22.5493C83.7999 22.7572 83.5814 22.9502 83.3629 23.1432C83.1444 23.3363 82.9396 23.5144 82.7485 23.6629C82.5573 23.8114 82.4344 23.9153 82.3661 23.9598C82.2296 24.0341 82.0931 24.0638 81.9565 24.0638C81.8473 24.0638 81.7517 24.0489 81.6561 24.0044C81.5742 23.9598 81.424 23.8707 81.2192 23.7223C81.0144 23.5738 80.7959 23.3956 80.5638 23.2175C80.3316 23.0245 80.0995 22.8463 79.8947 22.683C79.6899 22.5197 79.526 22.386 79.4304 22.2969C79.3349 22.1782 79.2802 22.0891 79.2802 22.0149C79.2802 21.8961 79.3758 21.8367 79.5533 21.8367H80.6593H80.7003ZM85.5067 33.655C85.3019 34.0411 85.0424 34.3974 84.7147 34.724C84.387 35.0507 83.991 35.3031 83.5268 35.5109C83.0625 35.7188 82.5027 35.8227 81.8609 35.8227C81.0826 35.8227 80.3999 35.6594 79.8128 35.3476C79.2256 35.0358 78.7341 34.6052 78.3381 34.0856C77.9421 33.5659 77.6417 32.9572 77.4505 32.2742C77.2594 31.5913 77.1501 30.8786 77.1501 30.1511C77.1501 29.4236 77.2594 28.6961 77.4779 28.028C77.6963 27.345 78.0104 26.7511 78.42 26.2314C78.8296 25.7118 79.3349 25.2961 79.9357 24.9843C80.5364 24.6725 81.2192 24.5092 81.9838 24.5092C82.6665 24.5092 83.2127 24.628 83.6224 24.8804C84.032 25.1328 84.3597 25.4297 84.6191 25.7563C84.6874 25.7266 84.7557 25.6227 84.8103 25.4594C84.8649 25.2961 84.8786 25.0882 84.8786 24.8507C84.8786 24.6873 84.9741 24.5983 85.179 24.5983C85.2472 24.5983 85.3155 24.6131 85.3701 24.6576C85.4247 24.7022 85.4521 24.7616 85.4521 24.8655C85.4521 25.4594 85.4521 26.0087 85.4794 26.5284C85.5067 27.0332 85.5476 27.5083 85.6159 27.9537C85.6296 28.0428 85.6432 28.0873 85.6432 28.117C85.6432 28.2061 85.6159 28.2655 85.5613 28.2952C85.5067 28.3249 85.4521 28.3546 85.3974 28.3546C85.3155 28.3546 85.2472 28.3397 85.1653 28.2952C85.0834 28.2507 85.0288 28.1913 85.0015 28.1022C84.7147 27.1074 84.346 26.3799 83.8818 25.89C83.4175 25.4 82.8167 25.1625 82.0794 25.1625C81.6015 25.1625 81.1782 25.3109 80.8368 25.593C80.4818 25.8751 80.1951 26.2463 79.963 26.7066C79.7308 27.1668 79.567 27.6865 79.4577 28.2804C79.3485 28.8742 79.2939 29.483 79.2939 30.1066C79.2939 30.7301 79.3485 31.3389 79.4714 31.9328C79.5943 32.5266 79.7718 33.0463 80.0039 33.5066C80.2497 33.9668 80.5638 34.338 80.9597 34.6201C81.3557 34.9022 81.82 35.0507 82.3661 35.0507C82.7348 35.0507 83.0762 34.9764 83.3902 34.828C83.7043 34.6795 84.0047 34.4716 84.2641 34.2341C84.5235 33.9965 84.742 33.7144 84.9195 33.4026C85.097 33.0908 85.2336 32.779 85.3155 32.4673C85.3428 32.3633 85.3974 32.2891 85.4521 32.2445C85.5203 32.2 85.5886 32.1703 85.6705 32.1703C85.7388 32.1703 85.8071 32.2 85.8753 32.2594C85.9436 32.3188 85.9709 32.4079 85.9436 32.5266C85.8344 32.8978 85.6705 33.269 85.4657 33.655" fill="#16799B"/>
<path d="M91.501 30.9974C91.501 30.1066 91.3918 29.483 91.1869 29.1415C90.9685 28.8 90.6544 28.6367 90.2175 28.6367C90.04 28.6367 89.8625 28.6812 89.6986 28.7555C89.5348 28.8445 89.3846 28.9782 89.2617 29.1563C89.1388 29.3494 89.0295 29.5869 88.9476 29.8838C88.8657 30.1808 88.8111 30.552 88.7838 30.9825H91.501V30.9974ZM88.7565 31.6507V31.8437C88.7565 32.4673 88.7974 32.9869 88.893 33.4175C88.9886 33.848 89.1115 34.1895 89.2753 34.4419C89.4392 34.6943 89.6303 34.8725 89.8488 34.9913C90.0673 35.0952 90.2994 35.1546 90.5588 35.1546C91.0231 35.1546 91.4327 35.0358 91.7741 34.7834C92.1154 34.5459 92.3885 34.2192 92.5797 33.8035C92.648 33.655 92.7709 33.5956 92.9484 33.5956C93.0303 33.5956 93.0849 33.6105 93.1122 33.6699C93.1532 33.7144 93.1532 33.7738 93.1259 33.848C93.0303 34.0856 92.9074 34.3231 92.7436 34.5607C92.5797 34.7983 92.3749 35.021 92.1428 35.1991C91.897 35.3921 91.6239 35.5406 91.2962 35.6594C90.9685 35.7782 90.5998 35.8376 90.1765 35.8376C89.7259 35.8376 89.289 35.7485 88.8793 35.5703C88.4561 35.3921 88.0874 35.1249 87.7733 34.7834C87.4593 34.4419 87.1998 34.0411 87.0223 33.5511C86.8312 33.076 86.7356 32.5415 86.7356 31.9476C86.7356 31.3834 86.8312 30.8638 87.0087 30.3887C87.1862 29.9135 87.4456 29.4978 87.7597 29.1563C88.0737 28.8 88.4561 28.5328 88.8793 28.3397C89.3163 28.1467 89.7669 28.0428 90.2584 28.0428C90.75 28.0428 91.1869 28.1319 91.5693 28.3397C91.9379 28.5328 92.252 28.7852 92.5114 29.0969C92.7572 29.4236 92.9484 29.7799 93.0713 30.1956C93.1941 30.6114 93.2624 31.0419 93.2624 31.4873C93.1805 31.517 92.9211 31.5467 92.4978 31.5913C92.0745 31.621 91.4191 31.6507 90.5452 31.6507C90.354 31.6507 90.1902 31.6507 90.04 31.6507C89.8898 31.6507 89.7532 31.6507 89.6303 31.6358C89.5074 31.6358 89.3709 31.6358 89.2344 31.6061C89.0978 31.6061 88.9476 31.5913 88.7974 31.5764C88.7838 31.5913 88.7701 31.6358 88.7701 31.6804" fill="#16799B"/>
<path d="M94.9419 34.917C94.8873 35.021 94.8464 35.0952 94.8191 35.1694C94.7917 35.2734 94.7235 35.3179 94.6142 35.3179C94.4777 35.3179 94.4094 35.2734 94.4094 35.1694C94.4094 35.0804 94.4094 34.9467 94.4504 34.7686C94.4777 34.5756 94.4777 34.3232 94.4777 33.9965C94.4777 33.6699 94.4777 33.3878 94.4504 33.2096C94.4367 33.0166 94.4231 32.883 94.4231 32.8236C94.4231 32.7048 94.4777 32.6454 94.6006 32.6454C94.7098 32.6454 94.7644 32.6603 94.7917 32.7048C94.8191 32.7345 94.8327 32.8087 94.86 32.883C94.9146 33.269 95.0375 33.6105 95.215 33.9074C95.3925 34.2044 95.5974 34.4419 95.8431 34.6498C96.0753 34.8428 96.3347 34.9913 96.6078 35.0804C96.8809 35.1694 97.1403 35.2288 97.3861 35.2288C97.8367 35.2288 98.1917 35.1397 98.4784 34.9319C98.7515 34.7389 98.9017 34.4419 98.9017 34.0559C98.9017 33.8629 98.8608 33.7144 98.7652 33.5659C98.6696 33.4323 98.5467 33.3135 98.3692 33.2096C98.1917 33.1057 97.9732 33.0166 97.7138 32.9424C97.4544 32.8681 97.154 32.779 96.8126 32.69C96.4849 32.6009 96.1845 32.4821 95.8978 32.3633C95.611 32.2445 95.3652 32.0812 95.1468 31.9031C94.9283 31.7101 94.7644 31.4873 94.6279 31.2349C94.505 30.9825 94.4367 30.6559 94.4367 30.2996C94.4367 29.9878 94.4914 29.6908 94.6006 29.4236C94.7098 29.1415 94.86 28.9039 95.0785 28.7109C95.2833 28.5179 95.5427 28.3546 95.8431 28.2507C96.1435 28.1319 96.4849 28.0725 96.8672 28.0725C97.3042 28.0725 97.7001 28.1467 98.0415 28.2804C98.3829 28.414 98.656 28.5773 98.8608 28.7703C98.9973 28.607 99.0792 28.4585 99.1066 28.2952C99.1339 28.1913 99.2021 28.1467 99.3114 28.1467C99.4479 28.1467 99.5162 28.2061 99.5162 28.3397C99.5162 28.5921 99.5572 28.8297 99.5845 29.0673C99.6254 29.3048 99.6664 29.5275 99.7073 29.7057C99.7483 29.8987 99.7893 30.0472 99.8302 30.1808C99.8712 30.3144 99.8849 30.3887 99.8849 30.4183C99.8849 30.4926 99.8575 30.5371 99.8166 30.5668C99.762 30.5965 99.7073 30.6114 99.6391 30.6114C99.5845 30.6114 99.5435 30.6114 99.5162 30.5817C99.4889 30.5668 99.4616 30.5074 99.4206 30.4332C99.2294 29.8987 98.9154 29.483 98.4921 29.1563C98.0552 28.8445 97.5363 28.6812 96.9355 28.6812C96.4986 28.6812 96.1845 28.7703 96.007 28.9336C95.8295 29.1118 95.7339 29.3197 95.7339 29.5572C95.7339 29.8542 95.8978 30.1066 96.2255 30.2847C96.5532 30.4629 97.0174 30.6411 97.5909 30.8044C97.9596 30.8935 98.3009 31.0122 98.615 31.1607C98.929 31.2943 99.1885 31.4725 99.4206 31.6655C99.6527 31.8585 99.8166 32.0961 99.9531 32.3782C100.076 32.6603 100.144 32.9721 100.144 33.3432C100.144 33.7738 100.076 34.1598 99.9258 34.4716C99.7756 34.7834 99.5845 35.0507 99.3387 35.2585C99.0929 35.4664 98.8062 35.6149 98.4921 35.7188C98.1781 35.8227 97.8367 35.8673 97.4953 35.8673C97.0311 35.8673 96.5805 35.7782 96.1572 35.5703C95.7339 35.3773 95.3925 35.0804 95.1331 34.7092C95.0648 34.7834 95.0102 34.8725 94.9556 34.9616" fill="#16799B"/>
<path d="M106.07 31.9031C106.412 32.0961 106.698 32.3188 106.944 32.586C107.19 32.8533 107.395 33.1502 107.545 33.4769C107.709 33.8035 107.818 34.1153 107.9 34.4271C107.968 34.7389 108.119 34.9467 108.31 35.0655C108.514 35.1694 108.747 35.2288 109.006 35.2288C109.061 35.2288 109.102 35.2585 109.143 35.3031C109.17 35.3476 109.184 35.3921 109.184 35.4664C109.184 35.6148 109.129 35.6891 109.006 35.6891C108.91 35.6891 108.733 35.6891 108.474 35.6594C108.214 35.6445 107.832 35.6297 107.34 35.6297C107.135 35.6297 106.931 35.6297 106.726 35.6594C106.521 35.6594 106.357 35.6891 106.248 35.6891C106.043 35.6891 105.947 35.5555 105.947 35.2734C105.947 34.7834 105.879 34.338 105.756 33.9371C105.633 33.5214 105.47 33.1799 105.278 32.883C105.074 32.586 104.841 32.3485 104.555 32.1851C104.268 32.0218 103.968 31.9327 103.626 31.9031V34.7834C103.626 35.11 103.872 35.2734 104.35 35.2734C104.404 35.2734 104.445 35.2882 104.486 35.3327C104.514 35.3773 104.527 35.4367 104.527 35.4961C104.527 35.6445 104.473 35.7039 104.35 35.7039C104.254 35.7039 104.077 35.7039 103.817 35.6742C103.558 35.6594 103.189 35.6445 102.698 35.6445C102.206 35.6445 101.824 35.6445 101.523 35.6742C101.223 35.6742 101.005 35.7039 100.909 35.7039C100.854 35.7039 100.813 35.6891 100.772 35.6297C100.745 35.5851 100.731 35.5258 100.731 35.4664C100.731 35.3179 100.786 35.2437 100.909 35.2437C101.155 35.2437 101.373 35.1991 101.551 35.1249C101.728 35.0507 101.824 34.9319 101.824 34.7686V25.6672C101.824 25.5188 101.728 25.4 101.551 25.3109C101.373 25.2367 101.155 25.1921 100.909 25.1921C100.854 25.1921 100.813 25.1624 100.772 25.1031C100.745 25.0437 100.731 24.9843 100.731 24.9249C100.731 24.7764 100.786 24.7022 100.909 24.7022C101.1 24.7022 101.401 24.7022 101.81 24.7022C102.22 24.7022 102.766 24.7022 103.462 24.7022C103.626 24.7022 103.708 24.821 103.708 25.0437C103.708 25.1327 103.708 25.2664 103.694 25.4148C103.694 25.5782 103.681 25.786 103.667 26.0533C103.667 26.3205 103.667 26.6769 103.64 27.1074C103.64 27.538 103.626 28.0873 103.626 28.7406V31.324C103.968 31.324 104.268 31.2349 104.527 31.0865C104.8 30.938 105.019 30.7598 105.196 30.552C105.374 30.3441 105.524 30.1214 105.606 29.8838C105.702 29.6463 105.756 29.4384 105.756 29.2603C105.756 29.0969 105.702 28.9485 105.606 28.8445C105.511 28.7406 105.347 28.6812 105.115 28.6812C105.005 28.6812 104.937 28.607 104.937 28.4437C104.937 28.3843 104.951 28.3249 104.978 28.2803C105.005 28.2358 105.046 28.2061 105.101 28.2061C105.21 28.2061 105.415 28.2061 105.715 28.2358C106.016 28.2506 106.412 28.2655 106.89 28.2655C107.368 28.2655 107.804 28.2655 108.159 28.2358C108.514 28.221 108.747 28.2061 108.842 28.2061C108.965 28.2061 109.02 28.2803 109.02 28.4437C109.02 28.5031 109.006 28.5624 108.979 28.607C108.951 28.6515 108.91 28.6812 108.842 28.6812C108.487 28.6812 108.228 28.7406 108.064 28.8445C107.9 28.9485 107.75 29.1266 107.6 29.3939C107.299 29.9284 106.903 30.3738 106.425 30.7301C105.947 31.1013 105.429 31.3537 104.855 31.4873C105.306 31.5467 105.702 31.6803 106.043 31.8585" fill="#16799B"/>
<path d="M114.577 25.8009C114.318 26.0087 114.058 26.2166 113.799 26.4096C113.526 26.6026 113.266 26.7659 113.007 26.9293C112.747 27.0926 112.515 27.2262 112.297 27.3301C112.188 27.3747 112.092 27.4192 112.01 27.4341C111.914 27.4489 111.805 27.4638 111.682 27.4638C111.559 27.4638 111.491 27.4044 111.491 27.3004C111.491 27.2262 111.532 27.1668 111.628 27.0926C111.792 26.9738 111.955 26.8402 112.133 26.6917C112.31 26.5284 112.461 26.3651 112.611 26.1869C112.761 26.0087 112.898 25.8306 113.02 25.6376C113.143 25.4445 113.239 25.2664 113.321 25.0882C113.362 24.9843 113.416 24.9101 113.512 24.8655C113.594 24.821 113.689 24.8061 113.799 24.8061H115.137C115.137 24.8061 115.246 24.821 115.273 24.8655C115.301 24.8952 115.314 24.9397 115.314 24.9843C115.314 25.0585 115.287 25.1179 115.246 25.1773C115.055 25.3852 114.836 25.593 114.577 25.8157M114.072 31.0122C114.072 30.1214 113.963 29.4978 113.758 29.1563C113.553 28.8149 113.225 28.6515 112.802 28.6515C112.624 28.6515 112.447 28.6961 112.283 28.7703C112.119 28.8594 111.969 28.993 111.846 29.1712C111.71 29.3642 111.614 29.6018 111.532 29.8987C111.45 30.1956 111.396 30.5668 111.368 30.9974H114.085L114.072 31.0122ZM111.341 31.6655V31.8585C111.341 32.4821 111.382 33.0018 111.477 33.4323C111.573 33.8629 111.696 34.2044 111.86 34.4568C112.024 34.7092 112.215 34.8873 112.433 35.0061C112.652 35.1101 112.898 35.1694 113.143 35.1694C113.608 35.1694 114.017 35.0507 114.359 34.7983C114.7 34.5607 114.973 34.2341 115.164 33.8183C115.232 33.6699 115.355 33.6105 115.533 33.6105C115.615 33.6105 115.669 33.6253 115.71 33.6847C115.751 33.7293 115.751 33.7887 115.724 33.8629C115.628 34.1004 115.506 34.338 115.342 34.5756C115.178 34.8131 114.973 35.0358 114.741 35.214C114.509 35.407 114.222 35.5555 113.894 35.6742C113.567 35.793 113.198 35.8524 112.775 35.8524C112.324 35.8524 111.887 35.7633 111.477 35.5852C111.054 35.407 110.699 35.1397 110.371 34.7983C110.057 34.4568 109.798 34.0559 109.607 33.5659C109.416 33.0908 109.32 32.5563 109.32 31.9625C109.32 31.3983 109.416 30.8786 109.593 30.4035C109.771 29.9284 110.03 29.5127 110.344 29.1712C110.658 28.8149 111.027 28.5476 111.464 28.3546C111.887 28.1616 112.351 28.0576 112.843 28.0576C113.334 28.0576 113.771 28.1467 114.154 28.3546C114.522 28.5476 114.836 28.8 115.096 29.1118C115.355 29.4384 115.533 29.7948 115.669 30.2105C115.792 30.6262 115.861 31.0568 115.861 31.5022C115.779 31.5319 115.519 31.5616 115.082 31.6061C114.659 31.6358 114.004 31.6655 113.116 31.6655C112.925 31.6655 112.761 31.6655 112.611 31.6655C112.461 31.6655 112.324 31.6655 112.201 31.6507C112.078 31.6507 111.942 31.6507 111.805 31.621C111.669 31.621 111.518 31.6061 111.368 31.5913C111.368 31.6061 111.355 31.6507 111.355 31.6952" fill="#16799B"/>
<path d="M125.842 30.2699C125.774 30.3887 125.705 30.4629 125.623 30.4629C125.541 30.4629 125.473 30.4183 125.419 30.3293C125.323 30.1214 125.186 29.9432 124.995 29.7948C124.804 29.6463 124.545 29.5721 124.217 29.5721C124.053 29.5721 123.903 29.6018 123.739 29.676C123.589 29.7502 123.439 29.869 123.316 30.0323C123.193 30.1956 123.084 30.4035 123.015 30.6559C122.933 30.9232 122.893 31.2349 122.893 31.6061V34.7389C122.893 35.0507 123.343 35.214 124.231 35.214C124.285 35.214 124.326 35.2437 124.367 35.2882C124.395 35.3328 124.408 35.3921 124.408 35.4515C124.408 35.6149 124.354 35.6891 124.231 35.6891C124.19 35.6891 124.094 35.6891 123.944 35.6891C123.807 35.6891 123.63 35.6891 123.425 35.6742C123.22 35.6742 123.002 35.6742 122.756 35.6594C122.51 35.6594 122.264 35.6594 122.032 35.6594C121.554 35.6594 121.158 35.6594 120.817 35.6891C120.489 35.6891 120.271 35.7188 120.162 35.7188C120.107 35.7188 120.066 35.7039 120.025 35.6445C119.998 35.6 119.984 35.5406 119.984 35.4812C119.984 35.3328 120.039 35.2585 120.162 35.2585C120.407 35.2585 120.626 35.214 120.803 35.1397C120.981 35.0655 121.063 34.9467 121.063 34.7834V29.2306C121.063 29.0821 120.967 28.9633 120.803 28.8742C120.626 28.8 120.407 28.7555 120.162 28.7555C120.107 28.7555 120.066 28.7406 120.025 28.6812C119.998 28.6367 119.984 28.5773 119.984 28.5179C119.984 28.3694 120.039 28.2804 120.162 28.2804C120.271 28.2804 120.517 28.2804 120.94 28.31C121.35 28.31 121.896 28.3249 122.592 28.3249C122.674 28.3249 122.742 28.3546 122.77 28.414C122.797 28.4734 122.824 28.5624 122.852 28.6664C122.852 28.7109 122.865 28.7852 122.865 28.9039C122.865 29.0227 122.865 29.1415 122.879 29.2751C122.879 29.4087 122.879 29.5275 122.879 29.6463V29.9284C122.988 29.7057 123.125 29.4978 123.275 29.2751C123.439 29.0524 123.603 28.8594 123.807 28.6812C123.999 28.5031 124.217 28.3546 124.463 28.2507C124.709 28.1467 124.954 28.0873 125.241 28.0873C125.405 28.0873 125.555 28.1022 125.705 28.1467C125.856 28.1913 125.978 28.2358 126.088 28.31C126.197 28.3843 126.292 28.4585 126.361 28.5328C126.429 28.6218 126.47 28.7109 126.47 28.8C126.47 28.8891 126.443 28.9782 126.388 29.1118L125.842 30.3144V30.2699Z" fill="#16799B"/>
<path d="M131.085 30.9974C131.085 30.1066 130.976 29.483 130.771 29.1415C130.566 28.8 130.239 28.6367 129.815 28.6367C129.638 28.6367 129.46 28.6812 129.297 28.7555C129.133 28.8445 128.982 28.9782 128.86 29.1563C128.723 29.3494 128.627 29.5869 128.546 29.8838C128.464 30.1808 128.409 30.552 128.382 30.9825H131.099L131.085 30.9974ZM128.341 31.6507V31.8437C128.341 32.4673 128.382 32.9869 128.491 33.4175C128.586 33.848 128.709 34.1895 128.873 34.4419C129.037 34.6943 129.228 34.8725 129.447 34.9913C129.665 35.0952 129.897 35.1546 130.157 35.1546C130.621 35.1546 131.031 35.0358 131.372 34.7834C131.713 34.5459 131.986 34.2192 132.178 33.8035C132.246 33.655 132.369 33.5956 132.56 33.5956C132.628 33.5956 132.696 33.6105 132.724 33.6699C132.765 33.7144 132.765 33.7738 132.737 33.848C132.642 34.0856 132.519 34.3231 132.355 34.5607C132.191 34.7983 131.986 35.021 131.754 35.1991C131.509 35.3921 131.235 35.5406 130.908 35.6594C130.58 35.7782 130.211 35.8376 129.788 35.8376C129.337 35.8376 128.901 35.7485 128.491 35.5703C128.068 35.3921 127.699 35.1249 127.385 34.7834C127.071 34.4419 126.811 34.0411 126.62 33.5511C126.429 33.076 126.333 32.5415 126.333 31.9476C126.333 31.3834 126.429 30.8638 126.607 30.3887C126.784 29.9135 127.03 29.4978 127.358 29.1563C127.672 28.8 128.04 28.5328 128.477 28.3397C128.901 28.1467 129.365 28.0428 129.856 28.0428C130.348 28.0428 130.785 28.1319 131.167 28.3397C131.536 28.5328 131.85 28.7852 132.109 29.0969C132.369 29.4236 132.546 29.7799 132.669 30.1956C132.792 30.6114 132.86 31.0419 132.86 31.4873C132.778 31.517 132.519 31.5467 132.096 31.5913C131.672 31.621 131.017 31.6507 130.143 31.6507C129.952 31.6507 129.774 31.6507 129.638 31.6507C129.488 31.6507 129.351 31.6507 129.228 31.6358C129.092 31.6358 128.969 31.6358 128.832 31.6061C128.696 31.6061 128.546 31.5913 128.395 31.5764C128.395 31.5913 128.368 31.6358 128.368 31.6804" fill="#16799B"/>
<path d="M136.165 33.5065C136.165 34.0707 136.315 34.4865 136.602 34.7686C136.902 35.0506 137.243 35.1991 137.653 35.1991C137.94 35.1991 138.186 35.1249 138.404 34.9764C138.623 34.8279 138.8 34.6349 138.937 34.3677C139.073 34.1004 139.196 33.8035 139.264 33.4472C139.346 33.0908 139.387 32.7048 139.387 32.2891C139.387 31.1458 139.237 30.2699 138.95 29.6463C138.664 29.0227 138.213 28.7258 137.612 28.7258C137.435 28.7258 137.243 28.7703 137.066 28.8297C136.888 28.9039 136.738 29.0079 136.602 29.1712C136.465 29.3196 136.356 29.5127 136.274 29.7651C136.192 30.0026 136.151 30.2996 136.151 30.641V33.4917L136.165 33.5065ZM134.349 29.1712C134.349 29.0079 134.267 28.9039 134.089 28.8148C133.912 28.7406 133.693 28.6961 133.448 28.6961C133.338 28.6961 133.27 28.6218 133.27 28.4585C133.27 28.3991 133.284 28.3397 133.311 28.2952C133.338 28.2506 133.379 28.221 133.434 28.221C133.543 28.221 133.803 28.221 134.226 28.2506C134.649 28.2655 135.195 28.2803 135.864 28.2803C136.028 28.2803 136.124 28.5476 136.151 29.0969C136.342 28.7851 136.602 28.5179 136.929 28.31C137.257 28.1022 137.68 27.9982 138.199 27.9982C138.636 27.9982 139.046 28.1022 139.428 28.2952C139.811 28.4882 140.152 28.7555 140.439 29.0969C140.725 29.4384 140.971 29.8541 141.135 30.3292C141.312 30.8192 141.394 31.3537 141.394 31.9476C141.394 32.4821 141.299 32.972 141.121 33.4472C140.944 33.9223 140.698 34.3231 140.398 34.6795C140.097 35.0358 139.756 35.303 139.374 35.5109C138.991 35.7188 138.609 35.8079 138.199 35.8079C137.203 35.8079 136.52 35.5109 136.151 34.9319V37.931C136.151 38.0201 136.178 38.0795 136.247 38.1389C136.315 38.1982 136.397 38.2428 136.506 38.2873C136.615 38.3319 136.725 38.3616 136.861 38.3764C136.984 38.3913 137.121 38.4061 137.243 38.4061C137.298 38.4061 137.353 38.4358 137.38 38.4803C137.407 38.5249 137.421 38.5843 137.421 38.6437C137.421 38.7921 137.366 38.8664 137.243 38.8664C137.148 38.8664 136.916 38.8664 136.533 38.8367C136.151 38.8218 135.714 38.807 135.223 38.807C134.731 38.807 134.349 38.807 134.048 38.8367C133.748 38.8515 133.529 38.8664 133.434 38.8664C133.379 38.8664 133.338 38.8515 133.311 38.7921C133.284 38.7476 133.27 38.6882 133.27 38.6288C133.27 38.4803 133.325 38.4061 133.448 38.4061C133.693 38.4061 133.912 38.3616 134.089 38.2873C134.267 38.2131 134.349 38.0943 134.349 37.931V29.1563" fill="#16799B"/>
<path d="M149.888 34.7389C149.888 34.9022 149.969 35.021 150.147 35.0952C150.324 35.1694 150.543 35.214 150.789 35.214C150.843 35.214 150.884 35.2437 150.912 35.2882C150.939 35.3328 150.953 35.3921 150.953 35.4515C150.953 35.6148 150.898 35.6891 150.775 35.6891C150.666 35.6891 150.406 35.6891 149.997 35.6594C149.587 35.6594 149.041 35.6445 148.358 35.6445C148.276 35.6445 148.208 35.6148 148.181 35.5555C148.153 35.4961 148.126 35.407 148.099 35.3031C148.071 35.214 148.058 35.0804 148.058 34.917C148.058 34.7537 148.058 34.6052 148.058 34.4568C147.839 34.828 147.525 35.1397 147.102 35.407C146.679 35.6742 146.16 35.8079 145.545 35.8079C144.794 35.8079 144.207 35.6149 143.784 35.2437C143.374 34.8725 143.17 34.2638 143.17 33.4175V29.186C143.17 29.0227 143.088 28.9039 142.91 28.8297C142.733 28.7555 142.514 28.7109 142.268 28.7109C142.214 28.7109 142.173 28.6961 142.132 28.6367C142.104 28.5921 142.091 28.5328 142.091 28.4734C142.091 28.3249 142.145 28.2358 142.268 28.2358C142.364 28.2358 142.61 28.2358 143.019 28.2655C143.429 28.2804 144.03 28.2952 144.822 28.2952C144.986 28.2952 145.067 28.414 145.067 28.6367C145.067 28.7258 145.067 28.8445 145.054 28.9782C145.054 29.1118 145.04 29.29 145.04 29.4978C145.04 29.7057 145.04 29.9581 145.013 30.2699C145.013 30.5817 144.999 30.9528 144.999 31.3834V33.1057C144.999 33.7144 145.081 34.1747 145.259 34.4568C145.436 34.7389 145.75 34.8873 146.201 34.8873C146.747 34.8873 147.198 34.6943 147.539 34.3231C147.88 33.952 148.058 33.4026 148.058 32.7048V29.1563C148.058 28.993 147.962 28.8742 147.798 28.8C147.621 28.7258 147.402 28.6812 147.157 28.6812C147.102 28.6812 147.061 28.6664 147.034 28.607C147.006 28.5624 146.993 28.5031 146.993 28.4437C146.993 28.2952 147.047 28.2061 147.17 28.2061C147.225 28.2061 147.334 28.2061 147.498 28.2061C147.662 28.2061 147.867 28.2061 148.099 28.221C148.331 28.221 148.59 28.221 148.877 28.2358C149.164 28.2358 149.451 28.2358 149.724 28.2358C149.888 28.2358 149.969 28.3546 149.969 28.5773C149.969 28.6664 149.969 28.7852 149.969 28.9336C149.969 29.0821 149.956 29.2454 149.942 29.4681C149.942 29.676 149.942 29.9432 149.928 30.255C149.928 30.5668 149.928 30.9528 149.928 31.4131V34.6795L149.888 34.7389Z" fill="#16799B"/>
<path d="M157.616 33.2244C157.548 33.6253 157.452 33.9668 157.315 34.2489C157.179 34.531 157.001 34.7537 156.783 34.9022C156.564 35.0655 156.305 35.1397 156.005 35.1397C155.827 35.1397 155.636 35.11 155.458 35.0358C155.281 34.9616 155.117 34.8576 154.981 34.7092C154.844 34.5607 154.735 34.3677 154.639 34.1301C154.557 33.8926 154.503 33.5956 154.503 33.2541V30.3738C154.503 29.8096 154.639 29.379 154.926 29.0821C155.199 28.7851 155.554 28.6515 155.964 28.6515C156.537 28.6515 156.974 28.9336 157.261 29.5127C157.561 30.0917 157.711 30.8786 157.711 31.9031C157.711 32.393 157.67 32.8384 157.616 33.2393M159.487 30.3589C159.323 29.8987 159.104 29.483 158.817 29.1415C158.531 28.8 158.189 28.5327 157.807 28.3249C157.425 28.1319 157.001 28.0279 156.551 28.0279C156.059 28.0279 155.65 28.117 155.308 28.2655C154.967 28.4288 154.707 28.6515 154.516 28.9633C154.516 28.3397 154.516 27.7904 154.53 27.345C154.53 26.8996 154.544 26.5135 154.544 26.2166C154.544 25.9196 154.544 25.6672 154.571 25.4742C154.571 25.2961 154.571 25.1476 154.571 25.0585C154.571 24.8358 154.489 24.717 154.325 24.717C153.615 24.717 153.055 24.717 152.646 24.717C152.236 24.717 151.949 24.717 151.772 24.717C151.649 24.717 151.594 24.7913 151.594 24.9397C151.594 24.9991 151.594 25.0585 151.635 25.1179C151.663 25.1773 151.703 25.207 151.772 25.207C152.018 25.207 152.236 25.2515 152.414 25.3258C152.591 25.4 152.687 25.5188 152.687 25.6821V34.7834C152.687 34.9467 152.591 35.0655 152.414 35.1397C152.236 35.214 152.031 35.2585 151.772 35.2585C151.649 35.2585 151.594 35.3327 151.594 35.4812C151.594 35.5406 151.594 35.6 151.635 35.6445C151.663 35.6891 151.703 35.7188 151.772 35.7188C151.881 35.7188 152.14 35.7188 152.564 35.6891C152.987 35.6742 153.533 35.6594 154.202 35.6594C154.38 35.6594 154.475 35.3921 154.489 34.8428C154.68 35.1546 154.94 35.407 155.267 35.5851C155.595 35.7633 156.018 35.8524 156.523 35.8524C156.947 35.8524 157.343 35.7485 157.725 35.5555C158.107 35.3624 158.449 35.0952 158.736 34.7537C159.022 34.4122 159.254 33.9965 159.432 33.5065C159.609 33.0166 159.705 32.4821 159.705 31.8882C159.705 31.3537 159.623 30.8341 159.459 30.3738" fill="#16799B"/>
<path d="M163.474 25.4297C163.474 25.593 163.46 25.8009 163.46 26.0681C163.46 26.3354 163.46 26.6917 163.433 27.1223C163.433 27.5528 163.433 28.1022 163.433 28.7555V34.7389C163.433 34.9022 163.528 35.021 163.692 35.0952C163.87 35.1694 164.088 35.1991 164.334 35.1991C164.388 35.1991 164.429 35.2288 164.47 35.2734C164.498 35.3179 164.511 35.3773 164.511 35.4367C164.511 35.6 164.457 35.6742 164.334 35.6742C164.238 35.6742 164.033 35.6742 163.706 35.6445C163.392 35.6297 162.982 35.6148 162.49 35.6148C161.999 35.6148 161.617 35.6148 161.316 35.6445C161.016 35.6445 160.797 35.6742 160.702 35.6742C160.647 35.6742 160.606 35.6594 160.579 35.6C160.551 35.5555 160.538 35.4961 160.538 35.4367C160.538 35.2882 160.592 35.214 160.702 35.214C160.947 35.214 161.166 35.1694 161.343 35.0952C161.521 35.021 161.617 34.9022 161.617 34.7389V25.6376C161.617 25.4891 161.521 25.3703 161.343 25.2812C161.166 25.207 160.947 25.1624 160.702 25.1624C160.647 25.1624 160.606 25.1327 160.579 25.0734C160.551 25.014 160.538 24.9546 160.538 24.8952C160.538 24.7467 160.592 24.6725 160.702 24.6725C160.893 24.6725 161.193 24.6725 161.603 24.6725C162.013 24.6725 162.559 24.6725 163.255 24.6725C163.419 24.6725 163.501 24.7913 163.501 25.014C163.501 25.1031 163.501 25.2367 163.487 25.3851" fill="#16799B"/>
<path d="M167.87 24.8803C168.075 25.1031 168.184 25.3852 168.184 25.7118C168.184 26.0384 168.075 26.3205 167.87 26.5432C167.666 26.7659 167.406 26.8847 167.106 26.8847C166.805 26.8847 166.546 26.7659 166.327 26.5432C166.123 26.3205 166.013 26.0384 166.013 25.7118C166.013 25.3852 166.123 25.1031 166.327 24.8803C166.532 24.6576 166.805 24.5389 167.106 24.5389C167.406 24.5389 167.666 24.6576 167.87 24.8803ZM168.116 29.0079C168.116 29.1712 168.102 29.379 168.102 29.6611C168.102 29.9432 168.102 30.2996 168.075 30.7301C168.075 31.1607 168.061 31.71 168.061 32.3633V34.7092C168.061 34.8725 168.157 34.9913 168.321 35.0655C168.498 35.1397 168.717 35.1694 168.963 35.1694C169.017 35.1694 169.058 35.1991 169.086 35.2437C169.113 35.2882 169.127 35.3476 169.127 35.407C169.127 35.5555 169.072 35.6445 168.963 35.6445C168.867 35.6445 168.662 35.6445 168.335 35.6148C168.021 35.6 167.611 35.5852 167.119 35.5852C166.628 35.5852 166.245 35.5852 165.945 35.6148C165.645 35.6148 165.426 35.6445 165.331 35.6445C165.276 35.6445 165.235 35.6297 165.208 35.5703C165.18 35.5258 165.167 35.4664 165.167 35.407C165.167 35.2585 165.221 35.1843 165.344 35.1843C165.59 35.1843 165.809 35.1397 165.986 35.0655C166.164 34.9913 166.259 34.8725 166.259 34.7092V29.1563C166.259 28.993 166.164 28.8742 165.986 28.8C165.809 28.7258 165.59 28.6812 165.344 28.6812C165.29 28.6812 165.249 28.6515 165.221 28.607C165.194 28.5624 165.18 28.5031 165.18 28.4437C165.18 28.2952 165.235 28.2061 165.358 28.2061C165.467 28.2061 165.74 28.2061 166.204 28.2358C166.655 28.2507 167.229 28.2655 167.911 28.2655C168.075 28.2655 168.157 28.3843 168.157 28.607C168.157 28.6961 168.157 28.8297 168.143 28.9782" fill="#16799B"/>
<path d="M175.053 31.9031C175.394 32.0961 175.681 32.3188 175.926 32.586C176.172 32.8533 176.377 33.1502 176.527 33.4769C176.691 33.8035 176.8 34.1153 176.882 34.4271C176.964 34.7389 177.101 34.9467 177.306 35.0655C177.51 35.1694 177.742 35.2288 178.002 35.2288C178.057 35.2288 178.097 35.2585 178.125 35.3031C178.152 35.3476 178.166 35.3921 178.166 35.4664C178.166 35.6148 178.111 35.6891 177.988 35.6891C177.893 35.6891 177.715 35.6891 177.456 35.6594C177.196 35.6445 176.814 35.6297 176.322 35.6297C176.118 35.6297 175.913 35.6297 175.708 35.6594C175.503 35.6594 175.339 35.6891 175.23 35.6891C175.025 35.6891 174.93 35.5555 174.93 35.2734C174.93 34.7834 174.861 34.338 174.738 33.9371C174.616 33.5214 174.452 33.1799 174.261 32.883C174.056 32.586 173.824 32.3485 173.537 32.1851C173.25 32.0218 172.95 31.9327 172.608 31.9031V34.7834C172.608 35.11 172.841 35.2734 173.332 35.2734C173.387 35.2734 173.428 35.2882 173.469 35.3327C173.496 35.3773 173.51 35.4367 173.51 35.4961C173.51 35.6445 173.455 35.7039 173.332 35.7039C173.236 35.7039 173.059 35.7039 172.8 35.6742C172.54 35.6594 172.171 35.6445 171.68 35.6445C171.188 35.6445 170.806 35.6445 170.506 35.6742C170.192 35.6742 170 35.7039 169.891 35.7039C169.837 35.7039 169.796 35.6891 169.768 35.6297C169.741 35.5851 169.727 35.5258 169.727 35.4664C169.727 35.3179 169.782 35.2437 169.905 35.2437C170.151 35.2437 170.369 35.1991 170.547 35.1249C170.724 35.0507 170.806 34.9319 170.806 34.7686V25.6672C170.806 25.5188 170.724 25.4 170.547 25.3109C170.369 25.2367 170.151 25.1921 169.905 25.1921C169.85 25.1921 169.809 25.1624 169.782 25.1031C169.755 25.0437 169.741 24.9843 169.741 24.9249C169.741 24.7764 169.796 24.7022 169.918 24.7022C170.11 24.7022 170.41 24.7022 170.82 24.7022C171.229 24.7022 171.775 24.7022 172.472 24.7022C172.636 24.7022 172.718 24.821 172.718 25.0437C172.718 25.1327 172.718 25.2664 172.718 25.4148C172.718 25.5782 172.704 25.786 172.69 26.0533C172.69 26.3205 172.69 26.6769 172.677 27.1074C172.677 27.538 172.663 28.0873 172.663 28.7406V31.324C173.004 31.324 173.291 31.2349 173.564 31.0865C173.837 30.938 174.056 30.7598 174.247 30.552C174.424 30.3441 174.561 30.1214 174.67 29.8838C174.766 29.6463 174.807 29.4384 174.807 29.2603C174.807 29.0969 174.752 28.9485 174.657 28.8445C174.561 28.7406 174.397 28.6812 174.165 28.6812C174.042 28.6812 173.987 28.607 173.987 28.4437C173.987 28.3843 174.001 28.3249 174.028 28.2803C174.056 28.2358 174.097 28.2061 174.151 28.2061C174.261 28.2061 174.465 28.2061 174.766 28.2358C175.066 28.2506 175.462 28.2655 175.94 28.2655C176.418 28.2655 176.855 28.2655 177.21 28.2358C177.565 28.221 177.797 28.2061 177.893 28.2061C178.002 28.2061 178.07 28.2803 178.07 28.4437C178.07 28.5031 178.056 28.5624 178.029 28.607C178.002 28.6515 177.961 28.6812 177.893 28.6812C177.538 28.6812 177.278 28.7406 177.114 28.8445C176.95 28.9485 176.8 29.1266 176.65 29.3939C176.35 29.9284 175.954 30.3738 175.476 30.7301C174.998 31.1013 174.479 31.3537 173.892 31.4873C174.342 31.5467 174.738 31.6803 175.08 31.8585" fill="#16799B"/>
<path d="M185.43 37.0996C185.211 37.5153 184.925 37.8568 184.556 38.1389C184.187 38.421 183.764 38.6288 183.286 38.7773C182.795 38.9258 182.289 39 181.757 39C181.374 39 181.006 38.9703 180.651 38.8961C180.309 38.8218 179.995 38.7328 179.736 38.5991C179.477 38.4655 179.272 38.3022 179.108 38.1092C178.958 37.9013 178.876 37.6638 178.876 37.3965C178.876 37.0402 178.971 36.7878 179.162 36.6245C179.354 36.4611 179.558 36.3869 179.777 36.3869C179.995 36.3869 180.2 36.4611 180.378 36.5948C180.555 36.7432 180.651 36.9659 180.651 37.2629C180.651 37.3965 180.623 37.5301 180.583 37.6489C180.528 37.7677 180.46 37.8716 180.35 37.9607C180.432 38.124 180.61 38.2428 180.869 38.3616C181.129 38.4655 181.415 38.5249 181.729 38.5249C182.016 38.5249 182.289 38.4804 182.562 38.3913C182.822 38.3022 183.054 38.1686 183.272 38.0052C183.477 37.8271 183.641 37.6192 183.764 37.352C183.887 37.0847 183.942 36.7729 183.942 36.4166V34.4419C183.696 34.8131 183.354 35.1249 182.931 35.3921C182.508 35.6594 181.975 35.793 181.361 35.793C180.61 35.793 180.023 35.6 179.599 35.2288C179.19 34.8576 178.985 34.2489 178.985 33.4026V29.1712C178.985 29.0079 178.889 28.8891 178.712 28.8149C178.534 28.7406 178.316 28.6961 178.07 28.6961C178.015 28.6961 177.975 28.6812 177.947 28.6218C177.92 28.5773 177.906 28.5179 177.906 28.4585C177.906 28.31 177.961 28.221 178.084 28.221C178.179 28.221 178.425 28.221 178.835 28.2507C179.244 28.2655 179.845 28.2804 180.637 28.2804C180.801 28.2804 180.883 28.3991 180.883 28.6218C180.883 28.7109 180.883 28.8297 180.869 28.9633C180.869 29.0969 180.856 29.2751 180.842 29.483C180.842 29.6908 180.842 29.9432 180.815 30.255C180.815 30.5668 180.801 30.938 180.801 31.3686V33.0611C180.801 33.655 180.883 34.1004 181.047 34.4122C181.211 34.724 181.538 34.8725 182.016 34.8725C182.289 34.8725 182.535 34.828 182.767 34.7389C182.999 34.6498 183.204 34.5013 183.382 34.3231C183.559 34.1301 183.696 33.9074 183.791 33.6402C183.887 33.3729 183.942 33.0611 183.942 32.7048V29.1563C183.942 28.993 183.846 28.8742 183.682 28.8C183.505 28.7258 183.286 28.6812 183.04 28.6812C182.986 28.6812 182.945 28.6664 182.917 28.607C182.89 28.5624 182.876 28.5031 182.876 28.4437C182.876 28.2952 182.931 28.2061 183.04 28.2061C183.095 28.2061 183.191 28.2061 183.368 28.2061C183.532 28.2061 183.737 28.2061 183.982 28.221C184.215 28.221 184.474 28.221 184.761 28.2358C185.048 28.2358 185.321 28.2358 185.594 28.2358C185.758 28.2358 185.839 28.3546 185.839 28.5773C185.839 28.6664 185.839 28.7852 185.839 28.9336C185.839 29.0821 185.826 29.2454 185.812 29.4681C185.812 29.676 185.812 29.9432 185.785 30.255C185.785 30.5668 185.785 30.9528 185.785 31.4131V35.6C185.785 36.1493 185.676 36.6393 185.457 37.055" fill="#16799B"/>
</g>
<defs>
<clipPath id="clip0_2772_8987">
<rect width="57" height="40" fill="#16799B"/>
</clipPath>
<clipPath id="clip1_2772_8987">
<rect width="127" height="34" fill="#16799B" transform="translate(77 5)"/>
</clipPath>
</defs>
</svg>
